pfont.ufo
<glyph name="exclam" format="1">
  <advance width="425"/>
  <unicode hex="0021"/>
  <outline>
    <contour>
      <point x="274" y="386" type="line"/>
      <point x="269" y="1234" type="line"/>
      <point x="125" y="1184" type="line"/>
      <point x="161" y="336" type="line"/>
    </contour>
    <component base="period" xOffset="16" yOffset="-23" xScale="0.803" yScale="0.803"/>
  </outline>
</glyph>
<glyph name="quotedbl" format="1">
  <advance width="600"/>
  <unicode hex="0022"/>
  <outline>
    <contour>
      <point x="223" y="1019"/>
      <point x="225" y="1018"/>
      <point x="225" y="1022" type="curve" smooth="yes"/>
      <point x="253" y="1451" type="line" smooth="yes"/>
      <point x="253" y="1454"/>
      <point x="252" y="1458"/>
      <point x="248" y="1458" type="curve" smooth="yes"/>
      <point x="144" y="1458" type="line" smooth="yes"/>
      <point x="140" y="1458"/>
      <point x="137" y="1458"/>
      <point x="137" y="1453" type="curve" smooth="yes"/>
      <point x="135" y="1026" type="line" smooth="yes"/>
      <point x="135" y="1023"/>
      <point x="136" y="1019"/>
      <point x="138" y="1019" type="curve" smooth="yes"/>
      <point x="218" y="1019" type="line" smooth="yes"/>
    </contour>
    <contour>
      <point x="453" y="1019"/>
      <point x="455" y="1018"/>
      <point x="455" y="1022" type="curve" smooth="yes"/>
      <point x="483" y="1451" type="line" smooth="yes"/>
      <point x="483" y="1454"/>
      <point x="482" y="1458"/>
      <point x="478" y="1458" type="curve" smooth="yes"/>
      <point x="374" y="1458" type="line" smooth="yes"/>
      <point x="370" y="1458"/>
      <point x="367" y="1458"/>
      <point x="367" y="1453" type="curve" smooth="yes"/>
      <point x="365" y="1026" type="line" smooth="yes"/>
      <point x="365" y="1023"/>
      <point x="366" y="1019"/>
      <point x="368" y="1019" type="curve" smooth="yes"/>
      <point x="448" y="1019" type="line" smooth="yes"/>
    </contour>
  </outline>
</glyph>
<glyph name="numbersign" format="1">
  <advance width="1201"/>
  <unicode hex="0023"/>
  <outline>
    <contour>
      <point x="326" y="353" type="line"/>
      <point x="279" y="30" type="line"/>
      <point x="377" y="30" type="line"/>
      <point x="424" y="353" type="line"/>
      <point x="661" y="353" type="line"/>
      <point x="614" y="30" type="line"/>
      <point x="712" y="30" type="line"/>
      <point x="759" y="353" type="line"/>
      <point x="1011" y="353" type="line"/>
      <point x="1028" y="446" type="line"/>
      <point x="773" y="446" type="line"/>
      <point x="817" y="755" type="line"/>
      <point x="1085" y="755" type="line"/>
      <point x="1101" y="848" type="line"/>
      <point x="831" y="848" type="line"/>
      <point x="880" y="1184" type="line"/>
      <point x="782" y="1184" type="line"/>
      <point x="733" y="848" type="line"/>
      <point x="496" y="848" type="line"/>
      <point x="545" y="1184" type="line"/>
      <point x="447" y="1184" type="line"/>
      <point x="398" y="848" type="line"/>
      <point x="175" y="848" type="line"/>
      <point x="161" y="755" type="line"/>
      <point x="385" y="755" type="line"/>
      <point x="340" y="446" type="line"/>
      <point x="114" y="446" type="line"/>
      <point x="100" y="353" type="line"/>
    </contour>
    <contour>
      <point x="483" y="755" type="line"/>
      <point x="719" y="755" type="line"/>
      <point x="675" y="446" type="line"/>
      <point x="438" y="446" type="line"/>
    </contour>
  </outline>
</glyph>
<glyph name="quotesingle" format="1">
  <advance width="600"/>
  <unicode hex="0027"/>
  <outline>
    <contour>
      <point x="324" y="1106"/>
      <point x="326" y="1105"/>
      <point x="326" y="1109" type="curve" smooth="yes"/>
      <point x="354" y="1538" type="line" smooth="yes"/>
      <point x="354" y="1541"/>
      <point x="353" y="1545"/>
      <point x="349" y="1545" type="curve" smooth="yes"/>
      <point x="245" y="1545" type="line" smooth="yes"/>
      <point x="241" y="1545"/>
      <point x="238" y="1545"/>
      <point x="238" y="1540" type="curve" smooth="yes"/>
      <point x="236" y="1113" type="line" smooth="yes"/>
      <point x="236" y="1110"/>
      <point x="237" y="1106"/>
      <point x="239" y="1106" type="curve" smooth="yes"/>
      <point x="319" y="1106" type="line" smooth="yes"/>
    </contour>
  </outline>
</glyph>
<glyph name="parenleft" format="1">
  <advance width="572"/>
  <unicode hex="0028"/>
  <outline>
    <contour>
      <point x="9" y="887"/>
      <point x="9" y="403"/>
      <point x="372" y="-75" type="curve" smooth="yes"/>
      <point x="377" y="-81"/>
      <point x="382" y="-84"/>
      <point x="390" y="-84" type="curve" smooth="yes"/>
      <point x="459" y="-84" type="line" smooth="yes"/>
      <point x="471" y="-84"/>
      <point x="475" y="-76"/>
      <point x="469" y="-66" type="curve" smooth="yes"/>
      <point x="165" y="422"/>
      <point x="163" y="899"/>
      <point x="468" y="1367" type="curve" smooth="yes"/>
      <point x="475" y="1377"/>
      <point x="470" y="1385"/>
      <point x="458" y="1385" type="curve" smooth="yes"/>
      <point x="390" y="1385" type="line" smooth="yes"/>
      <point x="382" y="1385"/>
      <point x="377" y="1382"/>
      <point x="372" y="1376" type="curve" smooth="yes"/>
    </contour>
  </outline>
</glyph>
<glyph name="parenright" format="1">
  <advance width="572"/>
  <unicode hex="0029"/>
  <outline>
    <contour>
      <point x="195" y="1382"/>
      <point x="190" y="1385"/>
      <point x="182" y="1385" type="curve" smooth="yes"/>
      <point x="114" y="1385" type="line" smooth="yes"/>
      <point x="102" y="1385"/>
      <point x="97" y="1377"/>
      <point x="104" y="1367" type="curve" smooth="yes"/>
      <point x="409" y="899"/>
      <point x="407" y="422"/>
      <point x="103" y="-66" type="curve" smooth="yes"/>
      <point x="97" y="-76"/>
      <point x="101" y="-84"/>
      <point x="113" y="-84" type="curve" smooth="yes"/>
      <point x="182" y="-84" type="line" smooth="yes"/>
      <point x="190" y="-84"/>
      <point x="195" y="-81"/>
      <point x="200" y="-75" type="curve" smooth="yes"/>
      <point x="563" y="403"/>
      <point x="563" y="887"/>
      <point x="200" y="1376" type="curve" smooth="yes"/>
    </contour>
  </outline>
</glyph>
<glyph name="asterisk" format="1">
  <advance width="878"/>
  <unicode hex="002A"/>
  <outline>
    <contour>
      <point x="467" y="365"/>
      <point x="490" y="388"/>
      <point x="489" y="416" type="curve" smooth="yes"/>
      <point x="482" y="581" type="line"/>
      <point x="593" y="459" type="line" smooth="yes"/>
      <point x="611" y="439"/>
      <point x="645" y="438"/>
      <point x="665" y="458" type="curve" smooth="yes"/>
      <point x="684" y="478"/>
      <point x="684" y="511"/>
      <point x="664" y="530" type="curve" smooth="yes"/>
      <point x="542" y="641" type="line"/>
      <point x="707" y="634" type="line" smooth="yes"/>
      <point x="734" y="632"/>
      <point x="759" y="656"/>
      <point x="758" y="684" type="curve" smooth="yes"/>
      <point x="758" y="712"/>
      <point x="735" y="735"/>
      <point x="707" y="734" type="curve" smooth="yes"/>
      <point x="542" y="727" type="line"/>
      <point x="664" y="838" type="line" smooth="yes"/>
      <point x="684" y="856"/>
      <point x="685" y="890"/>
      <point x="665" y="910" type="curve" smooth="yes"/>
      <point x="645" y="929"/>
      <point x="612" y="929"/>
      <point x="593" y="909" type="curve"/>
      <point x="485" y="790" type="line"/>
      <point x="492" y="952" type="line" smooth="yes"/>
      <point x="495" y="979"/>
      <point x="470" y="1004"/>
      <point x="442" y="1003" type="curve" smooth="yes"/>
      <point x="414" y="1003"/>
      <point x="391" y="980"/>
      <point x="392" y="952" type="curve"/>
      <point x="399" y="789" type="line"/>
      <point x="287" y="911" type="line" smooth="yes"/>
      <point x="269" y="931"/>
      <point x="235" y="932"/>
      <point x="216" y="912" type="curve" smooth="yes"/>
      <point x="196" y="892"/>
      <point x="196" y="859"/>
      <point x="216" y="840" type="curve"/>
      <point x="340" y="727" type="line"/>
      <point x="171" y="734" type="line" smooth="yes"/>
      <point x="144" y="736"/>
      <point x="119" y="712"/>
      <point x="120" y="684" type="curve" smooth="yes"/>
      <point x="120" y="656"/>
      <point x="143" y="633"/>
      <point x="171" y="634" type="curve"/>
      <point x="336" y="641" type="line"/>
      <point x="214" y="530" type="line" smooth="yes"/>
      <point x="193" y="513"/>
      <point x="193" y="478"/>
      <point x="213" y="458" type="curve" smooth="yes"/>
      <point x="233" y="439"/>
      <point x="266" y="439"/>
      <point x="285" y="459" type="curve" smooth="yes"/>
      <point x="396" y="581" type="line"/>
      <point x="389" y="416" type="line" smooth="yes"/>
      <point x="387" y="389"/>
      <point x="411" y="364"/>
      <point x="439" y="365" type="curve" smooth="yes"/>
    </contour>
    <contour>
      <point x="401" y="614"/>
      <point x="369" y="646"/>
      <point x="369" y="684" type="curve" smooth="yes"/>
      <point x="369" y="722"/>
      <point x="401" y="754"/>
      <point x="439" y="754" type="curve" smooth="yes"/>
      <point x="477" y="754"/>
      <point x="509" y="722"/>
      <point x="509" y="684" type="curve" smooth="yes"/>
      <point x="509" y="647"/>
      <point x="476" y="614"/>
      <point x="439" y="614" type="curve" smooth="yes"/>
    </contour>
  </outline>
</glyph>
<glyph name="plus" format="1">
  <advance width="856"/>
  <unicode hex="002B"/>
  <outline>
    <contour>
      <point x="487" y="174" type="line"/>
      <point x="482" y="454" type="line"/>
      <point x="776" y="454" type="line"/>
      <point x="776" y="565" type="line"/>
      <point x="484" y="565" type="line"/>
      <point x="483" y="829" type="line"/>
      <point x="368" y="828" type="line"/>
      <point x="373" y="565" type="line"/>
      <point x="80" y="565" type="line"/>
      <point x="80" y="454" type="line"/>
      <point x="373" y="454" type="line"/>
      <point x="378" y="172" type="line"/>
    </contour>
  </outline>
</glyph>
<glyph name="comma" format="1">
  <advance width="600"/>
  <unicode hex="002C"/>
  <outline>
    <contour>
      <point x="202" y="15" type="line" smooth="yes"/>
      <point x="202" y="6"/>
      <point x="208" y="0"/>
      <point x="217" y="0" type="curve" smooth="yes"/>
      <point x="300" y="0" type="line" smooth="yes"/>
      <point x="310" y="0"/>
      <point x="316" y="-6"/>
      <point x="315" y="-16" type="curve" smooth="yes"/>
      <point x="307" y="-69"/>
      <point x="277" y="-107"/>
      <point x="245" y="-138" type="curve" smooth="yes"/>
      <point x="238" y="-145"/>
      <point x="238" y="-152"/>
      <point x="243" y="-159" type="curve" smooth="yes"/>
      <point x="255" y="-175" type="line" smooth="yes"/>
      <point x="261" y="-182"/>
      <point x="268" y="-185"/>
      <point x="276" y="-179" type="curve" smooth="yes"/>
      <point x="364" y="-107"/>
      <point x="387" y="-53"/>
      <point x="388" y="171" type="curve" smooth="yes"/>
      <point x="388" y="181"/>
      <point x="382" y="187"/>
      <point x="373" y="187" type="curve" smooth="yes"/>
      <point x="217" y="187" type="line" smooth="yes"/>
      <point x="208" y="187"/>
      <point x="202" y="181"/>
      <point x="202" y="172" type="curve" smooth="yes"/>
    </contour>
  </outline>
</glyph>
<glyph name="hyphen" format="1">
  <advance width="600"/>
  <unicode hex="002D"/>
  <outline>
    <contour>
      <point x="36" y="165" type="line" smooth="yes"/>
      <point x="36" y="156"/>
      <point x="42" y="150"/>
      <point x="51" y="150" type="curve" smooth="yes"/>
      <point x="551" y="150" type="line" smooth="yes"/>
      <point x="560" y="150"/>
      <point x="566" y="156"/>
      <point x="566" y="165" type="curve" smooth="yes"/>
      <point x="566" y="243" type="line" smooth="yes"/>
      <point x="566" y="252"/>
      <point x="560" y="258"/>
      <point x="551" y="258" type="curve" smooth="yes"/>
      <point x="51" y="258" type="line" smooth="yes"/>
      <point x="42" y="258"/>
      <point x="36" y="252"/>
      <point x="36" y="243" type="curve" smooth="yes"/>
    </contour>
  </outline>
</glyph>
<glyph name="period" format="1">
  <advance width="491"/>
  <unicode hex="002E"/>
  <outline>
    <contour>
      <point x="382" y="69" type="line"/>
      <point x="416" y="121"/>
      <point x="428" y="130"/>
      <point x="371" y="169" type="curve" smooth="yes"/>
      <point x="314" y="208"/>
      <point x="219" y="260"/>
      <point x="219" y="260" type="curve"/>
      <point x="80" y="56" type="line"/>
      <point x="282" y="-70" type="line"/>
    </contour>
  </outline>
</glyph>
<glyph name="slash" format="1">
  <advance width="902"/>
  <unicode hex="002F"/>
  <outline>
    <contour>
      <point x="700" y="1520" type="line"/>
      <point x="100" y="-32" type="line"/>
      <point x="202" y="-32" type="line"/>
      <point x="802" y="1520" type="line"/>
    </contour>
  </outline>
</glyph>
<glyph name="semicolon" format="1">
  <advance width="600"/>
  <unicode hex="003B"/>
  <outline>
    <contour>
      <point x="218" y="255" type="line" smooth="yes"/>
      <point x="208" y="237"/>
      <point x="212" y="224"/>
      <point x="229" y="215" type="curve" smooth="yes"/>
      <point x="298" y="176"/>
      <point x="349" y="130"/>
      <point x="273" y="-4" type="curve" smooth="yes"/>
      <point x="209" y="-117" type="line" smooth="yes"/>
      <point x="199" y="-135"/>
      <point x="205" y="-149"/>
      <point x="223" y="-157" type="curve" smooth="yes"/>
      <point x="238" y="-164" type="line" smooth="yes"/>
      <point x="256" y="-172"/>
      <point x="269" y="-165"/>
      <point x="278" y="-149" type="curve" smooth="yes"/>
      <point x="330" y="-50" type="line"/>
      <point x="408" y="73"/>
      <point x="494" y="253"/>
      <point x="310" y="357" type="curve" smooth="yes"/>
      <point x="293" y="366"/>
      <point x="279" y="363"/>
      <point x="269" y="345" type="curve" smooth="yes"/>
    </contour>
    <contour>
      <point x="394" y="720" type="line"/>
      <point x="420" y="760"/>
      <point x="429" y="767"/>
      <point x="386" y="797" type="curve" smooth="yes"/>
      <point x="358" y="816"/>
      <point x="319" y="839"/>
      <point x="294" y="853" type="curve" smooth="yes"/>
      <point x="278" y="862"/>
      <point x="263" y="858"/>
      <point x="253" y="843" type="curve" smooth="yes"/>
      <point x="180" y="735" type="line" smooth="yes"/>
      <point x="169" y="718"/>
      <point x="172" y="705"/>
      <point x="189" y="694" type="curve" smooth="yes"/>
      <point x="293" y="629" type="line" smooth="yes"/>
      <point x="309" y="619"/>
      <point x="324" y="622"/>
      <point x="335" y="638" type="curve" smooth="yes"/>
    </contour>
  </outline>
</glyph>
<glyph name="less" format="1">
  <advance width="956"/>
  <unicode hex="003C"/>
  <outline>
    <contour>
      <point x="876" y="135" type="line"/>
      <point x="190" y="480" type="line"/>
      <point x="876" y="824" type="line"/>
      <point x="876" y="935" type="line"/>
      <point x="80" y="535" type="line"/>
      <point x="80" y="424" type="line"/>
      <point x="876" y="24" type="line"/>
    </contour>
  </outline>
</glyph>
<glyph name="equal" format="1">
  <advance width="600"/>
  <unicode hex="003D"/>
  <outline>
    <contour>
      <point x="-48" y="424" type="line"/>
      <point x="648" y="424" type="line"/>
      <point x="648" y="535" type="line"/>
      <point x="-48" y="535" type="line"/>
    </contour>
    <contour>
      <point x="-48" y="124" type="line"/>
      <point x="648" y="124" type="line"/>
      <point x="648" y="235" type="line"/>
      <point x="-48" y="235" type="line"/>
    </contour>
  </outline>
</glyph>
<glyph name="greater" format="1">
  <advance width="956"/>
  <unicode hex="003E"/>
  <outline>
    <contour>
      <point x="876" y="445" type="line"/>
      <point x="876" y="556" type="line"/>
      <point x="80" y="956" type="line"/>
      <point x="80" y="845" type="line"/>
      <point x="766" y="501" type="line"/>
      <point x="80" y="156" type="line"/>
      <point x="80" y="45" type="line"/>
    </contour>
  </outline>
</glyph>
<glyph name="at" format="1">
  <advance width="600"/>
  <unicode hex="0040"/>
  <outline>
    <contour>
      <point x="-9" y="277"/>
      <point x="408" y="293"/>
      <point x="408" y="647" type="curve" smooth="yes"/>
      <point x="408" y="742"/>
      <point x="342" y="801"/>
      <point x="273" y="801" type="curve" smooth="yes"/>
      <point x="195" y="801"/>
      <point x="124" y="718"/>
      <point x="94" y="624" type="curve" smooth="yes"/>
    </contour>
    <contour>
      <point x="570" y="113" type="line"/>
      <point x="498" y="80"/>
      <point x="418" y="66"/>
      <point x="327" y="66" type="curve" smooth="yes"/>
      <point x="0" y="66"/>
      <point x="-217" y="238"/>
      <point x="-217" y="550" type="curve" smooth="yes"/>
      <point x="-217" y="726"/>
      <point x="-138" y="919"/>
      <point x="23" y="1022" type="curve" smooth="yes"/>
      <point x="104" y="1074"/>
      <point x="200" y="1100"/>
      <point x="315" y="1100" type="curve" smooth="yes"/>
      <point x="404" y="1100"/>
      <point x="484" y="1082"/>
      <point x="554" y="1046" type="curve" smooth="yes"/>
      <point x="697" y="973"/>
      <point x="774" y="827"/>
      <point x="774" y="681" type="curve" smooth="yes"/>
      <point x="774" y="472"/>
      <point x="606" y="295"/>
      <point x="451" y="295" type="curve" smooth="yes"/>
      <point x="394" y="295"/>
      <point x="361" y="350"/>
      <point x="358" y="385" type="curve"/>
      <point x="296" y="314"/>
      <point x="224" y="288"/>
      <point x="160" y="298" type="curve" smooth="yes"/>
      <point x="-66" y="329"/>
      <point x="-61" y="706"/>
      <point x="140" y="837" type="curve" smooth="yes"/>
      <point x="184" y="865"/>
      <point x="226" y="880"/>
      <point x="266" y="880" type="curve" smooth="yes"/>
      <point x="329" y="880"/>
      <point x="388" y="848"/>
      <point x="429" y="782" type="curve"/>
      <point x="450" y="879" type="line"/>
      <point x="543" y="864" type="line"/>
      <point x="466" y="504" type="line" smooth="yes"/>
      <point x="455" y="454"/>
      <point x="450" y="426"/>
      <point x="450" y="420" type="curve" smooth="yes"/>
      <point x="450" y="402"/>
      <point x="466" y="385"/>
      <point x="487" y="385" type="curve" smooth="yes"/>
      <point x="507" y="385"/>
      <point x="531" y="396"/>
      <point x="562" y="417" type="curve" smooth="yes"/>
      <point x="643" y="474"/>
      <point x="695" y="580"/>
      <point x="695" y="682" type="curve" smooth="yes"/>
      <point x="695" y="802"/>
      <point x="633" y="913"/>
      <point x="511" y="974" type="curve" smooth="yes"/>
      <point x="451" y="1006"/>
      <point x="384" y="1021"/>
      <point x="310" y="1021" type="curve" smooth="yes"/>
      <point x="46" y="1021"/>
      <point x="-138" y="821"/>
      <point x="-138" y="559" type="curve" smooth="yes"/>
      <point x="-138" y="286"/>
      <point x="47" y="146"/>
      <point x="326" y="146" type="curve" smooth="yes"/>
      <point x="413" y="146"/>
      <point x="484" y="161"/>
      <point x="543" y="186" type="curve"/>
    </contour>
  </outline>
</glyph>
<glyph name="bracketleft" format="1">
  <advance width="600"/>
  <unicode hex="005B"/>
  <outline>
    <contour>
      <point x="432" y="-300"/>
      <point x="439" y="-293"/>
      <point x="439" y="-285" type="curve" smooth="yes"/>
      <point x="439" y="-236" type="line" smooth="yes"/>
      <point x="439" y="-228"/>
      <point x="432" y="-221"/>
      <point x="424" y="-221" type="curve" smooth="yes"/>
      <point x="244" y="-221" type="line"/>
      <point x="244" y="1434" type="line"/>
      <point x="424" y="1434" type="line" smooth="yes"/>
      <point x="432" y="1434"/>
      <point x="439" y="1441"/>
      <point x="439" y="1449" type="curve" smooth="yes"/>
      <point x="439" y="1498" type="line" smooth="yes"/>
      <point x="439" y="1506"/>
      <point x="432" y="1513"/>
      <point x="424" y="1513" type="curve" smooth="yes"/>
      <point x="150" y="1513" type="line" smooth="yes"/>
      <point x="142" y="1513"/>
      <point x="135" y="1506"/>
      <point x="135" y="1498" type="curve" smooth="yes"/>
      <point x="135" y="-285" type="line" smooth="yes"/>
      <point x="135" y="-293"/>
      <point x="142" y="-300"/>
      <point x="150" y="-300" type="curve" smooth="yes"/>
      <point x="424" y="-300" type="line" smooth="yes"/>
    </contour>
  </outline>
</glyph>
<glyph name="backslash" format="1">
  <advance width="902"/>
  <unicode hex="005C"/>
  <outline>
    <contour>
      <point x="700" y="-32" type="line"/>
      <point x="802" y="-32" type="line"/>
      <point x="202" y="1520" type="line"/>
      <point x="100" y="1520" type="line"/>
    </contour>
  </outline>
</glyph>
<glyph name="bracketright" format="1">
  <advance width="504"/>
  <unicode hex="005D"/>
  <outline>
    <contour>
      <point x="389" y="-300" type="line" smooth="yes"/>
      <point x="397" y="-300"/>
      <point x="404" y="-293"/>
      <point x="404" y="-285" type="curve" smooth="yes"/>
      <point x="404" y="1498" type="line" smooth="yes"/>
      <point x="404" y="1506"/>
      <point x="397" y="1513"/>
      <point x="389" y="1513" type="curve" smooth="yes"/>
      <point x="115" y="1513" type="line" smooth="yes"/>
      <point x="107" y="1513"/>
      <point x="100" y="1506"/>
      <point x="100" y="1498" type="curve" smooth="yes"/>
      <point x="100" y="1449" type="line" smooth="yes"/>
      <point x="100" y="1441"/>
      <point x="107" y="1434"/>
      <point x="115" y="1434" type="curve" smooth="yes"/>
      <point x="295" y="1434" type="line"/>
      <point x="295" y="-221" type="line"/>
      <point x="115" y="-221" type="line" smooth="yes"/>
      <point x="107" y="-221"/>
      <point x="100" y="-228"/>
      <point x="100" y="-236" type="curve" smooth="yes"/>
      <point x="100" y="-285" type="line" smooth="yes"/>
      <point x="100" y="-293"/>
      <point x="107" y="-300"/>
      <point x="115" y="-300" type="curve" smooth="yes"/>
    </contour>
  </outline>
</glyph>
<glyph name="asciicircum" format="1">
  <advance width="1206"/>
  <unicode hex="005E"/>
  <outline>
    <contour>
      <point x="1086" y="549" type="line"/>
      <point x="678" y="1519" type="line"/>
      <point x="528" y="1519" type="line"/>
      <point x="120" y="549" type="line"/>
      <point x="248" y="549" type="line"/>
      <point x="603" y="1384" type="line"/>
      <point x="959" y="549" type="line"/>
    </contour>
  </outline>
</glyph>
<glyph name="underscore" format="1">
  <advance width="896"/>
  <unicode hex="005F"/>
  <outline>
    <contour>
      <point x="896" y="-249" type="line"/>
      <point x="896" y="-150" type="line"/>
      <point x="0" y="-150" type="line"/>
      <point x="0" y="-249" type="line"/>
    </contour>
  </outline>
</glyph>
<glyph name="braceleft" format="1">
  <advance width="631"/>
  <unicode hex="007B"/>
  <outline>
    <contour>
      <point x="531" y="-236" type="line" smooth="yes"/>
      <point x="531" y="-228"/>
      <point x="524" y="-221"/>
      <point x="516" y="-221" type="curve" smooth="yes"/>
      <point x="367" y="-221" type="line" smooth="yes"/>
      <point x="350" y="-221"/>
      <point x="336" y="-207"/>
      <point x="336" y="-190" type="curve" smooth="yes"/>
      <point x="336" y="369" type="line" smooth="yes"/>
      <point x="336" y="484"/>
      <point x="269" y="551"/>
      <point x="217" y="608" type="curve"/>
      <point x="269" y="665"/>
      <point x="336" y="732"/>
      <point x="336" y="847" type="curve" smooth="yes"/>
      <point x="336" y="1406" type="line" smooth="yes"/>
      <point x="336" y="1423"/>
      <point x="350" y="1437"/>
      <point x="367" y="1437" type="curve" smooth="yes"/>
      <point x="516" y="1437" type="line" smooth="yes"/>
      <point x="524" y="1437"/>
      <point x="531" y="1444"/>
      <point x="531" y="1452" type="curve" smooth="yes"/>
      <point x="531" y="1501" type="line" smooth="yes"/>
      <point x="531" y="1509"/>
      <point x="524" y="1516"/>
      <point x="516" y="1516" type="curve" smooth="yes"/>
      <point x="347" y="1516" type="line" smooth="yes"/>
      <point x="269" y="1516"/>
      <point x="227" y="1474"/>
      <point x="227" y="1396" type="curve" smooth="yes"/>
      <point x="227" y="875" type="line" smooth="yes"/>
      <point x="227" y="720"/>
      <point x="196" y="705"/>
      <point x="103" y="616" type="curve" smooth="yes"/>
      <point x="98" y="612"/>
      <point x="99" y="605"/>
      <point x="103" y="600" type="curve" smooth="yes"/>
      <point x="196" y="500"/>
      <point x="227" y="487"/>
      <point x="227" y="322" type="curve" smooth="yes"/>
      <point x="227" y="-180" type="line" smooth="yes"/>
      <point x="227" y="-258"/>
      <point x="269" y="-300"/>
      <point x="347" y="-300" type="curve" smooth="yes"/>
      <point x="516" y="-300" type="line" smooth="yes"/>
      <point x="524" y="-300"/>
      <point x="531" y="-293"/>
      <point x="531" y="-285" type="curve" smooth="yes"/>
    </contour>
  </outline>
</glyph>
<glyph name="bar" format="1">
  <advance width="349"/>
  <unicode hex="007C"/>
  <outline>
    <contour>
      <point x="229" y="-225" type="line"/>
      <point x="229" y="1588" type="line"/>
      <point x="120" y="1588" type="line"/>
      <point x="120" y="-225" type="line"/>
    </contour>
  </outline>
</glyph>
<glyph name="braceright" format="1">
  <advance width="631"/>
  <unicode hex="007D"/>
  <outline>
    <contour>
      <point x="100" y="-467"/>
      <point x="107" y="-474"/>
      <point x="115" y="-474" type="curve" smooth="yes"/>
      <point x="284" y="-474" type="line" smooth="yes"/>
      <point x="362" y="-474"/>
      <point x="404" y="-432"/>
      <point x="404" y="-354" type="curve" smooth="yes"/>
      <point x="404" y="148" type="line" smooth="yes"/>
      <point x="404" y="313"/>
      <point x="435" y="326"/>
      <point x="528" y="426" type="curve" smooth="yes"/>
      <point x="532" y="431"/>
      <point x="533" y="438"/>
      <point x="528" y="442" type="curve" smooth="yes"/>
      <point x="435" y="531"/>
      <point x="404" y="546"/>
      <point x="404" y="701" type="curve" smooth="yes"/>
      <point x="404" y="1222" type="line" smooth="yes"/>
      <point x="404" y="1300"/>
      <point x="362" y="1342"/>
      <point x="284" y="1342" type="curve" smooth="yes"/>
      <point x="115" y="1342" type="line" smooth="yes"/>
      <point x="107" y="1342"/>
      <point x="100" y="1335"/>
      <point x="100" y="1327" type="curve" smooth="yes"/>
      <point x="100" y="1278" type="line" smooth="yes"/>
      <point x="100" y="1270"/>
      <point x="107" y="1263"/>
      <point x="115" y="1263" type="curve" smooth="yes"/>
      <point x="264" y="1263" type="line" smooth="yes"/>
      <point x="281" y="1263"/>
      <point x="295" y="1249"/>
      <point x="295" y="1232" type="curve" smooth="yes"/>
      <point x="295" y="673" type="line" smooth="yes"/>
      <point x="295" y="558"/>
      <point x="362" y="491"/>
      <point x="414" y="434" type="curve"/>
      <point x="362" y="377"/>
      <point x="295" y="310"/>
      <point x="295" y="195" type="curve" smooth="yes"/>
      <point x="295" y="-364" type="line" smooth="yes"/>
      <point x="295" y="-381"/>
      <point x="281" y="-395"/>
      <point x="264" y="-395" type="curve" smooth="yes"/>
      <point x="115" y="-395" type="line" smooth="yes"/>
      <point x="107" y="-395"/>
      <point x="100" y="-402"/>
      <point x="100" y="-410" type="curve" smooth="yes"/>
      <point x="100" y="-459" type="line" smooth="yes"/>
    </contour>
  </outline>
</glyph>
<glyph name="asciitilde" format="1">
  <advance width="880"/>
  <unicode hex="007E"/>
  <outline>
    <contour>
      <point x="772" y="472" type="line"/>
      <point x="671" y="416"/>
      <point x="575" y="415"/>
      <point x="435" y="492" type="curve"/>
      <point x="330" y="551"/>
      <point x="170" y="535"/>
      <point x="60" y="445" type="curve"/>
      <point x="103" y="372" type="line"/>
      <point x="209" y="441"/>
      <point x="327" y="469"/>
      <point x="447" y="397" type="curve" smooth="yes"/>
      <point x="580" y="318"/>
      <point x="708" y="318"/>
      <point x="820" y="400" type="curve"/>
    </contour>
  </outline>
</glyph>
<glyph name="guillemetleft" format="1">
  <advance width="708"/>
  <unicode hex="00AB"/>
  <outline>
    <contour>
      <point x="404" y="91" type="line"/>
      <point x="438" y="46"/>
      <point x="494" y="5"/>
      <point x="577" y="-30" type="curve"/>
      <point x="648" y="110" type="line"/>
      <point x="363" y="215"/>
      <point x="455" y="346"/>
      <point x="610" y="640" type="curve"/>
      <point x="539" y="670" type="line"/>
      <point x="432" y="483"/>
      <point x="297" y="280"/>
      <point x="384" y="121" type="curve"/>
      <point x="135" y="224"/>
      <point x="226" y="356"/>
      <point x="375" y="640" type="curve"/>
      <point x="304" y="670" type="line"/>
      <point x="158" y="416"/>
      <point x="-39" y="131"/>
      <point x="342" y="-30" type="curve"/>
    </contour>
  </outline>
</glyph>
<glyph name="degree" format="1">
  <advance width="600"/>
  <unicode hex="00B0"/>
  <outline>
    <contour>
      <point x="465" y="882"/>
      <point x="598" y="1016"/>
      <point x="598" y="1181" type="curve" smooth="yes"/>
      <point x="598" y="1345"/>
      <point x="465" y="1479"/>
      <point x="300" y="1479" type="curve" smooth="yes"/>
      <point x="135" y="1479"/>
      <point x="2" y="1345"/>
      <point x="2" y="1181" type="curve" smooth="yes"/>
      <point x="2" y="1016"/>
      <point x="135" y="882"/>
      <point x="300" y="882" type="curve" smooth="yes"/>
    </contour>
    <contour>
      <point x="427" y="952"/>
      <point x="528" y="1055"/>
      <point x="528" y="1181" type="curve" smooth="yes"/>
      <point x="528" y="1306"/>
      <point x="427" y="1409"/>
      <point x="300" y="1409" type="curve" smooth="yes"/>
      <point x="174" y="1409"/>
      <point x="72" y="1306"/>
      <point x="72" y="1181" type="curve" smooth="yes"/>
      <point x="72" y="1055"/>
      <point x="174" y="952"/>
      <point x="300" y="952" type="curve" smooth="yes"/>
    </contour>
  </outline>
</glyph>
<glyph name="guillemetright" format="1">
  <advance width="708"/>
  <unicode hex="00BB"/>
  <outline>
    <contour>
      <point x="403" y="121" type="line"/>
      <point x="437" y="76"/>
      <point x="493" y="35"/>
      <point x="576" y="0" type="curve"/>
      <point x="647" y="140" type="line"/>
      <point x="362" y="245"/>
      <point x="454" y="376"/>
      <point x="609" y="670" type="curve"/>
      <point x="538" y="700" type="line"/>
      <point x="431" y="513"/>
      <point x="296" y="310"/>
      <point x="383" y="151" type="curve"/>
      <point x="134" y="254"/>
      <point x="225" y="386"/>
      <point x="374" y="670" type="curve"/>
      <point x="303" y="700" type="line"/>
      <point x="157" y="446"/>
      <point x="-40" y="161"/>
      <point x="341" y="0" type="curve"/>
    </contour>
  </outline>
</glyph>
<glyph name="multiply" format="1">
  <advance width="1153"/>
  <unicode hex="00D7"/>
  <outline>
    <contour>
      <point x="232" y="-26" type="line"/>
      <point x="578" y="362" type="line"/>
      <point x="923" y="-26" type="line"/>
      <point x="1013" y="43" type="line"/>
      <point x="652" y="446" type="line"/>
      <point x="987" y="822" type="line"/>
      <point x="903" y="894" type="line"/>
      <point x="577" y="530" type="line"/>
      <point x="252" y="894" type="line"/>
      <point x="168" y="822" type="line"/>
      <point x="503" y="446" type="line"/>
      <point x="140" y="41" type="line"/>
    </contour>
  </outline>
</glyph>
<glyph name="divide" format="1">
  <advance width="856"/>
  <unicode hex="00F7"/>
  <outline>
    <contour>
      <point x="776" y="356" type="line"/>
      <point x="776" y="467" type="line"/>
      <point x="80" y="467" type="line"/>
      <point x="80" y="356" type="line"/>
    </contour>
    <contour>
      <point x="472" y="59"/>
      <point x="501" y="88"/>
      <point x="501" y="124" type="curve" smooth="yes"/>
      <point x="501" y="160"/>
      <point x="472" y="189"/>
      <point x="436" y="189" type="curve" smooth="yes"/>
      <point x="400" y="189"/>
      <point x="371" y="160"/>
      <point x="371" y="124" type="curve" smooth="yes"/>
      <point x="371" y="88"/>
      <point x="400" y="59"/>
      <point x="436" y="59" type="curve" smooth="yes"/>
    </contour>
    <contour>
      <point x="472" y="679"/>
      <point x="501" y="708"/>
      <point x="501" y="744" type="curve" smooth="yes"/>
      <point x="501" y="780"/>
      <point x="472" y="809"/>
      <point x="436" y="809" type="curve" smooth="yes"/>
      <point x="400" y="809"/>
      <point x="371" y="780"/>
      <point x="371" y="744" type="curve" smooth="yes"/>
      <point x="371" y="708"/>
      <point x="400" y="679"/>
      <point x="436" y="679" type="curve" smooth="yes"/>
    </contour>
  </outline>
</glyph>
<glyph name="caron" format="1">
  <advance width="576"/>
  <unicode hex="02C7"/>
  <outline>
    <contour>
      <point x="355" y="924" type="line"/>
      <point x="496" y="1298" type="line"/>
      <point x="442" y="1344" type="line"/>
      <point x="326" y="1038" type="line"/>
      <point x="285" y="1134"/>
      <point x="257" y="1196"/>
      <point x="234" y="1236" type="curve" smooth="yes"/>
      <point x="198" y="1300"/>
      <point x="155" y="1325"/>
      <point x="90" y="1268" type="curve"/>
      <point x="177" y="1160"/>
      <point x="227" y="1025"/>
      <point x="275" y="900" type="curve"/>
    </contour>
  </outline>
</glyph>
<glyph name="lowringmod" format="1">
  <advance width="600"/>
  <unicode hex="02F3"/>
  <outline>
    <contour>
      <point x="442" y="-418"/>
      <point x="544" y="-316"/>
      <point x="544" y="-189" type="curve" smooth="yes"/>
      <point x="544" y="-64"/>
      <point x="442" y="39"/>
      <point x="315" y="39" type="curve" smooth="yes"/>
      <point x="189" y="39"/>
      <point x="87" y="-64"/>
      <point x="87" y="-189" type="curve" smooth="yes"/>
      <point x="87" y="-316"/>
      <point x="189" y="-418"/>
      <point x="315" y="-418" type="curve" smooth="yes"/>
    </contour>
    <contour>
      <point x="227" y="-349"/>
      <point x="156" y="-277"/>
      <point x="156" y="-188" type="curve" smooth="yes"/>
      <point x="156" y="-101"/>
      <point x="227" y="-29"/>
      <point x="315" y="-29" type="curve" smooth="yes"/>
      <point x="404" y="-29"/>
      <point x="475" y="-101"/>
      <point x="475" y="-188" type="curve" smooth="yes"/>
      <point x="475" y="-277"/>
      <point x="404" y="-349"/>
      <point x="315" y="-349" type="curve" smooth="yes"/>
    </contour>
  </outline>
</glyph>
<glyph name="perthousand-ar" format="1">
  <advance width="1264"/>
  <unicode hex="0609"/>
  <outline>
    <contour>
      <point x="735" y="1037" type="line"/>
      <point x="732" y="1097"/>
      <point x="715" y="1142"/>
      <point x="685" y="1178" type="curve"/>
      <point x="113" y="100" type="line"/>
      <point x="130" y="59"/>
      <point x="155" y="25"/>
      <point x="186" y="0" type="curve"/>
    </contour>
    <contour>
      <point x="760" y="188" type="line"/>
      <point x="788" y="230"/>
      <point x="797" y="237"/>
      <point x="752" y="268" type="curve" smooth="yes"/>
      <point x="706" y="300"/>
      <point x="630" y="342"/>
      <point x="630" y="342" type="curve"/>
      <point x="518" y="178" type="line"/>
      <point x="679" y="76" type="line"/>
    </contour>
    <contour>
      <point x="322" y="883" type="line"/>
      <point x="350" y="925"/>
      <point x="359" y="932"/>
      <point x="314" y="963" type="curve" smooth="yes"/>
      <point x="268" y="995"/>
      <point x="192" y="1037"/>
      <point x="192" y="1037" type="curve"/>
      <point x="80" y="873" type="line"/>
      <point x="241" y="771" type="line"/>
    </contour>
    <contour>
      <point x="1160" y="188" type="line"/>
      <point x="1188" y="230"/>
      <point x="1197" y="237"/>
      <point x="1152" y="268" type="curve" smooth="yes"/>
      <point x="1106" y="300"/>
      <point x="1030" y="342"/>
      <point x="1030" y="342" type="curve"/>
      <point x="918" y="178" type="line"/>
      <point x="1079" y="76" type="line"/>
    </contour>
  </outline>
</glyph>
<glyph name="pertenthousand-ar" format="1">
  <advance width="1664"/>
  <unicode hex="060A"/>
  <outline>
    <contour>
      <point x="1561" y="188" type="line"/>
      <point x="1589" y="230"/>
      <point x="1598" y="237"/>
      <point x="1553" y="268" type="curve" smooth="yes"/>
      <point x="1507" y="300"/>
      <point x="1431" y="342"/>
      <point x="1431" y="342" type="curve"/>
      <point x="1319" y="178" type="line"/>
      <point x="1480" y="76" type="line"/>
    </contour>
    <component base="perthousand-ar"/>
  </outline>
</glyph>
<glyph name="comma-ar" format="1">
  <advance width="368"/>
  <unicode hex="060C"/>
  <outline>
    <contour>
      <point x="298" y="151" type="line"/>
      <point x="194" y="183"/>
      <point x="141" y="221"/>
      <point x="227" y="384" type="curve" smooth="yes"/>
      <point x="296" y="515" type="line"/>
      <point x="225" y="545" type="line"/>
      <point x="160" y="420" type="line"/>
      <point x="79" y="291"/>
      <point x="-12" y="72"/>
      <point x="206" y="0" type="curve"/>
    </contour>
  </outline>
</glyph>
<glyph name="tahabove-ar" format="1">
  <advance width="0"/>
  <unicode hex="0615"/>
  <outline>
    <contour>
      <point x="140" y="1523"/>
      <point x="286" y="1525"/>
      <point x="357" y="1593" type="curve" smooth="yes"/>
      <point x="410" y="1645"/>
      <point x="347" y="1744"/>
      <point x="272" y="1744" type="curve" smooth="yes"/>
      <point x="225" y="1745"/>
      <point x="173" y="1708"/>
      <point x="124" y="1654" type="curve" smooth="yes"/>
      <point x="132" y="1679"/>
      <point x="133" y="1706"/>
      <point x="132" y="1744" type="curve" smooth="yes"/>
      <point x="128" y="1886" type="line"/>
      <point x="85" y="1857" type="line"/>
      <point x="92" y="1744" type="line" smooth="yes"/>
      <point x="98" y="1653"/>
      <point x="97" y="1622"/>
      <point x="57" y="1581" type="curve"/>
      <point x="1" y="1586" type="line"/>
      <point x="15" y="1533"/>
      <point x="15" y="1533"/>
      <point x="54" y="1530" type="curve" smooth="yes"/>
    </contour>
    <contour>
      <point x="177" y="1672"/>
      <point x="207" y="1695"/>
      <point x="250" y="1695" type="curve" smooth="yes"/>
      <point x="311" y="1695"/>
      <point x="342" y="1641"/>
      <point x="346" y="1622" type="curve"/>
      <point x="272" y="1584"/>
      <point x="177" y="1575"/>
      <point x="88" y="1579" type="curve"/>
    </contour>
    <contour>
      <point x="188" y="2014" type="move" name="top"/>
    </contour>
    <contour>
      <point x="188" y="1523" type="move" name="_top"/>
    </contour>
  </outline>
</glyph>
<glyph name="alefLamYehabove-ar" format="1">
  <advance width="0"/>
  <unicode hex="0616"/>
  <outline>
    <contour>
      <point x="427" y="925"/>
      <point x="545" y="931"/>
      <point x="712" y="941" type="curve" smooth="yes"/>
      <point x="728" y="942"/>
      <point x="737" y="946"/>
      <point x="739" y="955" type="curve" smooth="yes"/>
      <point x="747" y="983" type="line" smooth="yes"/>
      <point x="750" y="993"/>
      <point x="744" y="1000"/>
      <point x="733" y="1000" type="curve" smooth="yes"/>
      <point x="614" y="990"/>
      <point x="480" y="982"/>
      <point x="348" y="979" type="curve" smooth="yes"/>
      <point x="239" y="977"/>
      <point x="124" y="972"/>
      <point x="33" y="997" type="curve"/>
      <point x="61" y="1108"/>
      <point x="195" y="1137"/>
      <point x="300" y="1163" type="curve" smooth="yes"/>
      <point x="307" y="1164"/>
      <point x="312" y="1167"/>
      <point x="316" y="1173" type="curve" smooth="yes"/>
      <point x="335" y="1202"/>
      <point x="359" y="1253"/>
      <point x="354" y="1332" type="curve" smooth="yes"/>
      <point x="337" y="1673" type="line"/>
      <point x="392" y="1606"/>
      <point x="429" y="1571"/>
      <point x="420" y="1456" type="curve" smooth="yes"/>
      <point x="389" y="1068" type="line" smooth="yes"/>
      <point x="388" y="1059"/>
      <point x="393" y="1050"/>
      <point x="402" y="1052" type="curve" smooth="yes"/>
      <point x="418" y="1056" type="line" smooth="yes"/>
      <point x="427" y="1058"/>
      <point x="430" y="1061"/>
      <point x="431" y="1070" type="curve" smooth="yes"/>
      <point x="465" y="1454" type="line" smooth="yes"/>
      <point x="478" y="1596"/>
      <point x="443" y="1638"/>
      <point x="383" y="1718" type="curve" smooth="yes"/>
      <point x="377" y="1726"/>
      <point x="369" y="1727"/>
      <point x="362" y="1721" type="curve" smooth="yes"/>
      <point x="294" y="1670" type="line" smooth="yes"/>
      <point x="288" y="1665"/>
      <point x="285" y="1660"/>
      <point x="286" y="1651" type="curve" smooth="yes"/>
      <point x="315" y="1222" type="line"/>
      <point x="216" y="1197"/>
      <point x="115" y="1175"/>
      <point x="52" y="1102" type="curve" smooth="yes"/>
      <point x="32" y="1079"/>
      <point x="3" y="1033"/>
      <point x="1" y="994" type="curve" smooth="yes"/>
      <point x="-2" y="943"/>
      <point x="34" y="928"/>
      <point x="85" y="922" type="curve" smooth="yes"/>
      <point x="157" y="913"/>
      <point x="260" y="918"/>
      <point x="340" y="921" type="curve" smooth="yes"/>
    </contour>
    <contour>
      <point x="380" y="1882" type="move" name="top"/>
    </contour>
    <contour>
      <point x="380" y="916" type="move" name="_top"/>
    </contour>
  </outline>
</glyph>
<glyph name="question-ar" format="1">
  <advance width="627"/>
  <unicode hex="061F"/>
  <outline>
    <contour>
      <point x="419" y="383" type="line"/>
      <point x="427" y="530"/>
      <point x="423" y="582"/>
      <point x="320" y="689" type="curve"/>
      <point x="146" y="842" type="line"/>
      <point x="231" y="991"/>
      <point x="411" y="962"/>
      <point x="520" y="898" type="curve"/>
      <point x="503" y="986"/>
      <point x="453" y="1092"/>
      <point x="334" y="1092" type="curve" smooth="yes"/>
      <point x="196" y="1092"/>
      <point x="86" y="986"/>
      <point x="80" y="828" type="curve" smooth="yes"/>
      <point x="75" y="713"/>
      <point x="148" y="681"/>
      <point x="246" y="588" type="curve" smooth="yes"/>
      <point x="306" y="531"/>
      <point x="328" y="506"/>
      <point x="332" y="427" type="curve"/>
      <point x="331" y="352" type="line"/>
    </contour>
    <component base="period" xOffset="177" yOffset="-23" xScale="0.803" yScale="0.803"/>
  </outline>
</glyph>
<glyph name="hamza-ar" format="1">
  <advance width="797"/>
  <unicode hex="0621"/>
  <outline>
    <contour>
      <point x="339" y="70"/>
      <point x="509" y="170"/>
      <point x="705" y="274" type="curve" smooth="yes"/>
      <point x="713" y="278"/>
      <point x="717" y="284"/>
      <point x="716" y="292" type="curve" smooth="yes"/>
      <point x="709" y="405" type="line" smooth="yes"/>
      <point x="708" y="416"/>
      <point x="701" y="421"/>
      <point x="691" y="415" type="curve" smooth="yes"/>
      <point x="390" y="236" type="line" smooth="yes"/>
      <point x="383" y="232"/>
      <point x="375" y="232"/>
      <point x="369" y="238" type="curve" smooth="yes"/>
      <point x="196" y="397" type="line" smooth="yes"/>
      <point x="189" y="404"/>
      <point x="188" y="411"/>
      <point x="194" y="418" type="curve" smooth="yes"/>
      <point x="282" y="521"/>
      <point x="391" y="538"/>
      <point x="517" y="534" type="curve" smooth="yes"/>
      <point x="527" y="533"/>
      <point x="532" y="539"/>
      <point x="532" y="548" type="curve" smooth="yes"/>
      <point x="532" y="625" type="line" smooth="yes"/>
      <point x="532" y="633"/>
      <point x="528" y="639"/>
      <point x="519" y="642" type="curve" smooth="yes"/>
      <point x="326" y="697"/>
      <point x="110" y="580"/>
      <point x="110" y="389" type="curve" smooth="yes"/>
      <point x="110" y="305"/>
      <point x="199" y="216"/>
      <point x="261" y="170" type="curve" smooth="yes"/>
      <point x="270" y="163"/>
      <point x="269" y="155"/>
      <point x="260" y="149" type="curve" smooth="yes"/>
      <point x="155" y="85" type="line" smooth="yes"/>
      <point x="148" y="81"/>
      <point x="145" y="76"/>
      <point x="145" y="67" type="curve" smooth="yes"/>
      <point x="144" y="-23" type="line" smooth="yes"/>
      <point x="144" y="-35"/>
      <point x="152" y="-40"/>
      <point x="162" y="-34" type="curve" smooth="yes"/>
    </contour>
    <contour>
      <point x="379" y="844" type="move" name="top"/>
    </contour>
    <contour>
      <point x="396" y="-28" type="move" name="bottom"/>
    </contour>
  </outline>
</glyph>
<glyph name="alefMadda-ar" format="1">
  <advance width="829"/>
  <unicode hex="0622"/>
  <outline>
    <contour>
      <point x="370" y="-36" type="line"/>
      <point x="317" y="1156" type="line"/>
      <point x="468" y="1256" type="line"/>
      <point x="475" y="-7" type="line"/>
    </contour>
    <contour>
      <point x="727" y="1410" type="line"/>
      <point x="530" y="1340"/>
      <point x="348" y="1353"/>
      <point x="215" y="1385" type="curve"/>
      <point x="172" y="1293" type="line"/>
      <point x="100" y="1367" type="line"/>
      <point x="176" y="1543"/>
      <point x="236" y="1536"/>
      <point x="278" y="1528" type="curve" smooth="yes"/>
      <point x="392" y="1505"/>
      <point x="539" y="1495"/>
      <point x="729" y="1538" type="curve"/>
    </contour>
  </outline>
</glyph>
<glyph name="alef-ar" format="1">
  <advance width="184"/>
  <unicode hex="0627"/>
  <outline>
    <contour>
      <point x="90" y="-1" type="line"/>
      <point x="68" y="471" type="line"/>
      <point x="38" y="543" type="line"/>
      <point x="136" y="625" type="line"/>
      <point x="146" y="15" type="line"/>
    </contour>
  </outline>
</glyph>
<glyph name="theh-ar" format="1">
  <advance width="1586"/>
  <unicode hex="062B"/>
  <outline>
    <component base="dotlessbeh-ar"/>
    <component base="threedotsupabove-ar" xOffset="500" yOffset="174"/>
    <contour>
      <point x="773" y="-197" type="move" name="bottom"/>
    </contour>
  </outline>
</glyph>
<glyph name="hah-ar" format="1">
  <advance width="1244"/>
  <unicode hex="062D"/>
  <outline>
    <contour>
      <point x="146" y="509" type="line"/>
      <point x="100" y="655" type="line"/>
      <point x="187" y="740"/>
      <point x="253" y="808"/>
      <point x="320" y="807" type="curve" smooth="yes"/>
      <point x="500" y="804"/>
      <point x="770" y="623"/>
      <point x="1086" y="642" type="curve"/>
      <point x="1033" y="462" type="line"/>
      <point x="674" y="450"/>
      <point x="254" y="193"/>
      <point x="199" y="-175" type="curve"/>
      <point x="264" y="-555"/>
      <point x="829" y="-465"/>
      <point x="1144" y="-419" type="curve"/>
      <point x="1104" y="-584" type="line"/>
      <point x="705" y="-666"/>
      <point x="98" y="-768"/>
      <point x="106" y="-175" type="curve" smooth="yes"/>
      <point x="110" y="109"/>
      <point x="383" y="419"/>
      <point x="636" y="535" type="curve"/>
      <point x="285" y="647" type="line"/>
    </contour>
  </outline>
</glyph>
<glyph name="dal-ar" format="1">
  <advance width="600"/>
  <unicode hex="062F"/>
  <outline>
    <contour>
      <point x="282" y="268" type="line" smooth="yes"/>
      <point x="348" y="173"/>
      <point x="350" y="108"/>
      <point x="337" y="37" type="curve"/>
      <point x="296" y="10"/>
      <point x="204" y="-21"/>
      <point x="114" y="-21" type="curve" smooth="yes"/>
      <point x="-13" y="-21"/>
      <point x="-4" y="50"/>
      <point x="3" y="133" type="curve"/>
      <point x="50" y="133" type="line"/>
      <point x="50" y="71" type="line"/>
      <point x="125" y="40"/>
      <point x="229" y="64"/>
      <point x="298" y="91" type="curve"/>
      <point x="292" y="123"/>
      <point x="277" y="152"/>
      <point x="149" y="329" type="curve"/>
      <point x="195" y="399" type="line"/>
    </contour>
  </outline>
</glyph>
<glyph name="reh-ar" format="1">
  <advance width="1229"/>
  <unicode hex="0631"/>
  <outline>
    <contour>
      <point x="358" y="-332"/>
      <point x="492" y="-152"/>
      <point x="651" y="98" type="curve"/>
      <point x="446" y="563" type="line"/>
      <point x="557" y="700" type="line"/>
      <point x="625" y="547"/>
      <point x="741" y="264"/>
      <point x="725" y="109" type="curve" smooth="yes"/>
      <point x="707" y="-96"/>
      <point x="584" y="-301"/>
      <point x="416" y="-379" type="curve" smooth="yes"/>
      <point x="260" y="-453"/>
      <point x="0" y="-303"/>
      <point x="0" y="-303" type="curve"/>
      <point x="29" y="-236" type="line"/>
    </contour>
  </outline>
</glyph>
<glyph name="seen-ar" format="1">
  <advance width="994"/>
  <unicode hex="0633"/>
  <outline>
    <contour>
      <point x="550" y="65"/>
      <point x="642" y="74"/>
      <point x="695" y="87" type="curve"/>
      <point x="716" y="245" type="line"/>
      <point x="766" y="241" type="line"/>
      <point x="754" y="83" type="line"/>
      <point x="914" y="71" type="line"/>
      <point x="841" y="280" type="line"/>
      <point x="899" y="344" type="line"/>
      <point x="899" y="344"/>
      <point x="956" y="195"/>
      <point x="956" y="123" type="curve" smooth="yes"/>
      <point x="956" y="85"/>
      <point x="939" y="31"/>
      <point x="923" y="-2" type="curve"/>
      <point x="842" y="-2"/>
      <point x="771" y="-2"/>
      <point x="711" y="27" type="curve"/>
      <point x="641" y="-10"/>
      <point x="513" y="-14"/>
      <point x="452" y="39" type="curve"/>
      <point x="478" y="91" type="line"/>
    </contour>
    <component base="noonghunna-ar" xOffset="38"/>
  </outline>
</glyph>
<glyph name="sad-ar" format="1">
  <advance width="2355"/>
  <unicode hex="0635"/>
  <outline>
    <contour>
      <point x="717" y="-462"/>
      <point x="1029" y="-371"/>
      <point x="1133" y="-236" type="curve" smooth="yes"/>
      <point x="1175" y="-181"/>
      <point x="1176" y="-128"/>
      <point x="1157" y="73" type="curve"/>
      <point x="1378" y="-63"/>
      <point x="1990" y="-31"/>
      <point x="2178" y="151" type="curve"/>
      <point x="2376" y="375"/>
      <point x="2072" y="677"/>
      <point x="1853" y="679" type="curve" smooth="yes"/>
      <point x="1699" y="680"/>
      <point x="1508" y="619"/>
      <point x="1184" y="221" type="curve"/>
      <point x="1125" y="271"/>
      <point x="1130" y="364"/>
      <point x="1112" y="502" type="curve" smooth="yes"/>
      <point x="1110" y="518"/>
      <point x="1095" y="523"/>
      <point x="1083" y="514" type="curve" smooth="yes"/>
      <point x="987" y="443" type="line" smooth="yes"/>
      <point x="983" y="440"/>
      <point x="981" y="435"/>
      <point x="982" y="430" type="curve"/>
      <point x="1063" y="-154" type="line" smooth="yes"/>
      <point x="1064" y="-160"/>
      <point x="1061" y="-167"/>
      <point x="1055" y="-169" type="curve"/>
      <point x="983" y="-203"/>
      <point x="814" y="-287"/>
      <point x="544" y="-287" type="curve" smooth="yes"/>
      <point x="338" y="-287"/>
      <point x="227" y="-189"/>
      <point x="271" y="53" type="curve" smooth="yes"/>
      <point x="301" y="218" type="line" smooth="yes"/>
      <point x="303" y="228"/>
      <point x="296" y="235"/>
      <point x="287" y="236" type="curve" smooth="yes"/>
      <point x="223" y="245" type="line" smooth="yes"/>
      <point x="215" y="246"/>
      <point x="208" y="242"/>
      <point x="206" y="233" type="curve" smooth="yes"/>
      <point x="170" y="33" type="line" smooth="yes"/>
      <point x="124" y="-222"/>
      <point x="180" y="-462"/>
      <point x="520" y="-462" type="curve" smooth="yes"/>
    </contour>
    <contour>
      <point x="1503" y="470"/>
      <point x="1641" y="527"/>
      <point x="1783" y="527" type="curve" smooth="yes"/>
      <point x="1966" y="527"/>
      <point x="2105" y="353"/>
      <point x="2143" y="278" type="curve" smooth="yes"/>
      <point x="2147" y="269"/>
      <point x="2145" y="263"/>
      <point x="2137" y="258" type="curve" smooth="yes"/>
      <point x="1900" y="116"/>
      <point x="1525" y="116"/>
      <point x="1268" y="187" type="curve"/>
    </contour>
    <contour>
      <point x="1824" y="839" type="move" name="top"/>
    </contour>
    <contour>
      <point x="611" y="-612" type="move" name="bottom"/>
    </contour>
  </outline>
</glyph>
<glyph name="tah-ar" format="1">
  <advance width="1520"/>
  <unicode hex="0637"/>
  <outline>
    <contour>
      <point x="530" y="1067" type="line"/>
      <point x="544" y="426" type="line"/>
      <point x="708" y="605"/>
      <point x="887" y="735"/>
      <point x="1046" y="734" type="curve" smooth="yes"/>
      <point x="1224" y="733"/>
      <point x="1410" y="507"/>
      <point x="1420" y="391" type="curve" smooth="yes"/>
      <point x="1424" y="346"/>
      <point x="1399" y="266"/>
      <point x="1341" y="209" type="curve" smooth="yes"/>
      <point x="1050" y="-74"/>
      <point x="419" y="-12"/>
      <point x="143" y="-2" type="curve"/>
      <point x="100" y="179" type="line"/>
      <point x="301" y="165" type="line"/>
      <point x="439" y="321" type="line"/>
      <point x="386" y="1276" type="line"/>
      <point x="527" y="1356" type="line"/>
      <point x="592" y="1070" type="line"/>
    </contour>
    <contour>
      <point x="716" y="145"/>
      <point x="1048" y="178"/>
      <point x="1305" y="310" type="curve"/>
      <point x="1305" y="310"/>
      <point x="1183" y="563"/>
      <point x="971" y="563" type="curve" smooth="yes"/>
      <point x="821" y="563"/>
      <point x="718" y="482"/>
      <point x="406" y="159" type="curve"/>
    </contour>
    <contour>
      <point x="1017" y="1050" type="move" name="top"/>
    </contour>
    <contour>
      <point x="706" y="-432" type="move" name="bottom"/>
    </contour>
  </outline>
</glyph>
<glyph name="ain-ar" format="1">
  <advance width="998"/>
  <unicode hex="0639"/>
  <outline>
    <contour>
      <point x="307" y="322" type="curve"/>
      <point x="162" y="440"/>
      <point x="111" y="630"/>
      <point x="102" y="708" type="curve" smooth="yes"/>
      <point x="85" y="863"/>
      <point x="210" y="1026"/>
      <point x="358" y="1050" type="curve" smooth="yes"/>
      <point x="446" y="1064"/>
      <point x="568" y="1034"/>
      <point x="688" y="960" type="curve"/>
      <point x="668" y="877" type="line"/>
      <point x="464" y="904"/>
      <point x="336" y="896"/>
      <point x="200" y="797" type="curve"/>
      <point x="392" y="408" type="line"/>
      <point x="555" y="504"/>
      <point x="723" y="578"/>
      <point x="896" y="640" type="curve"/>
      <point x="898" y="449" type="line"/>
      <point x="591" y="362"/>
      <point x="259" y="189"/>
      <point x="211" y="-135" type="curve"/>
      <point x="276" y="-515"/>
      <point x="844" y="-460"/>
      <point x="1159" y="-414" type="curve"/>
      <point x="1119" y="-574" type="line"/>
      <point x="986" y="-606"/>
      <point x="800" y="-631"/>
      <point x="682" y="-633" type="curve" smooth="yes"/>
      <point x="367" y="-638"/>
      <point x="116" y="-528"/>
      <point x="121" y="-135" type="curve"/>
      <point x="124" y="37"/>
      <point x="197" y="197"/>
    </contour>
  </outline>
</glyph>
<glyph name="kashida-ar" format="1">
  <advance width="600"/>
  <unicode hex="0640"/>
  <outline>
    <contour>
      <point x="76" y="100" type="line"/>
      <point x="658" y="100" type="line"/>
      <point x="658" y="256" type="line"/>
      <point x="76" y="256" type="line"/>
    </contour>
  </outline>
</glyph>
<glyph name="qaf-ar" format="1">
  <advance width="1348"/>
  <unicode hex="0642"/>
  <outline>
    <contour>
      <point x="879" y="521" type="curve" smooth="yes"/>
      <point x="746" y="521"/>
      <point x="690" y="311"/>
      <point x="703" y="159" type="curve"/>
      <point x="827" y="98"/>
      <point x="966" y="114"/>
      <point x="1118" y="150" type="curve"/>
      <point x="1108" y="335"/>
      <point x="986" y="521"/>
    </contour>
    <contour>
      <point x="483" y="-460" type="curve" smooth="yes"/>
      <point x="163" y="-460"/>
      <point x="62" y="-219"/>
      <point x="113" y="35" type="curve"/>
      <point x="173" y="275" type="line"/>
      <point x="271" y="255" type="line"/>
      <point x="210" y="33"/>
      <point x="207" y="12"/>
      <point x="206" y="-7" type="curve" smooth="yes"/>
      <point x="196" y="-203"/>
      <point x="329" y="-285"/>
      <point x="507" y="-285" type="curve" smooth="yes"/>
      <point x="849" y="-285"/>
      <point x="1126" y="-177"/>
      <point x="1126" y="-177" type="curve"/>
      <point x="1136" y="31" type="line"/>
      <point x="960" y="-69"/>
      <point x="595" y="-120"/>
      <point x="595" y="204" type="curve" smooth="yes"/>
      <point x="595" y="410"/>
      <point x="713" y="697"/>
      <point x="914" y="697" type="curve" smooth="yes"/>
      <point x="1115" y="697"/>
      <point x="1257" y="336"/>
      <point x="1248" y="50" type="curve" smooth="yes"/>
      <point x="1244" y="-72"/>
      <point x="1240" y="-166"/>
      <point x="1193" y="-234" type="curve" smooth="yes"/>
      <point x="1076" y="-405"/>
      <point x="658" y="-460"/>
    </contour>
  </outline>
</glyph>
<glyph name="kaf-ar" format="1">
  <advance width="1204"/>
  <unicode hex="0643"/>
  <outline>
    <contour>
      <point x="1018" y="24" type="curve"/>
      <point x="749" y="-47"/>
      <point x="421" y="-69"/>
      <point x="100" y="-12" type="curve"/>
      <point x="110" y="174" type="line"/>
      <point x="391" y="107"/>
      <point x="720" y="126"/>
      <point x="1003" y="180" type="curve"/>
      <point x="949" y="972" type="line"/>
      <point x="886" y="1119" type="line"/>
      <point x="1088" y="1286" type="line"/>
      <point x="1104" y="308" type="line" smooth="yes"/>
      <point x="1105" y="218"/>
      <point x="1070" y="111"/>
    </contour>
  </outline>
</glyph>
<glyph name="lam-ar" format="1">
  <advance width="600"/>
  <unicode hex="0644"/>
  <outline>
    <contour>
      <point x="408" y="543" type="line"/>
      <point x="507" y="625" type="line"/>
      <point x="524" y="-64" type="line"/>
      <point x="521" y="-184"/>
      <point x="327" y="-262"/>
      <point x="210" y="-262" type="curve" smooth="yes"/>
      <point x="54" y="-262"/>
      <point x="36" y="-145"/>
      <point x="53" y="-37" type="curve" smooth="yes"/>
      <point x="58" y="-3"/>
      <point x="66" y="35"/>
      <point x="72" y="60" type="curve"/>
      <point x="117" y="51" type="line"/>
      <point x="102" y="-27" type="line" smooth="yes"/>
      <point x="82" y="-134"/>
      <point x="140" y="-180"/>
      <point x="227" y="-180" type="curve" smooth="yes"/>
      <point x="355" y="-180"/>
      <point x="471" y="-93"/>
      <point x="471" y="-93" type="curve"/>
      <point x="439" y="471" type="line"/>
    </contour>
  </outline>
</glyph>
<glyph name="meem-ar" format="1">
  <advance width="1036"/>
  <unicode hex="0645"/>
  <outline>
    <contour>
      <point x="285" y="549"/>
      <point x="342" y="767"/>
      <point x="542" y="767" type="curve" smooth="yes"/>
      <point x="672" y="767"/>
      <point x="969" y="503"/>
      <point x="957" y="309" type="curve"/>
      <point x="929" y="118" type="line"/>
      <point x="712" y="128"/>
      <point x="434" y="134"/>
      <point x="234" y="57" type="curve"/>
      <point x="319" y="-629" type="line"/>
      <point x="177" y="-688" type="line"/>
      <point x="141" y="-119" type="line"/>
      <point x="127" y="82"/>
      <point x="200" y="172"/>
      <point x="283" y="217" type="curve"/>
      <point x="284" y="395" type="line" smooth="yes"/>
    </contour>
    <contour>
      <point x="779" y="446"/>
      <point x="627" y="596"/>
      <point x="524" y="596" type="curve" smooth="yes"/>
      <point x="433" y="596"/>
      <point x="388" y="476"/>
      <point x="362" y="397" type="curve"/>
      <point x="404" y="253" type="line"/>
      <point x="550" y="285"/>
      <point x="706" y="288"/>
      <point x="871" y="275" type="curve"/>
    </contour>
  </outline>
</glyph>
<glyph name="heh-ar" format="1">
  <advance width="797"/>
  <unicode hex="0647"/>
  <outline>
    <contour>
      <point x="292" y="760" type="curve"/>
      <point x="492" y="637"/>
      <point x="697" y="509"/>
      <point x="697" y="378" type="curve" smooth="yes"/>
      <point x="697" y="167"/>
      <point x="503" y="-16"/>
      <point x="332" y="-16" type="curve" smooth="yes"/>
      <point x="193" y="-16"/>
      <point x="100" y="66"/>
      <point x="100" y="249" type="curve"/>
      <point x="104" y="423"/>
      <point x="197" y="590"/>
    </contour>
    <contour>
      <point x="272" y="546" type="line"/>
      <point x="188" y="352" type="line"/>
      <point x="184" y="253"/>
      <point x="268" y="147"/>
      <point x="359" y="150" type="curve" smooth="yes"/>
      <point x="465" y="153"/>
      <point x="556" y="212"/>
      <point x="615" y="321" type="curve"/>
    </contour>
  </outline>
</glyph>
<glyph name="waw-ar" format="1">
  <advance width="977"/>
  <unicode hex="0648"/>
  <outline>
    <contour>
      <point x="783" y="-317"/>
      <point x="878" y="-76"/>
      <point x="878" y="176" type="curve" smooth="yes"/>
      <point x="878" y="435"/>
      <point x="770" y="716"/>
      <point x="574" y="716" type="curve" smooth="yes"/>
      <point x="372" y="716"/>
      <point x="244" y="438"/>
      <point x="244" y="232" type="curve" smooth="yes"/>
      <point x="244" y="-28"/>
      <point x="418" y="-102"/>
      <point x="763" y="1" type="curve"/>
      <point x="632" y="-273"/>
      <point x="425" y="-370"/>
      <point x="88" y="-296" type="curve" smooth="yes"/>
      <point x="79" y="-294"/>
      <point x="73" y="-300"/>
      <point x="70" y="-309" type="curve" smooth="yes"/>
      <point x="50" y="-377" type="line"/>
      <point x="48" y="-385"/>
      <point x="52" y="-391"/>
      <point x="61" y="-394" type="curve" smooth="yes"/>
      <point x="267" y="-463"/>
      <point x="449" y="-491"/>
      <point x="573" y="-426" type="curve" smooth="yes"/>
    </contour>
    <contour>
      <point x="616" y="124"/>
      <point x="444" y="111"/>
      <point x="340" y="181" type="curve" smooth="yes"/>
      <point x="334" y="184"/>
      <point x="332" y="191"/>
      <point x="331" y="199" type="curve" smooth="yes"/>
      <point x="324" y="350"/>
      <point x="428" y="540"/>
      <point x="539" y="540" type="curve" smooth="yes"/>
      <point x="646" y="540"/>
      <point x="763" y="344"/>
      <point x="764" y="159" type="curve"/>
    </contour>
    <contour>
      <point x="551" y="896" type="move" name="top"/>
    </contour>
    <contour>
      <point x="461" y="-626" type="move" name="bottom"/>
    </contour>
  </outline>
</glyph>
<glyph name="alefMaksura-ar" format="1">
  <advance width="1417"/>
  <unicode hex="0649"/>
  <outline>
    <contour>
      <point x="842" y="-531"/>
      <point x="1306" y="-341"/>
      <point x="1297" y="-92" type="curve" smooth="yes"/>
      <point x="1295" y="-26"/>
      <point x="1258" y="-2"/>
      <point x="1140" y="8" type="curve" smooth="yes"/>
      <point x="936" y="26" type="line"/>
      <point x="821" y="39"/>
      <point x="755" y="75"/>
      <point x="772" y="131" type="curve"/>
      <point x="822" y="247"/>
      <point x="920" y="345"/>
      <point x="1003" y="401" type="curve" smooth="yes"/>
      <point x="1073" y="448"/>
      <point x="1126" y="437"/>
      <point x="1177" y="409" type="curve" smooth="yes"/>
      <point x="1186" y="404"/>
      <point x="1193" y="407"/>
      <point x="1197" y="417" type="curve" smooth="yes"/>
      <point x="1241" y="514" type="line" smooth="yes"/>
      <point x="1244" y="521"/>
      <point x="1244" y="528"/>
      <point x="1239" y="535" type="curve" smooth="yes"/>
      <point x="1211" y="576"/>
      <point x="1160" y="593"/>
      <point x="1109" y="593" type="curve" smooth="yes"/>
      <point x="977" y="593"/>
      <point x="796" y="409"/>
      <point x="718" y="218" type="curve" smooth="yes"/>
      <point x="619" y="-25"/>
      <point x="663" y="-111"/>
      <point x="892" y="-134" type="curve"/>
      <point x="1209" y="-165" type="line"/>
      <point x="1020" y="-291"/>
      <point x="781" y="-362"/>
      <point x="580" y="-359" type="curve" smooth="yes"/>
      <point x="341" y="-355"/>
      <point x="197" y="-236"/>
      <point x="285" y="104" type="curve" smooth="yes"/>
      <point x="322" y="247" type="line" smooth="yes"/>
      <point x="324" y="257"/>
      <point x="320" y="263"/>
      <point x="311" y="265" type="curve" smooth="yes"/>
      <point x="247" y="279" type="line" smooth="yes"/>
      <point x="238" y="281"/>
      <point x="231" y="277"/>
      <point x="229" y="268" type="curve" smooth="yes"/>
      <point x="189" y="115" type="line" smooth="yes"/>
      <point x="83" y="-289"/>
      <point x="190" y="-531"/>
      <point x="566" y="-531" type="curve" smooth="yes"/>
    </contour>
    <contour>
      <point x="487" y="517" type="move" name="top"/>
    </contour>
    <contour>
      <point x="627" y="-686" type="move" name="bottom"/>
    </contour>
  </outline>
</glyph>
<glyph name="fathatan-ar" format="1">
  <advance width="0"/>
  <unicode hex="064B"/>
  <outline>
    <contour>
      <point x="0" y="914" type="line"/>
      <point x="408" y="1054" type="line"/>
      <point x="408" y="1139" type="line"/>
      <point x="0" y="999" type="line"/>
    </contour>
    <contour>
      <point x="0" y="1084" type="line"/>
      <point x="408" y="1224" type="line"/>
      <point x="408" y="1309" type="line"/>
      <point x="0" y="1169" type="line"/>
    </contour>
    <contour>
      <point x="204" y="1501" type="move" name="top"/>
    </contour>
    <contour>
      <point x="204" y="914" type="move" name="_top"/>
    </contour>
  </outline>
</glyph>
<glyph name="dammatan-ar" format="1">
  <advance width="600"/>
  <unicode hex="064C"/>
  <outline>
    <contour>
      <point x="317" y="884"/>
      <point x="370" y="935"/>
      <point x="415" y="1011" type="curve"/>
      <point x="492" y="1024" type="line"/>
      <point x="502" y="1080" type="line"/>
      <point x="423" y="1072" type="line"/>
      <point x="436" y="1155"/>
      <point x="411" y="1270"/>
      <point x="335" y="1270" type="curve" smooth="yes"/>
      <point x="271" y="1270"/>
      <point x="228" y="1171"/>
      <point x="223" y="1115" type="curve" smooth="yes"/>
      <point x="216" y="1046"/>
      <point x="254" y="990"/>
      <point x="358" y="1005" type="curve"/>
      <point x="321" y="965"/>
      <point x="282" y="931"/>
      <point x="239" y="905" type="curve"/>
      <point x="241" y="954"/>
      <point x="246" y="1053"/>
      <point x="187" y="1053" type="curve" smooth="yes"/>
      <point x="165" y="1053"/>
      <point x="134" y="1038"/>
      <point x="98" y="1017" type="curve"/>
      <point x="101" y="949" type="line"/>
      <point x="152" y="973" type="line"/>
      <point x="180" y="983"/>
      <point x="201" y="984"/>
      <point x="201" y="944" type="curve" smooth="yes"/>
      <point x="202" y="924"/>
      <point x="200" y="895"/>
      <point x="200" y="884" type="curve"/>
      <point x="261" y="844" type="line"/>
    </contour>
    <contour>
      <point x="325" y="1066"/>
      <point x="262" y="1074"/>
      <point x="262" y="1105" type="curve" smooth="yes"/>
      <point x="262" y="1150"/>
      <point x="287" y="1197"/>
      <point x="322" y="1197" type="curve" smooth="yes"/>
      <point x="367" y="1197"/>
      <point x="390" y="1103"/>
      <point x="378" y="1067" type="curve"/>
    </contour>
    <contour>
      <point x="300" y="1507" type="move" name="top"/>
    </contour>
    <contour>
      <point x="300" y="844" type="move" name="_top"/>
    </contour>
  </outline>
</glyph>
<glyph name="kasratan-ar" format="1">
  <advance width="0"/>
  <unicode hex="064D"/>
  <outline>
    <contour>
      <point x="0" y="-521" type="line"/>
      <point x="408" y="-381" type="line"/>
      <point x="408" y="-296" type="line"/>
      <point x="0" y="-436" type="line"/>
    </contour>
    <contour>
      <point x="0" y="-351" type="line"/>
      <point x="408" y="-211" type="line"/>
      <point x="408" y="-126" type="line"/>
      <point x="0" y="-266" type="line"/>
    </contour>
    <contour>
      <point x="204" y="-126" type="move" name="_bottom"/>
    </contour>
    <contour>
      <point x="204" y="-774" type="move" name="bottom"/>
    </contour>
  </outline>
</glyph>
<glyph name="fatha-ar" format="1">
  <advance width="0"/>
  <unicode hex="064E"/>
  <outline>
    <contour>
      <point x="0" y="1103" type="line"/>
      <point x="408" y="1243" type="line"/>
      <point x="408" y="1328" type="line"/>
      <point x="0" y="1188" type="line"/>
    </contour>
    <contour>
      <point x="204" y="1529" type="move" name="top"/>
    </contour>
    <contour>
      <point x="204" y="1083" type="move" name="_top"/>
    </contour>
  </outline>
</glyph>
<glyph name="damma-ar" format="1">
  <advance width="600"/>
  <unicode hex="064F"/>
  <outline>
    <contour>
      <point x="314" y="884"/>
      <point x="361" y="953"/>
      <point x="391" y="1003" type="curve"/>
      <point x="468" y="1016" type="line"/>
      <point x="478" y="1072" type="line"/>
      <point x="399" y="1064" type="line"/>
      <point x="412" y="1147"/>
      <point x="387" y="1262"/>
      <point x="311" y="1262" type="curve" smooth="yes"/>
      <point x="247" y="1262"/>
      <point x="204" y="1163"/>
      <point x="199" y="1107" type="curve" smooth="yes"/>
      <point x="192" y="1038"/>
      <point x="230" y="982"/>
      <point x="334" y="997" type="curve"/>
      <point x="309" y="962"/>
      <point x="254" y="903"/>
      <point x="229" y="876" type="curve"/>
      <point x="279" y="852" type="line"/>
    </contour>
    <contour>
      <point x="301" y="1058"/>
      <point x="238" y="1066"/>
      <point x="238" y="1097" type="curve" smooth="yes"/>
      <point x="238" y="1142"/>
      <point x="263" y="1189"/>
      <point x="298" y="1189" type="curve" smooth="yes"/>
      <point x="343" y="1189"/>
      <point x="366" y="1095"/>
      <point x="354" y="1059" type="curve"/>
    </contour>
    <contour>
      <point x="338" y="1482" type="move" name="top"/>
    </contour>
    <contour>
      <point x="338" y="852" type="move" name="_top"/>
    </contour>
  </outline>
</glyph>
<glyph name="kasra-ar" format="1">
  <advance width="600"/>
  <unicode hex="0650"/>
  <outline>
    <contour>
      <point x="91" y="-461" type="line"/>
      <point x="499" y="-321" type="line"/>
      <point x="499" y="-236" type="line"/>
      <point x="91" y="-376" type="line"/>
    </contour>
    <contour>
      <point x="295" y="-236" type="move" name="_bottom"/>
    </contour>
    <contour>
      <point x="295" y="-712" type="move" name="bottom"/>
    </contour>
  </outline>
</glyph>
<glyph name="shadda-ar" format="1">
  <advance width="0"/>
  <unicode hex="0651"/>
  <outline>
    <contour>
      <point x="353" y="1235" type="line"/>
      <point x="353" y="1235"/>
      <point x="367" y="1167"/>
      <point x="377" y="1122" type="curve"/>
      <point x="383" y="1097"/>
      <point x="391" y="1059"/>
      <point x="373" y="966" type="curve"/>
      <point x="317" y="937"/>
      <point x="240" y="921"/>
      <point x="191" y="963" type="curve"/>
      <point x="157" y="937"/>
      <point x="100" y="928"/>
      <point x="50" y="940" type="curve" smooth="yes"/>
      <point x="7" y="950"/>
      <point x="-7" y="995"/>
      <point x="-1" y="1041" type="curve" smooth="yes"/>
      <point x="13" y="1167" type="line"/>
      <point x="48" y="1163" type="line"/>
      <point x="35" y="1017" type="line"/>
      <point x="94" y="998"/>
      <point x="132" y="1007"/>
      <point x="170" y="1020" type="curve"/>
      <point x="174" y="1147" type="line"/>
      <point x="209" y="1147" type="line"/>
      <point x="213" y="1021" type="line"/>
      <point x="271" y="999"/>
      <point x="313" y="1013"/>
      <point x="353" y="1028" type="curve"/>
      <point x="311" y="1186" type="line"/>
    </contour>
    <contour>
      <point x="182" y="1393" type="move" name="top"/>
    </contour>
    <contour>
      <point x="182" y="935" type="move" name="_top"/>
    </contour>
  </outline>
</glyph>
<glyph name="sukun-ar" format="1">
  <advance width="600"/>
  <unicode hex="0652"/>
  <outline>
    <contour>
      <point x="366" y="911"/>
      <point x="427" y="991"/>
      <point x="431" y="1067" type="curve" smooth="yes"/>
      <point x="435" y="1136"/>
      <point x="389" y="1202"/>
      <point x="324" y="1202" type="curve" smooth="yes"/>
      <point x="258" y="1202"/>
      <point x="217" y="1111"/>
      <point x="212" y="1051" type="curve" smooth="yes"/>
      <point x="205" y="954"/>
      <point x="245" y="916"/>
      <point x="292" y="914" type="curve" smooth="yes"/>
    </contour>
    <contour>
      <point x="273" y="995"/>
      <point x="251" y="1022"/>
      <point x="250" y="1050" type="curve" smooth="yes"/>
      <point x="249" y="1077"/>
      <point x="278" y="1123"/>
      <point x="313" y="1123" type="curve" smooth="yes"/>
      <point x="349" y="1123"/>
      <point x="389" y="1076"/>
      <point x="389" y="1055" type="curve" smooth="yes"/>
      <point x="389" y="1029"/>
      <point x="339" y="995"/>
      <point x="307" y="995" type="curve" smooth="yes"/>
    </contour>
    <contour>
      <point x="321" y="1424" type="move" name="top"/>
    </contour>
    <contour>
      <point x="321" y="914" type="move" name="_top"/>
    </contour>
  </outline>
</glyph>
<glyph name="madda-ar" format="1">
  <advance width="0"/>
  <unicode hex="0653"/>
  <outline>
    <contour>
      <point x="115" y="1385" type="line"/>
      <point x="248" y="1353"/>
      <point x="430" y="1340"/>
      <point x="627" y="1410" type="curve"/>
      <point x="629" y="1538" type="line"/>
      <point x="439" y="1495"/>
      <point x="292" y="1505"/>
      <point x="178" y="1528" type="curve" smooth="yes"/>
      <point x="136" y="1536"/>
      <point x="76" y="1543"/>
      <point x="0" y="1367" type="curve"/>
      <point x="72" y="1293" type="line"/>
    </contour>
    <contour>
      <point x="315" y="1728" type="move" name="top"/>
    </contour>
    <contour>
      <point x="315" y="1293" type="move" name="_top"/>
    </contour>
  </outline>
</glyph>
<glyph name="hamzaabove-ar" format="1">
  <advance width="0"/>
  <unicode hex="0654"/>
  <outline>
    <component base="hamzacenter-ar" yOffset="-8"/>
    <contour>
      <point x="198" y="1331" type="move" name="top"/>
    </contour>
    <contour>
      <point x="198" y="535" type="move" name="_top"/>
    </contour>
  </outline>
</glyph>
<glyph name="hamzabelow-ar" format="1">
  <advance width="0"/>
  <unicode hex="0655"/>
  <outline>
    <component base="hamzacenter-ar"/>
    <contour>
      <point x="247" y="1034" type="move" name="_bottom"/>
    </contour>
    <contour>
      <point x="247" y="258" type="move" name="bottom"/>
    </contour>
  </outline>
</glyph>
<glyph name="alefbelow-ar" format="1">
  <advance width="0"/>
  <unicode hex="0656"/>
  <outline>
    <component base="alefabove-ar" yOffset="-1504"/>
    <contour>
      <point x="49" y="-98" type="move" name="_bottom"/>
    </contour>
    <contour>
      <point x="47" y="-676" type="move" name="bottom"/>
    </contour>
  </outline>
</glyph>
<glyph name="noonghunnaabove-ar" format="1">
  <advance width="0"/>
  <unicode hex="0658"/>
  <outline>
    <contour>
      <point x="190" y="1526"/>
      <point x="317" y="1553"/>
      <point x="319" y="1630" type="curve" smooth="yes"/>
      <point x="319" y="1668"/>
      <point x="307" y="1759"/>
      <point x="301" y="1799" type="curve" smooth="yes"/>
      <point x="299" y="1811"/>
      <point x="291" y="1814"/>
      <point x="282" y="1808" type="curve" smooth="yes"/>
      <point x="263" y="1795" type="line" smooth="yes"/>
      <point x="256" y="1790"/>
      <point x="254" y="1784"/>
      <point x="255" y="1776" type="curve" smooth="yes"/>
      <point x="283" y="1622" type="line" smooth="yes"/>
      <point x="285" y="1612"/>
      <point x="280" y="1606"/>
      <point x="271" y="1604" type="curve" smooth="yes"/>
      <point x="245" y="1596"/>
      <point x="184" y="1581"/>
      <point x="122" y="1581" type="curve" smooth="yes"/>
      <point x="60" y="1581"/>
      <point x="22" y="1612"/>
      <point x="36" y="1688" type="curve" smooth="yes"/>
      <point x="43" y="1723" type="line" smooth="yes"/>
      <point x="45" y="1732"/>
      <point x="41" y="1739"/>
      <point x="32" y="1741" type="curve" smooth="yes"/>
      <point x="23" y="1743"/>
      <point x="16" y="1738"/>
      <point x="14" y="1729" type="curve" smooth="yes"/>
      <point x="4" y="1681" type="line" smooth="yes"/>
      <point x="-12" y="1602"/>
      <point x="14" y="1526"/>
      <point x="115" y="1526" type="curve" smooth="yes"/>
    </contour>
    <contour>
      <point x="159" y="1915" type="move" name="top"/>
    </contour>
    <contour>
      <point x="159" y="1526" type="move" name="_top"/>
    </contour>
  </outline>
</glyph>
<glyph name="vabove-ar" format="1">
  <advance width="0"/>
  <unicode hex="065A"/>
  <outline>
    <component base="vcenter-ar"/>
    <contour>
      <point x="203" y="1444" type="move" name="top"/>
    </contour>
    <contour>
      <point x="203" y="900" type="move" name="_top"/>
    </contour>
  </outline>
</glyph>
<glyph name="zero-ar" format="1">
  <advance width="701"/>
  <unicode hex="0660"/>
  <outline>
    <contour>
      <point x="328" y="680" type="line"/>
      <point x="496" y="589"/>
      <point x="545" y="576"/>
      <point x="544" y="522" type="curve" smooth="yes"/>
      <point x="544" y="496"/>
      <point x="463" y="387"/>
      <point x="400" y="302" type="curve"/>
      <point x="156" y="437" type="line"/>
    </contour>
  </outline>
</glyph>
<glyph name="one-ar" format="1">
  <advance width="540"/>
  <unicode hex="0661"/>
  <outline>
    <contour>
      <point x="413" y="0" type="line"/>
      <point x="409" y="515"/>
      <point x="396" y="811"/>
      <point x="237" y="1115" type="curve"/>
      <point x="117" y="950" type="line"/>
      <point x="316" y="600"/>
      <point x="313" y="218"/>
      <point x="317" y="-23" type="curve"/>
    </contour>
  </outline>
</glyph>
<glyph name="two-ar" format="1">
  <advance width="870"/>
  <unicode hex="0662"/>
  <outline>
    <contour>
      <point x="390" y="-3" type="line" smooth="yes"/>
      <point x="398" y="-1"/>
      <point x="403" y="4"/>
      <point x="403" y="13" type="curve" smooth="yes"/>
      <point x="409" y="226"/>
      <point x="399" y="457"/>
      <point x="361" y="701" type="curve" smooth="yes"/>
      <point x="359" y="712"/>
      <point x="365" y="717"/>
      <point x="376" y="715" type="curve" smooth="yes"/>
      <point x="606" y="673"/>
      <point x="759" y="805"/>
      <point x="768" y="1118" type="curve" smooth="yes"/>
      <point x="768" y="1129"/>
      <point x="762" y="1134"/>
      <point x="752" y="1133" type="curve" smooth="yes"/>
      <point x="685" y="1125" type="line" smooth="yes"/>
      <point x="676" y="1124"/>
      <point x="671" y="1118"/>
      <point x="670" y="1109" type="curve" smooth="yes"/>
      <point x="658" y="904"/>
      <point x="511" y="870"/>
      <point x="364" y="910" type="curve" smooth="yes"/>
      <point x="357" y="912"/>
      <point x="352" y="915"/>
      <point x="347" y="920" type="curve" smooth="yes"/>
      <point x="315" y="956"/>
      <point x="276" y="1026"/>
      <point x="236" y="1098" type="curve" smooth="yes"/>
      <point x="231" y="1108"/>
      <point x="222" y="1109"/>
      <point x="215" y="1099" type="curve" smooth="yes"/>
      <point x="114" y="960" type="line" smooth="yes"/>
      <point x="109" y="953"/>
      <point x="109" y="947"/>
      <point x="113" y="939" type="curve" smooth="yes"/>
      <point x="301" y="600"/>
      <point x="303" y="232"/>
      <point x="307" y="-6" type="curve" smooth="yes"/>
      <point x="307" y="-17"/>
      <point x="312" y="-22"/>
      <point x="323" y="-19" type="curve" smooth="yes"/>
    </contour>
  </outline>
</glyph>
<glyph name="three-ar" format="1">
  <advance width="1062"/>
  <unicode hex="0663"/>
  <outline>
    <contour>
      <point x="220" y="1115" type="line"/>
      <point x="265" y="1032"/>
      <point x="312" y="949"/>
      <point x="347" y="913" type="curve"/>
      <point x="384" y="902"/>
      <point x="417" y="897"/>
      <point x="446" y="898" type="curve" smooth="yes"/>
      <point x="559" y="901"/>
      <point x="569" y="981"/>
      <point x="572" y="1150" type="curve"/>
      <point x="655" y="1148" type="line"/>
      <point x="651" y="911" type="line"/>
      <point x="788" y="891"/>
      <point x="812" y="916"/>
      <point x="830" y="934" type="curve" smooth="yes"/>
      <point x="864" y="967"/>
      <point x="877" y="1035"/>
      <point x="876" y="1157" type="curve"/>
      <point x="959" y="1148" type="line"/>
      <point x="962" y="1015" type="line" smooth="yes"/>
      <point x="966" y="854"/>
      <point x="872" y="749"/>
      <point x="718" y="752" type="curve"/>
      <point x="679" y="752"/>
      <point x="642" y="768"/>
      <point x="612" y="790" type="curve"/>
      <point x="560" y="718"/>
      <point x="472" y="692"/>
      <point x="351" y="719" type="curve"/>
      <point x="405" y="409"/>
      <point x="393" y="303"/>
      <point x="396" y="0" type="curve"/>
      <point x="300" y="-23" type="line"/>
      <point x="296" y="218"/>
      <point x="299" y="600"/>
      <point x="100" y="950" type="curve"/>
    </contour>
  </outline>
</glyph>
<glyph name="four-ar" format="1">
  <advance width="906"/>
  <unicode hex="0664"/>
  <outline>
    <contour>
      <point x="610" y="555" type="line"/>
      <point x="448" y="472"/>
      <point x="234" y="319"/>
      <point x="234" y="256" type="curve" smooth="yes"/>
      <point x="234" y="158"/>
      <point x="599" y="155"/>
      <point x="828" y="201" type="curve"/>
      <point x="778" y="27" type="line"/>
      <point x="600" y="-3"/>
      <point x="137" y="-70"/>
      <point x="139" y="175" type="curve" smooth="yes"/>
      <point x="140" y="332"/>
      <point x="286" y="492"/>
      <point x="417" y="582" type="curve"/>
      <point x="327" y="600"/>
      <point x="173" y="636"/>
      <point x="173" y="736" type="curve" smooth="yes"/>
      <point x="173" y="936"/>
      <point x="384" y="1097"/>
      <point x="613" y="1214" type="curve"/>
      <point x="609" y="1060" type="line"/>
      <point x="468" y="984"/>
      <point x="346" y="901"/>
      <point x="268" y="816" type="curve"/>
      <point x="355" y="758"/>
      <point x="493" y="736"/>
      <point x="576" y="727" type="curve"/>
    </contour>
  </outline>
</glyph>
<glyph name="five-ar" format="1">
  <advance width="802"/>
  <unicode hex="0665"/>
  <outline>
    <contour>
      <point x="565" y="111"/>
      <point x="706" y="314"/>
      <point x="706" y="574" type="curve" smooth="yes"/>
      <point x="706" y="786"/>
      <point x="532" y="955"/>
      <point x="383" y="955" type="curve" smooth="yes"/>
      <point x="205" y="955"/>
      <point x="96" y="612"/>
      <point x="96" y="417" type="curve" smooth="yes"/>
      <point x="96" y="188"/>
      <point x="185" y="120"/>
      <point x="313" y="117" type="curve" smooth="yes"/>
    </contour>
    <contour>
      <point x="255" y="300"/>
      <point x="178" y="351"/>
      <point x="178" y="462" type="curve" smooth="yes"/>
      <point x="178" y="535"/>
      <point x="204" y="759"/>
      <point x="339" y="759" type="curve" smooth="yes"/>
      <point x="445" y="759"/>
      <point x="621" y="618"/>
      <point x="621" y="482" type="curve" smooth="yes"/>
      <point x="621" y="410"/>
      <point x="482" y="298"/>
      <point x="364" y="299" type="curve" smooth="yes"/>
    </contour>
  </outline>
</glyph>
<glyph name="six-ar" format="1">
  <advance width="928"/>
  <unicode hex="0666"/>
  <outline>
    <contour>
      <point x="818" y="76" type="line"/>
      <point x="688" y="344"/>
      <point x="667" y="634"/>
      <point x="709" y="943" type="curve"/>
      <point x="670" y="1090" type="line"/>
      <point x="513" y="1075"/>
      <point x="260" y="1071"/>
      <point x="108" y="1120" type="curve"/>
      <point x="102" y="931" type="line"/>
      <point x="230" y="891"/>
      <point x="476" y="896"/>
      <point x="613" y="914" type="curve"/>
      <point x="571" y="551"/>
      <point x="564" y="272"/>
      <point x="687" y="-40" type="curve"/>
    </contour>
  </outline>
</glyph>
<glyph name="seven-ar" format="1">
  <advance width="1056"/>
  <unicode hex="0667"/>
  <outline>
    <contour>
      <point x="215" y="1133" type="line"/>
      <point x="338" y="936"/>
      <point x="546" y="583"/>
      <point x="585" y="259" type="curve"/>
      <point x="648" y="554"/>
      <point x="728" y="883"/>
      <point x="870" y="1159" type="curve"/>
      <point x="956" y="1031" type="line"/>
      <point x="798" y="705"/>
      <point x="708" y="324"/>
      <point x="648" y="15" type="curve"/>
      <point x="530" y="-31" type="line"/>
      <point x="430" y="469"/>
      <point x="305" y="650"/>
      <point x="100" y="979" type="curve"/>
    </contour>
  </outline>
</glyph>
<glyph name="eight-ar" format="1">
  <advance width="1036"/>
  <unicode hex="0668"/>
  <outline>
    <contour>
      <point x="506" y="1179" type="line"/>
      <point x="606" y="699"/>
      <point x="731" y="438"/>
      <point x="936" y="149" type="curve"/>
      <point x="821" y="-5" type="line"/>
      <point x="698" y="192"/>
      <point x="490" y="605"/>
      <point x="451" y="869" type="curve"/>
      <point x="408" y="614"/>
      <point x="308" y="265"/>
      <point x="186" y="-11" type="curve"/>
      <point x="100" y="117" type="line"/>
      <point x="249" y="424"/>
      <point x="357" y="799"/>
      <point x="397" y="1097" type="curve"/>
    </contour>
  </outline>
</glyph>
<glyph name="nine-ar" format="1">
  <advance width="891"/>
  <unicode hex="0669"/>
  <outline>
    <contour>
      <point x="781" y="110" type="line"/>
      <point x="694" y="289"/>
      <point x="661" y="466"/>
      <point x="646" y="666" type="curve"/>
      <point x="632" y="867"/>
      <point x="610" y="1146"/>
      <point x="382" y="1146" type="curve" smooth="yes"/>
      <point x="212" y="1146"/>
      <point x="107" y="904"/>
      <point x="107" y="729" type="curve" smooth="yes"/>
      <point x="107" y="542"/>
      <point x="229" y="481"/>
      <point x="350" y="485" type="curve" smooth="yes"/>
      <point x="425" y="487"/>
      <point x="501" y="515"/>
      <point x="545" y="552" type="curve"/>
      <point x="554" y="353"/>
      <point x="570" y="165"/>
      <point x="647" y="-40" type="curve"/>
    </contour>
    <contour>
      <point x="405" y="650"/>
      <point x="307" y="638"/>
      <point x="202" y="690" type="curve"/>
      <point x="175" y="822"/>
      <point x="256" y="983"/>
      <point x="369" y="983" type="curve" smooth="yes"/>
      <point x="461" y="983"/>
      <point x="527" y="838"/>
      <point x="535" y="681" type="curve"/>
    </contour>
  </outline>
</glyph>
<glyph name="percent-ar" format="1">
  <advance width="864"/>
  <unicode hex="066A"/>
  <outline>
    <contour>
      <point x="736" y="997" type="line"/>
      <point x="733" y="1057"/>
      <point x="716" y="1102"/>
      <point x="686" y="1138" type="curve"/>
      <point x="114" y="60" type="line"/>
      <point x="131" y="19"/>
      <point x="156" y="-15"/>
      <point x="187" y="-40" type="curve"/>
    </contour>
    <component base="period" xOffset="455" yOffset="93" xScale="0.803" yScale="0.803"/>
    <component base="period" xOffset="17" yOffset="788" xScale="0.803" yScale="0.803"/>
  </outline>
</glyph>
<glyph name="decimalseparator-ar" format="1">
  <advance width="600"/>
  <unicode hex="066B"/>
  <outline>
    <contour>
      <point x="391" y="645" type="line"/>
      <point x="6" y="-350" type="line"/>
      <point x="93" y="-360" type="line"/>
      <point x="476" y="635" type="line"/>
    </contour>
  </outline>
</glyph>
<glyph name="thousandseparator-ar" format="1">
  <advance width="534"/>
  <unicode hex="066C"/>
  <outline>
    <contour>
      <point x="100" y="24" type="line"/>
      <point x="184" y="14" type="line"/>
      <point x="434" y="512" type="line"/>
      <point x="350" y="522" type="line"/>
    </contour>
  </outline>
</glyph>
<glyph name="asterisk-ar" format="1">
  <advance width="669"/>
  <unicode hex="066D"/>
  <outline>
    <contour>
      <point x="356" y="-91"/>
      <point x="380" y="-69"/>
      <point x="379" y="-41" type="curve" smooth="yes"/>
      <point x="375" y="133" type="line"/>
      <point x="469" y="-7" type="line" smooth="yes"/>
      <point x="484" y="-29"/>
      <point x="518" y="-32"/>
      <point x="539" y="-13" type="curve"/>
      <point x="561" y="4"/>
      <point x="565" y="37"/>
      <point x="546" y="57" type="curve" smooth="yes"/>
      <point x="420" y="190" type="line"/>
      <point x="604" y="184" type="line"/>
      <point x="631" y="182"/>
      <point x="653" y="206"/>
      <point x="652" y="234" type="curve"/>
      <point x="652" y="262"/>
      <point x="630" y="286"/>
      <point x="602" y="284" type="curve" smooth="yes"/>
      <point x="416" y="274" type="line"/>
      <point x="546" y="407" type="line"/>
      <point x="565" y="426"/>
      <point x="560" y="458"/>
      <point x="539" y="476" type="curve" smooth="yes"/>
      <point x="517" y="494"/>
      <point x="483" y="493"/>
      <point x="469" y="471" type="curve" smooth="yes"/>
      <point x="378" y="329" type="line"/>
      <point x="386" y="501" type="line" smooth="yes"/>
      <point x="387" y="529"/>
      <point x="365" y="551"/>
      <point x="337" y="551" type="curve" smooth="yes"/>
      <point x="309" y="552"/>
      <point x="285" y="530"/>
      <point x="286" y="502" type="curve" smooth="yes"/>
      <point x="292" y="329" type="line"/>
      <point x="195" y="471" type="line" smooth="yes"/>
      <point x="180" y="493"/>
      <point x="147" y="494"/>
      <point x="125" y="476" type="curve" smooth="yes"/>
      <point x="104" y="458"/>
      <point x="99" y="426"/>
      <point x="118" y="407" type="curve"/>
      <point x="242" y="272" type="line"/>
      <point x="60" y="280" type="line" smooth="yes"/>
      <point x="32" y="281"/>
      <point x="10" y="257"/>
      <point x="11" y="229" type="curve" smooth="yes"/>
      <point x="11" y="201"/>
      <point x="34" y="178"/>
      <point x="62" y="180" type="curve" smooth="yes"/>
      <point x="242" y="189" type="line"/>
      <point x="118" y="57" type="line" smooth="yes"/>
      <point x="99" y="37"/>
      <point x="103" y="4"/>
      <point x="125" y="-13" type="curve"/>
      <point x="146" y="-32"/>
      <point x="180" y="-29"/>
      <point x="195" y="-7" type="curve" smooth="yes"/>
      <point x="289" y="133" type="line"/>
      <point x="279" y="-40" type="line" smooth="yes"/>
      <point x="277" y="-68"/>
      <point x="300" y="-90"/>
      <point x="329" y="-90" type="curve" smooth="yes"/>
    </contour>
    <contour>
      <point x="295" y="161"/>
      <point x="264" y="193"/>
      <point x="264" y="231" type="curve" smooth="yes"/>
      <point x="264" y="269"/>
      <point x="295" y="301"/>
      <point x="333" y="301" type="curve" smooth="yes"/>
      <point x="372" y="301"/>
      <point x="403" y="269"/>
      <point x="403" y="231" type="curve" smooth="yes"/>
      <point x="403" y="193"/>
      <point x="372" y="161"/>
      <point x="333" y="161" type="curve" smooth="yes"/>
    </contour>
  </outline>
</glyph>
<glyph name="dotlessbeh-ar" format="1">
  <advance width="1526"/>
  <unicode hex="066E"/>
  <outline>
    <contour>
      <point x="1368" y="117" type="line" smooth="yes"/>
      <point x="1244" y="61"/>
      <point x="845" y="-44"/>
      <point x="529" y="-36" type="curve" smooth="yes"/>
      <point x="212" y="-27"/>
      <point x="71" y="92"/>
      <point x="105" y="395" type="curve" smooth="yes"/>
      <point x="121" y="540" type="line"/>
      <point x="206" y="533" type="line"/>
      <point x="193" y="395" type="line" smooth="yes"/>
      <point x="174" y="194"/>
      <point x="367" y="129"/>
      <point x="602" y="125" type="curve" smooth="yes"/>
      <point x="890" y="120"/>
      <point x="1241" y="208"/>
      <point x="1339" y="250" type="curve"/>
      <point x="1190" y="749" type="line"/>
      <point x="1309" y="880" type="line"/>
      <point x="1309" y="880"/>
      <point x="1426" y="515"/>
      <point x="1426" y="368" type="curve" smooth="yes"/>
      <point x="1426" y="290"/>
      <point x="1391" y="179"/>
      <point x="1357" y="112" type="curve"/>
    </contour>
  </outline>
</glyph>
<glyph name="dotlessqaf-ar" format="1">
  <advance width="1391"/>
  <unicode hex="066F"/>
  <outline>
    <contour>
      <point x="697" y="-460"/>
      <point x="1115" y="-405"/>
      <point x="1232" y="-234" type="curve" smooth="yes"/>
      <point x="1279" y="-166"/>
      <point x="1283" y="-72"/>
      <point x="1287" y="50" type="curve" smooth="yes"/>
      <point x="1296" y="336"/>
      <point x="1154" y="697"/>
      <point x="953" y="697" type="curve" smooth="yes"/>
      <point x="752" y="697"/>
      <point x="634" y="410"/>
      <point x="634" y="204" type="curve" smooth="yes"/>
      <point x="634" y="-109"/>
      <point x="975" y="-72"/>
      <point x="1157" y="21" type="curve" smooth="yes"/>
      <point x="1167" y="27"/>
      <point x="1175" y="22"/>
      <point x="1174" y="10" type="curve" smooth="yes"/>
      <point x="1166" y="-165" type="line" smooth="yes"/>
      <point x="1166" y="-173"/>
      <point x="1161" y="-178"/>
      <point x="1153" y="-181" type="curve" smooth="yes"/>
      <point x="1096" y="-202"/>
      <point x="846" y="-285"/>
      <point x="546" y="-285" type="curve" smooth="yes"/>
      <point x="368" y="-285"/>
      <point x="235" y="-203"/>
      <point x="245" y="-7" type="curve" smooth="yes"/>
      <point x="246" y="12"/>
      <point x="249" y="32"/>
      <point x="287" y="239" type="curve" smooth="yes"/>
      <point x="289" y="249"/>
      <point x="284" y="256"/>
      <point x="275" y="258" type="curve" smooth="yes"/>
      <point x="207" y="272" type="line" smooth="yes"/>
      <point x="198" y="274"/>
      <point x="191" y="269"/>
      <point x="189" y="260" type="curve" smooth="yes"/>
      <point x="152" y="35" type="line" smooth="yes"/>
      <point x="101" y="-219"/>
      <point x="202" y="-460"/>
      <point x="522" y="-460" type="curve" smooth="yes"/>
    </contour>
    <contour>
      <point x="1001" y="114"/>
      <point x="869" y="101"/>
      <point x="752" y="154" type="curve" smooth="yes"/>
      <point x="745" y="158"/>
      <point x="742" y="163"/>
      <point x="741" y="171" type="curve" smooth="yes"/>
      <point x="732" y="322"/>
      <point x="788" y="521"/>
      <point x="918" y="521" type="curve" smooth="yes"/>
      <point x="1022" y="521"/>
      <point x="1141" y="344"/>
      <point x="1156" y="164" type="curve" smooth="yes"/>
      <point x="1157" y="155"/>
      <point x="1152" y="149"/>
      <point x="1143" y="147" type="curve" smooth="yes"/>
    </contour>
    <contour>
      <point x="954" y="847" type="move" name="top"/>
    </contour>
    <contour>
      <point x="655" y="-610" type="move" name="bottom"/>
    </contour>
  </outline>
</glyph>
<glyph name="alefabove-ar" format="1">
  <advance width="0"/>
  <unicode hex="0670"/>
  <outline>
    <contour>
      <point x="99" y="964" type="line"/>
      <point x="97" y="1333" type="line"/>
      <point x="91" y="1338" type="line"/>
      <point x="0" y="1278" type="line"/>
      <point x="23" y="908" type="line"/>
      <point x="29" y="905" type="line"/>
      <point x="95" y="949" type="line"/>
    </contour>
    <contour>
      <point x="50" y="1451" type="move" name="top"/>
    </contour>
    <contour>
      <point x="50" y="903" type="move" name="_top"/>
    </contour>
  </outline>
</glyph>
<glyph name="alefWasla-ar" format="1">
  <advance width="600"/>
  <unicode hex="0671"/>
  <outline>
    <contour>
      <point x="306" y="-3" type="line" smooth="yes"/>
      <point x="311" y="-1"/>
      <point x="315" y="3"/>
      <point x="315" y="10" type="curve" smooth="yes"/>
      <point x="308" y="1141" type="line" smooth="yes"/>
      <point x="308" y="1157"/>
      <point x="294" y="1164"/>
      <point x="281" y="1157" type="curve" smooth="yes"/>
      <point x="164" y="1094" type="line" smooth="yes"/>
      <point x="160" y="1092"/>
      <point x="157" y="1088"/>
      <point x="157" y="1082" type="curve" smooth="yes"/>
      <point x="209" y="-13" type="line" smooth="yes"/>
      <point x="210" y="-25"/>
      <point x="221" y="-33"/>
      <point x="232" y="-29" type="curve" smooth="yes"/>
    </contour>
    <contour>
      <point x="367" y="1505"/>
      <point x="299" y="1461"/>
      <point x="194" y="1335" type="curve"/>
      <point x="142" y="1356"/>
      <point x="103" y="1396"/>
      <point x="81" y="1397" type="curve" smooth="yes"/>
      <point x="53" y="1398"/>
      <point x="21" y="1367"/>
      <point x="-39" y="1298" type="curve" smooth="yes"/>
      <point x="-42" y="1295"/>
      <point x="-41" y="1293"/>
      <point x="-39" y="1291" type="curve" smooth="yes"/>
      <point x="-23" y="1278" type="line" smooth="yes"/>
      <point x="-21" y="1276"/>
      <point x="-18" y="1276"/>
      <point x="-15" y="1279" type="curve" smooth="yes"/>
      <point x="43" y="1341"/>
      <point x="55" y="1346"/>
      <point x="60" y="1346" type="curve" smooth="yes"/>
      <point x="86" y="1346"/>
      <point x="153" y="1264"/>
      <point x="301" y="1264" type="curve" smooth="yes"/>
      <point x="402" y="1264"/>
      <point x="477" y="1285"/>
      <point x="527" y="1330" type="curve" smooth="yes"/>
      <point x="591" y="1386"/>
      <point x="517" y="1504"/>
      <point x="419" y="1504" type="curve" smooth="yes"/>
    </contour>
    <contour>
      <point x="446" y="1327"/>
      <point x="351" y="1300"/>
      <point x="229" y="1323" type="curve"/>
      <point x="228" y="1324"/>
      <point x="226" y="1324"/>
      <point x="224" y="1324" type="curve"/>
      <point x="302" y="1419"/>
      <point x="350" y="1458"/>
      <point x="398" y="1458" type="curve" smooth="yes"/>
      <point x="469" y="1458"/>
      <point x="513" y="1386"/>
      <point x="520" y="1369" type="curve"/>
    </contour>
  </outline>
</glyph>
<glyph name="highhamza-ar" format="1">
  <advance width="0"/>
  <unicode hex="0674"/>
  <outline>
    <component base="hamzacenter-ar"/>
    <contour>
      <point x="249" y="1183" type="move" name="top"/>
    </contour>
    <contour>
      <point x="249" y="315" type="move" name="bottom"/>
    </contour>
  </outline>
</glyph>
<glyph name="tehRing-ar" format="1">
  <advance width="1570"/>
  <unicode hex="067C"/>
  <outline>
    <contour>
      <point x="116" y="111"/>
      <point x="229" y="-12"/>
      <point x="484" y="-40" type="curve"/>
      <point x="463" y="-74"/>
      <point x="451" y="-117"/>
      <point x="449" y="-148" type="curve" smooth="yes"/>
      <point x="441" y="-241"/>
      <point x="479" y="-277"/>
      <point x="525" y="-280" type="curve"/>
      <point x="595" y="-282"/>
      <point x="654" y="-206"/>
      <point x="658" y="-133" type="curve" smooth="yes"/>
      <point x="660" y="-101"/>
      <point x="653" y="-70"/>
      <point x="640" y="-46" type="curve"/>
      <point x="842" y="-40"/>
      <point x="1125" y="9"/>
      <point x="1306" y="66" type="curve"/>
      <point x="1371" y="91"/>
      <point x="1403" y="101"/>
      <point x="1424" y="156" type="curve" smooth="yes"/>
      <point x="1449" y="220"/>
      <point x="1459" y="298"/>
      <point x="1459" y="358" type="curve" smooth="yes"/>
      <point x="1459" y="438"/>
      <point x="1398" y="685"/>
      <point x="1362" y="838" type="curve"/>
      <point x="1359" y="849"/>
      <point x="1350" y="850"/>
      <point x="1342" y="842" type="curve" smooth="yes"/>
      <point x="1252" y="751" type="line"/>
      <point x="1247" y="745"/>
      <point x="1245" y="739"/>
      <point x="1247" y="731" type="curve" smooth="yes"/>
      <point x="1378" y="254" type="line"/>
      <point x="1380" y="245"/>
      <point x="1378" y="238"/>
      <point x="1369" y="235" type="curve"/>
      <point x="1256" y="191"/>
      <point x="922" y="110"/>
      <point x="645" y="115" type="curve" smooth="yes"/>
      <point x="410" y="119"/>
      <point x="216" y="184"/>
      <point x="236" y="385" type="curve" smooth="yes"/>
      <point x="248" y="510" type="line" smooth="yes"/>
      <point x="249" y="519"/>
      <point x="244" y="525"/>
      <point x="235" y="526" type="curve" smooth="yes"/>
      <point x="180" y="531" type="line" smooth="yes"/>
      <point x="171" y="532"/>
      <point x="164" y="526"/>
      <point x="163" y="517" type="curve" smooth="yes"/>
      <point x="148" y="385" type="line" smooth="yes"/>
    </contour>
    <contour>
      <point x="484" y="-123"/>
      <point x="511" y="-66"/>
      <point x="544" y="-66" type="curve" smooth="yes"/>
      <point x="580" y="-66"/>
      <point x="618" y="-125"/>
      <point x="618" y="-144" type="curve" smooth="yes"/>
      <point x="618" y="-170"/>
      <point x="570" y="-202"/>
      <point x="539" y="-202" type="curve" smooth="yes"/>
      <point x="506" y="-202"/>
      <point x="486" y="-177"/>
      <point x="484" y="-149" type="curve"/>
    </contour>
    <contour>
      <point x="839" y="680"/>
      <point x="843" y="680"/>
      <point x="844" y="681" type="curve"/>
      <point x="937" y="795" type="line" smooth="yes"/>
      <point x="944" y="802"/>
      <point x="945" y="816"/>
      <point x="937" y="823" type="curve"/>
      <point x="828" y="911" type="line"/>
      <point x="828" y="913"/>
      <point x="823" y="914"/>
      <point x="820" y="911" type="curve"/>
      <point x="721" y="785" type="line"/>
      <point x="717" y="782"/>
      <point x="717" y="779"/>
      <point x="721" y="776" type="curve"/>
      <point x="839" y="681" type="line"/>
    </contour>
    <contour>
      <point x="590" y="655"/>
      <point x="593" y="655"/>
      <point x="594" y="656" type="curve"/>
      <point x="688" y="770" type="line" smooth="yes"/>
      <point x="694" y="778"/>
      <point x="695" y="791"/>
      <point x="688" y="799" type="curve"/>
      <point x="579" y="886" type="line"/>
      <point x="578" y="888"/>
      <point x="573" y="889"/>
      <point x="570" y="886" type="curve"/>
      <point x="471" y="760" type="line"/>
      <point x="467" y="757"/>
      <point x="467" y="754"/>
      <point x="471" y="751" type="curve"/>
      <point x="589" y="656" type="line"/>
    </contour>
  </outline>
</glyph>
<glyph name="tcheh-ar" format="1">
  <advance width="1218"/>
  <unicode hex="0686"/>
  <outline>
    <contour>
      <point x="1007" y="-9" type="line"/>
      <point x="875" y="95" type="line"/>
      <point x="765" y="-24" type="line"/>
      <point x="904" y="-125" type="line"/>
    </contour>
    <contour>
      <point x="871" y="-201" type="line"/>
      <point x="743" y="-103" type="line"/>
      <point x="634" y="-221" type="line"/>
      <point x="762" y="-319" type="line"/>
    </contour>
    <contour>
      <point x="714" y="-18" type="line"/>
      <point x="586" y="86" type="line"/>
      <point x="479" y="-33" type="line"/>
      <point x="608" y="-135" type="line"/>
    </contour>
    <component base="hah-ar"/>
  </outline>
</glyph>
<glyph name="dul-ar" format="1">
  <advance width="1003"/>
  <unicode hex="068E"/>
  <outline>
    <component base="dal-ar"/>
    <component base="threedotsupabove-ar" xOffset="314" yOffset="432"/>
    <contour>
      <point x="447" y="-200" type="move" name="bottom"/>
    </contour>
  </outline>
</glyph>
<glyph name="dotlessfeh-ar" format="1">
  <advance width="1229"/>
  <unicode hex="06A1"/>
  <outline>
    <contour>
      <point x="1161" y="59"/>
      <point x="745" y="-45"/>
      <point x="430" y="-37" type="curve" smooth="yes"/>
      <point x="113" y="-29"/>
      <point x="-29" y="90"/>
      <point x="6" y="393" type="curve" smooth="yes"/>
      <point x="23" y="539" type="line"/>
      <point x="109" y="530" type="line"/>
      <point x="94" y="393" type="line" smooth="yes"/>
      <point x="74" y="193"/>
      <point x="268" y="127"/>
      <point x="502" y="123" type="curve" smooth="yes"/>
      <point x="791" y="119"/>
      <point x="1141" y="207"/>
      <point x="1239" y="248" type="curve"/>
      <point x="1217" y="358" type="line"/>
      <point x="1120" y="326"/>
      <point x="1034" y="303"/>
      <point x="940" y="303" type="curve" smooth="yes"/>
      <point x="823" y="301"/>
      <point x="725" y="340"/>
      <point x="725" y="512" type="curve" smooth="yes"/>
      <point x="725" y="678"/>
      <point x="803" y="944"/>
      <point x="1004" y="944" type="curve" smooth="yes"/>
      <point x="1276" y="944"/>
      <point x="1413" y="362"/>
      <point x="1284" y="115" type="curve"/>
    </contour>
    <contour>
      <point x="856" y="768"/>
      <point x="813" y="559"/>
      <point x="813" y="467" type="curve"/>
      <point x="1184" y="477" type="line"/>
      <point x="1155" y="643"/>
      <point x="1075" y="768"/>
      <point x="969" y="768" type="curve" smooth="yes"/>
    </contour>
  </outline>
</glyph>
<glyph name="veh-ar" format="1">
  <advance width="1605"/>
  <unicode hex="06A4"/>
  <outline>
    <component base="dotlessfeh-ar"/>
    <component base="threedotsupabove-ar" xOffset="947" yOffset="549"/>
    <contour>
      <point x="737" y="-188" type="move" name="bottom"/>
    </contour>
  </outline>
</glyph>
<glyph name="keheh-ar" format="1">
  <advance width="1511"/>
  <unicode hex="06A9"/>
  <outline>
    <contour>
      <point x="880" y="-34"/>
      <point x="1162" y="40"/>
      <point x="1288" y="96" type="curve" smooth="yes"/>
      <point x="1291" y="97"/>
      <point x="1293" y="101"/>
      <point x="1296" y="108" type="curve" smooth="yes"/>
      <point x="1327" y="176"/>
      <point x="1356" y="274"/>
      <point x="1349" y="324" type="curve" smooth="yes"/>
      <point x="1315" y="563"/>
      <point x="1070" y="828"/>
      <point x="897" y="920" type="curve" smooth="yes"/>
      <point x="885" y="927"/>
      <point x="887" y="936"/>
      <point x="899" y="940" type="curve" smooth="yes"/>
      <point x="1469" y="1119" type="line" smooth="yes"/>
      <point x="1477" y="1121"/>
      <point x="1482" y="1126"/>
      <point x="1483" y="1135" type="curve" smooth="yes"/>
      <point x="1499" y="1261" type="line" smooth="yes"/>
      <point x="1500" y="1272"/>
      <point x="1494" y="1279"/>
      <point x="1483" y="1275" type="curve" smooth="yes"/>
      <point x="887" y="1075" type="line" smooth="yes"/>
      <point x="879" y="1072"/>
      <point x="875" y="1069"/>
      <point x="872" y="1062" type="curve" smooth="yes"/>
      <point x="767" y="843" type="line" smooth="yes"/>
      <point x="763" y="835"/>
      <point x="766" y="828"/>
      <point x="774" y="823" type="curve" smooth="yes"/>
      <point x="1103" y="645"/>
      <point x="1234" y="391"/>
      <point x="1274" y="255" type="curve" smooth="yes"/>
      <point x="1277" y="246"/>
      <point x="1274" y="240"/>
      <point x="1265" y="237" type="curve" smooth="yes"/>
      <point x="1159" y="194"/>
      <point x="917" y="130"/>
      <point x="641" y="135" type="curve" smooth="yes"/>
      <point x="406" y="139"/>
      <point x="213" y="204"/>
      <point x="232" y="405" type="curve" smooth="yes"/>
      <point x="244" y="528" type="line" smooth="yes"/>
      <point x="245" y="537"/>
      <point x="239" y="543"/>
      <point x="230" y="544" type="curve" smooth="yes"/>
      <point x="175" y="549" type="line" smooth="yes"/>
      <point x="166" y="550"/>
      <point x="159" y="544"/>
      <point x="158" y="535" type="curve" smooth="yes"/>
      <point x="144" y="405" type="line" smooth="yes"/>
      <point x="110" y="102"/>
      <point x="251" y="-17"/>
      <point x="568" y="-26" type="curve" smooth="yes"/>
    </contour>
    <contour>
      <point x="1189" y="1417" type="move" name="top"/>
    </contour>
    <contour>
      <point x="672" y="-176" type="move" name="bottom"/>
    </contour>
  </outline>
</glyph>
<glyph name="ng-ar" format="1">
  <advance width="1304"/>
  <unicode hex="06AD"/>
  <outline>
    <component base="kaf-ar"/>
    <component base="threedotsupabove-ar" xOffset="401" yOffset="232"/>
    <contour>
      <point x="674" y="-187" type="move" name="bottom"/>
    </contour>
  </outline>
</glyph>
<glyph name="gaf-ar" format="1">
  <advance width="1511"/>
  <unicode hex="06AF"/>
  <outline>
    <contour>
      <point x="911" y="1134" type="line"/>
      <point x="957" y="1240" type="line"/>
      <point x="1365" y="1321" type="line"/>
      <point x="1338" y="1222" type="line"/>
    </contour>
    <contour>
      <point x="1356" y="272"/>
      <point x="1324" y="166"/>
      <point x="1292" y="98" type="curve"/>
      <point x="1168" y="42"/>
      <point x="884" y="-27"/>
      <point x="568" y="-19" type="curve" smooth="yes"/>
      <point x="251" y="-10"/>
      <point x="110" y="109"/>
      <point x="144" y="412" type="curve" smooth="yes"/>
      <point x="160" y="557" type="line"/>
      <point x="245" y="550" type="line"/>
      <point x="232" y="412" type="line" smooth="yes"/>
      <point x="213" y="211"/>
      <point x="406" y="146"/>
      <point x="641" y="142" type="curve" smooth="yes"/>
      <point x="929" y="137"/>
      <point x="1180" y="200"/>
      <point x="1278" y="242" type="curve"/>
      <point x="1242" y="376"/>
      <point x="1097" y="623"/>
      <point x="748" y="807" type="curve"/>
      <point x="863" y="1048" type="line"/>
      <point x="1468" y="1167" type="line"/>
      <point x="1447" y="1009" type="line"/>
      <point x="860" y="908" type="line"/>
      <point x="1033" y="828"/>
      <point x="1313" y="574"/>
      <point x="1349" y="324" type="curve" smooth="yes"/>
    </contour>
  </outline>
</glyph>
<glyph name="noonghunna-ar" format="1">
  <advance width="1229"/>
  <unicode hex="06BA"/>
  <outline>
    <contour>
      <point x="113" y="-55" type="line" smooth="yes"/>
      <point x="70" y="-274"/>
      <point x="188" y="-369"/>
      <point x="369" y="-369" type="curve" smooth="yes"/>
      <point x="631" y="-369"/>
      <point x="887" y="-201"/>
      <point x="887" y="-201" type="curve"/>
      <point x="788" y="358" type="line"/>
      <point x="911" y="469" type="line"/>
      <point x="911" y="469"/>
      <point x="979" y="23"/>
      <point x="977" y="-131" type="curve" smooth="yes"/>
      <point x="971" y="-377"/>
      <point x="573" y="-537"/>
      <point x="334" y="-537" type="curve" smooth="yes"/>
      <point x="14" y="-537"/>
      <point x="-23" y="-297"/>
      <point x="10" y="-76" type="curve" smooth="yes"/>
      <point x="23" y="-6"/>
      <point x="39" y="72"/>
      <point x="51" y="123" type="curve"/>
      <point x="141" y="104" type="line"/>
    </contour>
  </outline>
</glyph>
<glyph name="hehDoachashmee-ar" format="1">
  <advance width="1170"/>
  <unicode hex="06BE"/>
  <outline>
    <contour>
      <point x="266" y="0"/>
      <point x="308" y="28"/>
      <point x="385" y="134" type="curve"/>
      <point x="495" y="293" type="line"/>
      <point x="999" y="213" type="line"/>
      <point x="1145" y="526"/>
      <point x="1069" y="722"/>
      <point x="566" y="1159" type="curve"/>
      <point x="482" y="1000" type="line"/>
      <point x="321" y="941"/>
      <point x="149" y="707"/>
      <point x="140" y="526" type="curve" smooth="yes"/>
      <point x="135" y="422"/>
      <point x="191" y="324"/>
      <point x="340" y="284" type="curve"/>
      <point x="140" y="45" type="line"/>
    </contour>
    <contour>
      <point x="295" y="462"/>
      <point x="234" y="522"/>
      <point x="236" y="605" type="curve" smooth="yes"/>
      <point x="242" y="816"/>
      <point x="538" y="932"/>
      <point x="628" y="751" type="curve"/>
      <point x="448" y="432" type="line"/>
    </contour>
    <contour>
      <point x="594" y="442" type="line"/>
      <point x="715" y="795" type="line"/>
      <point x="821" y="694"/>
      <point x="987" y="495"/>
      <point x="978" y="367" type="curve"/>
    </contour>
    <contour>
      <point x="607" y="1330" type="move" name="top"/>
    </contour>
    <contour>
      <point x="519" y="-105" type="move" name="bottom"/>
    </contour>
  </outline>
</glyph>
<glyph name="hehgoalHamzaabove-ar" format="1">
  <advance width="818"/>
  <unicode hex="06C2"/>
  <outline>
    <contour>
      <point x="502" y="-31"/>
      <point x="644" y="131"/>
      <point x="666" y="301" type="curve" smooth="yes"/>
      <point x="688" y="470"/>
      <point x="495" y="581"/>
      <point x="337" y="679" type="curve" smooth="yes"/>
      <point x="326" y="685"/>
      <point x="316" y="683"/>
      <point x="309" y="672" type="curve" smooth="yes"/>
      <point x="220" y="518"/>
      <point x="151" y="357"/>
      <point x="145" y="215" type="curve" smooth="yes"/>
      <point x="140" y="72"/>
      <point x="215" y="-31"/>
      <point x="342" y="-31" type="curve" smooth="yes"/>
    </contour>
    <contour>
      <point x="444" y="131"/>
      <point x="357" y="133" type="curve" smooth="yes"/>
      <point x="282" y="135"/>
      <point x="219" y="182"/>
      <point x="217" y="277" type="curve" smooth="yes"/>
      <point x="215" y="346"/>
      <point x="246" y="412"/>
      <point x="298" y="502" type="curve" smooth="yes"/>
      <point x="304" y="514"/>
      <point x="314" y="516"/>
      <point x="326" y="509" type="curve" smooth="yes"/>
      <point x="444" y="437"/>
      <point x="517" y="401"/>
      <point x="589" y="326" type="curve" smooth="yes"/>
      <point x="597" y="318"/>
      <point x="598" y="309"/>
      <point x="593" y="299" type="curve" smooth="yes"/>
      <point x="537" y="188"/>
    </contour>
    <contour>
      <point x="264" y="933"/>
      <point x="397" y="1022"/>
      <point x="523" y="1089" type="curve" smooth="yes"/>
      <point x="528" y="1091"/>
      <point x="530" y="1095"/>
      <point x="529" y="1100" type="curve" smooth="yes"/>
      <point x="524" y="1173" type="line" smooth="yes"/>
      <point x="523" y="1179"/>
      <point x="520" y="1183"/>
      <point x="513" y="1179" type="curve" smooth="yes"/>
      <point x="320" y="1064" type="line" smooth="yes"/>
      <point x="316" y="1061"/>
      <point x="312" y="1061"/>
      <point x="307" y="1066" type="curve" smooth="yes"/>
      <point x="196" y="1179" type="line" smooth="yes"/>
      <point x="191" y="1184"/>
      <point x="190" y="1189"/>
      <point x="194" y="1193" type="curve" smooth="yes"/>
      <point x="251" y="1259"/>
      <point x="327" y="1270"/>
      <point x="408" y="1267" type="curve" smooth="yes"/>
      <point x="415" y="1266"/>
      <point x="418" y="1271"/>
      <point x="418" y="1276" type="curve" smooth="yes"/>
      <point x="411" y="1326" type="line" smooth="yes"/>
      <point x="410" y="1331"/>
      <point x="409" y="1334"/>
      <point x="403" y="1336" type="curve" smooth="yes"/>
      <point x="280" y="1371"/>
      <point x="141" y="1297"/>
      <point x="141" y="1174" type="curve" smooth="yes"/>
      <point x="141" y="1109"/>
      <point x="198" y="1058"/>
      <point x="237" y="1022" type="curve" smooth="yes"/>
      <point x="244" y="1016"/>
      <point x="243" y="1012"/>
      <point x="236" y="1008" type="curve" smooth="yes"/>
      <point x="146" y="943" type="line" smooth="yes"/>
      <point x="141" y="940"/>
      <point x="139" y="938"/>
      <point x="139" y="932" type="curve" smooth="yes"/>
      <point x="138" y="874" type="line" smooth="yes"/>
      <point x="138" y="866"/>
      <point x="143" y="863"/>
      <point x="149" y="866" type="curve" smooth="yes"/>
    </contour>
  </outline>
</glyph>
<glyph name="yeh-farsi" format="1">
  <advance width="600"/>
  <unicode hex="06CC"/>
  <outline>
    <contour>
      <point x="234" y="31" type="line" smooth="yes"/>
      <point x="244" y="124"/>
      <point x="350" y="270"/>
      <point x="446" y="273" type="curve" smooth="yes"/>
      <point x="476" y="275"/>
      <point x="505" y="262"/>
      <point x="530" y="230" type="curve"/>
      <point x="502" y="160" type="line"/>
      <point x="447" y="200" type="line"/>
      <point x="390" y="195"/>
      <point x="300" y="115"/>
      <point x="278" y="39" type="curve"/>
      <point x="542" y="17" type="line"/>
      <point x="539" y="-80"/>
      <point x="512" y="-142"/>
      <point x="425" y="-193" type="curve" smooth="yes"/>
      <point x="353" y="-234"/>
      <point x="269" y="-262"/>
      <point x="200" y="-262" type="curve" smooth="yes"/>
      <point x="22" y="-262"/>
      <point x="-30" y="-136"/>
      <point x="16" y="53" type="curve" smooth="yes"/>
      <point x="33" y="120" type="line"/>
      <point x="78" y="110" type="line"/>
      <point x="63" y="48" type="line" smooth="yes"/>
      <point x="23" y="-119"/>
      <point x="100" y="-177"/>
      <point x="207" y="-178" type="curve" smooth="yes"/>
      <point x="312" y="-180"/>
      <point x="433" y="-126"/>
      <point x="494" y="-64" type="curve"/>
      <point x="228" y="-38" type="line"/>
    </contour>
  </outline>
</glyph>
<glyph name="yehbarree-ar" format="1">
  <advance width="1572"/>
  <unicode hex="06D2"/>
  <outline>
    <contour>
      <point x="1469" y="13"/>
      <point x="1494" y="106"/>
      <point x="1376" y="106" type="curve" smooth="yes"/>
      <point x="372" y="107" type="line" smooth="yes"/>
      <point x="256" y="107"/>
      <point x="209" y="144"/>
      <point x="231" y="204" type="curve" smooth="yes"/>
      <point x="270" y="310"/>
      <point x="573" y="379"/>
      <point x="689" y="571" type="curve" smooth="yes"/>
      <point x="701" y="591"/>
      <point x="781" y="534"/>
      <point x="804" y="522" type="curve" smooth="yes"/>
      <point x="813" y="517"/>
      <point x="820" y="520"/>
      <point x="824" y="530" type="curve" smooth="yes"/>
      <point x="868" y="627" type="line" smooth="yes"/>
      <point x="871" y="634"/>
      <point x="871" y="641"/>
      <point x="866" y="648" type="curve" smooth="yes"/>
      <point x="838" y="689"/>
      <point x="738" y="754"/>
      <point x="692" y="731" type="curve" smooth="yes"/>
      <point x="629" y="700"/>
      <point x="646" y="627"/>
      <point x="446" y="513" type="curve" smooth="yes"/>
      <point x="313" y="438"/>
      <point x="228" y="375"/>
      <point x="174" y="249" type="curve" smooth="yes"/>
      <point x="90" y="59"/>
      <point x="133" y="-53"/>
      <point x="328" y="-53" type="curve"/>
      <point x="1471" y="-53" type="line"/>
    </contour>
    <contour>
      <point x="716" y="881" type="move" name="top"/>
    </contour>
    <contour>
      <point x="786" y="-200" type="move" name="bottom"/>
    </contour>
  </outline>
</glyph>
<glyph name="sadLamAlefMaksuraabove-ar" format="1">
  <advance width="0"/>
  <unicode hex="06D6"/>
  <outline>
    <contour>
      <point x="391" y="12"/>
      <point x="1019" y="19"/>
      <point x="1199" y="29" type="curve"/>
      <point x="1225" y="89" type="line"/>
      <point x="1099" y="79"/>
      <point x="451" y="69"/>
      <point x="309" y="66" type="curve" smooth="yes"/>
      <point x="200" y="64"/>
      <point x="125" y="59"/>
      <point x="34" y="84" type="curve"/>
      <point x="63" y="188"/>
      <point x="163" y="217"/>
      <point x="269" y="239" type="curve"/>
      <point x="303" y="304" type="line"/>
      <point x="343" y="200"/>
      <point x="465" y="183"/>
      <point x="523" y="266" type="curve"/>
      <point x="565" y="243"/>
      <point x="635" y="230"/>
      <point x="701" y="231" type="curve"/>
      <point x="792" y="231"/>
      <point x="871" y="257"/>
      <point x="925" y="304" type="curve"/>
      <point x="949" y="330"/>
      <point x="957" y="359"/>
      <point x="956" y="375" type="curve"/>
      <point x="951" y="419"/>
      <point x="873" y="494"/>
      <point x="806" y="495" type="curve" smooth="yes"/>
      <point x="750" y="495"/>
      <point x="694" y="447"/>
      <point x="578" y="307" type="curve"/>
      <point x="529" y="326" type="line"/>
      <point x="479" y="249"/>
      <point x="406" y="263"/>
      <point x="357" y="312" type="curve" smooth="yes"/>
      <point x="327" y="342"/>
      <point x="311" y="393"/>
      <point x="306" y="547" type="curve"/>
      <point x="296" y="777" type="line"/>
      <point x="242" y="733" type="line"/>
      <point x="268" y="295" type="line"/>
      <point x="144" y="268"/>
      <point x="41" y="243"/>
      <point x="2" y="81" type="curve" smooth="yes"/>
      <point x="-10" y="30"/>
      <point x="35" y="15"/>
      <point x="86" y="9" type="curve" smooth="yes"/>
      <point x="158" y="0"/>
      <point x="221" y="5"/>
      <point x="301" y="8" type="curve" smooth="yes"/>
    </contour>
    <contour>
      <point x="699" y="401"/>
      <point x="742" y="433"/>
      <point x="780" y="433" type="curve" smooth="yes"/>
      <point x="850" y="433"/>
      <point x="910" y="346"/>
      <point x="910" y="346" type="curve"/>
      <point x="814" y="292"/>
      <point x="725" y="281"/>
      <point x="613" y="298" type="curve"/>
    </contour>
    <contour>
      <point x="613" y="877" type="move" name="top"/>
    </contour>
    <contour>
      <point x="613" y="4" type="move" name="_top"/>
    </contour>
  </outline>
</glyph>
<glyph name="qafLamAlefMaksuraabove-ar" format="1">
  <advance width="0"/>
  <unicode hex="06D7"/>
  <outline>
    <contour>
      <point x="431" y="1342"/>
      <point x="616" y="1349"/>
      <point x="796" y="1359" type="curve"/>
      <point x="817" y="1407" type="line"/>
      <point x="808" y="1418" type="line"/>
      <point x="681" y="1408"/>
      <point x="486" y="1399"/>
      <point x="349" y="1396" type="curve" smooth="yes"/>
      <point x="240" y="1394"/>
      <point x="125" y="1389"/>
      <point x="34" y="1414" type="curve"/>
      <point x="63" y="1518"/>
      <point x="203" y="1547"/>
      <point x="309" y="1569" type="curve"/>
      <point x="343" y="1634" type="line"/>
      <point x="393" y="1508"/>
      <point x="655" y="1513"/>
      <point x="671" y="1664" type="curve" smooth="yes"/>
      <point x="681" y="1769"/>
      <point x="628" y="1930"/>
      <point x="553" y="1930" type="curve" smooth="yes"/>
      <point x="477" y="1930"/>
      <point x="440" y="1809"/>
      <point x="440" y="1730" type="curve" smooth="yes"/>
      <point x="440" y="1615"/>
      <point x="580" y="1642"/>
      <point x="635" y="1674" type="curve"/>
      <point x="634" y="1634" type="line"/>
      <point x="557" y="1590"/>
      <point x="415" y="1585"/>
      <point x="372" y="1685" type="curve" smooth="yes"/>
      <point x="359" y="1715"/>
      <point x="353" y="1753"/>
      <point x="337" y="2094" type="curve"/>
      <point x="329" y="2101" type="line"/>
      <point x="282" y="2063" type="line"/>
      <point x="308" y="1625" type="line"/>
      <point x="184" y="1598"/>
      <point x="41" y="1573"/>
      <point x="2" y="1411" type="curve" smooth="yes"/>
      <point x="-10" y="1360"/>
      <point x="35" y="1345"/>
      <point x="86" y="1339" type="curve" smooth="yes"/>
      <point x="158" y="1330"/>
      <point x="261" y="1335"/>
      <point x="341" y="1338" type="curve" smooth="yes"/>
    </contour>
    <contour>
      <point x="628" y="1715"/>
      <point x="527" y="1690"/>
      <point x="473" y="1722" type="curve"/>
      <point x="473" y="1788"/>
      <point x="497" y="1863"/>
      <point x="540" y="1863" type="curve" smooth="yes"/>
      <point x="578" y="1863"/>
      <point x="613" y="1776"/>
      <point x="627" y="1718" type="curve"/>
    </contour>
    <contour>
      <point x="411" y="2250" type="move" name="top"/>
    </contour>
    <contour>
      <point x="411" y="1334" type="move" name="_top"/>
    </contour>
  </outline>
</glyph>
<glyph name="endofayah-ar" format="1">
  <advance width="2561"/>
  <unicode hex="06DD"/>
  <outline>
    <contour>
      <point x="1182" y="1480" type="curve" smooth="yes"/>
      <point x="1182" y="1420"/>
      <point x="1228" y="1374"/>
      <point x="1289" y="1374" type="curve" smooth="yes"/>
      <point x="1350" y="1374"/>
      <point x="1399" y="1420"/>
      <point x="1399" y="1480" type="curve" smooth="yes"/>
      <point x="1399" y="1542"/>
      <point x="1350" y="1591"/>
      <point x="1289" y="1591" type="curve" smooth="yes"/>
      <point x="1228" y="1591"/>
      <point x="1182" y="1542"/>
    </contour>
    <contour>
      <point x="1173" y="-462" type="curve" smooth="yes"/>
      <point x="1173" y="-522"/>
      <point x="1219" y="-568"/>
      <point x="1280" y="-568" type="curve" smooth="yes"/>
      <point x="1341" y="-568"/>
      <point x="1390" y="-522"/>
      <point x="1390" y="-462" type="curve" smooth="yes"/>
      <point x="1390" y="-400"/>
      <point x="1341" y="-351"/>
      <point x="1280" y="-351" type="curve" smooth="yes"/>
      <point x="1219" y="-351"/>
      <point x="1173" y="-400"/>
    </contour>
    <contour>
      <point x="100" y="516" type="curve" smooth="yes"/>
      <point x="100" y="1139"/>
      <point x="584" y="1650"/>
      <point x="1197" y="1693" type="curve"/>
      <point x="1197" y="1887" type="line"/>
      <point x="1365" y="1887" type="line"/>
      <point x="1365" y="1692" type="line"/>
      <point x="1977" y="1649"/>
      <point x="2461" y="1138"/>
      <point x="2461" y="516" type="curve" smooth="yes"/>
      <point x="2461" y="-107"/>
      <point x="1977" y="-618"/>
      <point x="1365" y="-661" type="curve"/>
      <point x="1365" y="-872" type="line"/>
      <point x="1197" y="-872" type="line"/>
      <point x="1197" y="-662" type="line"/>
      <point x="584" y="-619"/>
      <point x="100" y="-108"/>
    </contour>
    <contour>
      <point x="222" y="516" type="curve" smooth="yes"/>
      <point x="222" y="197"/>
      <point x="363" y="-88"/>
      <point x="586" y="-281" type="curve"/>
      <point x="662" y="-215" type="line"/>
      <point x="783" y="-315"/>
      <point x="991" y="-466"/>
      <point x="1285" y="-229" type="curve"/>
      <point x="1572" y="-462"/>
      <point x="1776" y="-310"/>
      <point x="1896" y="-209" type="curve"/>
      <point x="1962" y="-287" type="line"/>
      <point x="2189" y="-93"/>
      <point x="2333" y="194"/>
      <point x="2333" y="516" type="curve" smooth="yes"/>
      <point x="2333" y="835"/>
      <point x="2190" y="1123"/>
      <point x="1965" y="1316" type="curve"/>
      <point x="1896" y="1235" type="line"/>
      <point x="1779" y="1333"/>
      <point x="1580" y="1483"/>
      <point x="1285" y="1241" type="curve"/>
      <point x="988" y="1491"/>
      <point x="783" y="1341"/>
      <point x="662" y="1241" type="curve"/>
      <point x="583" y="1310" type="line"/>
      <point x="362" y="1116"/>
      <point x="222" y="832"/>
    </contour>
  </outline>
</glyph>
<glyph name="dalVinvertedabove-ar" format="1">
  <advance width="600"/>
  <unicode hex="06EE"/>
  <outline>
    <contour>
      <point x="420" y="-49"/>
      <point x="654" y="-8"/>
      <point x="729" y="46" type="curve" smooth="yes"/>
      <point x="775" y="79"/>
      <point x="794" y="134"/>
      <point x="794" y="199" type="curve" smooth="yes"/>
      <point x="793" y="374"/>
      <point x="730" y="481"/>
      <point x="492" y="848" type="curve" smooth="yes"/>
      <point x="487" y="856"/>
      <point x="477" y="856"/>
      <point x="474" y="852" type="curve" smooth="yes"/>
      <point x="474" y="851"/>
      <point x="473" y="851"/>
      <point x="473" y="850" type="curve" smooth="yes"/>
      <point x="393" y="727" type="line" smooth="yes"/>
      <point x="389" y="720"/>
      <point x="389" y="713"/>
      <point x="394" y="705" type="curve" smooth="yes"/>
      <point x="649" y="351"/>
      <point x="680" y="253"/>
      <point x="692" y="187" type="curve"/>
      <point x="563" y="142"/>
      <point x="395" y="108"/>
      <point x="243" y="126" type="curve" smooth="yes"/>
      <point x="176" y="134"/>
      <point x="169" y="159"/>
      <point x="164" y="268" type="curve" smooth="yes"/>
      <point x="163" y="278"/>
      <point x="157" y="283"/>
      <point x="148" y="283" type="curve" smooth="yes"/>
      <point x="81" y="283" type="line" smooth="yes"/>
      <point x="72" y="283"/>
      <point x="67" y="278"/>
      <point x="66" y="269" type="curve" smooth="yes"/>
      <point x="52" y="104"/>
      <point x="47" y="-49"/>
      <point x="300" y="-49" type="curve" smooth="yes"/>
    </contour>
    <contour>
      <point x="369" y="1451"/>
      <point x="363" y="1447"/>
      <point x="361" y="1438" type="curve" smooth="yes"/>
      <point x="323" y="1302"/>
      <point x="290" y="1205"/>
      <point x="246" y="1072" type="curve" smooth="yes"/>
      <point x="243" y="1062"/>
      <point x="245" y="1055"/>
      <point x="255" y="1052" type="curve" smooth="yes"/>
      <point x="339" y="1030"/>
      <point x="331" y="1026"/>
      <point x="360" y="1112" type="curve"/>
      <point x="415" y="1299" type="line"/>
      <point x="423" y="1333"/>
      <point x="433" y="1338"/>
      <point x="453" y="1304" type="curve" smooth="yes"/>
      <point x="596" y="1061" type="line" smooth="yes"/>
      <point x="602" y="1050"/>
      <point x="611" y="1051"/>
      <point x="618" y="1059" type="curve" smooth="yes"/>
      <point x="643" y="1090" type="line" smooth="yes"/>
      <point x="648" y="1096"/>
      <point x="649" y="1102"/>
      <point x="644" y="1111" type="curve" smooth="yes"/>
      <point x="453" y="1433" type="line" smooth="yes"/>
      <point x="449" y="1440"/>
      <point x="444" y="1442"/>
      <point x="436" y="1443" type="curve" smooth="yes"/>
      <point x="378" y="1450" type="line" smooth="yes"/>
    </contour>
  </outline>
</glyph>
<glyph name="four-persian" format="1">
  <advance width="1029"/>
  <unicode hex="06F4"/>
  <outline>
    <contour>
      <point x="816" y="1029" type="line"/>
      <point x="684" y="1048"/>
      <point x="571" y="1064"/>
      <point x="451" y="1017" type="curve"/>
      <point x="542" y="749" type="line"/>
      <point x="635" y="742"/>
      <point x="795" y="760"/>
      <point x="929" y="790" type="curve"/>
      <point x="898" y="638" type="line"/>
      <point x="835" y="616"/>
      <point x="681" y="582"/>
      <point x="541" y="584" type="curve" smooth="yes"/>
      <point x="476" y="585"/>
      <point x="414" y="596"/>
      <point x="366" y="616" type="curve"/>
      <point x="389" y="440"/>
      <point x="394" y="257"/>
      <point x="396" y="0" type="curve"/>
      <point x="300" y="-23" type="line"/>
      <point x="296" y="218"/>
      <point x="291" y="600"/>
      <point x="100" y="950" type="curve"/>
      <point x="218" y="1093" type="line"/>
      <point x="275" y="983"/>
      <point x="321" y="759"/>
      <point x="408" y="754" type="curve"/>
      <point x="345" y="891"/>
      <point x="346" y="1009"/>
      <point x="391" y="1086" type="curve" smooth="yes"/>
      <point x="464" y="1212"/>
      <point x="685" y="1204"/>
      <point x="798" y="1160" type="curve"/>
    </contour>
  </outline>
</glyph>
<glyph name="five-persian" format="1">
  <advance width="903"/>
  <unicode hex="06F5"/>
  <outline>
    <contour>
      <point x="355" y="1150" type="line"/>
      <point x="621" y="829"/>
      <point x="818" y="601"/>
      <point x="802" y="348" type="curve" smooth="yes"/>
      <point x="794" y="214"/>
      <point x="694" y="65"/>
      <point x="572" y="63" type="curve" smooth="yes"/>
      <point x="513" y="62"/>
      <point x="444" y="85"/>
      <point x="415" y="190" type="curve"/>
      <point x="371" y="105"/>
      <point x="310" y="68"/>
      <point x="252" y="69" type="curve" smooth="yes"/>
      <point x="166" y="71"/>
      <point x="100" y="142"/>
      <point x="100" y="289" type="curve" smooth="yes"/>
      <point x="100" y="535"/>
      <point x="252" y="758"/>
      <point x="350" y="890" type="curve"/>
      <point x="267" y="983" type="line"/>
    </contour>
    <contour>
      <point x="475" y="386" type="line"/>
      <point x="473" y="259"/>
      <point x="539" y="234"/>
      <point x="590" y="235" type="curve" smooth="yes"/>
      <point x="636" y="235"/>
      <point x="704" y="271"/>
      <point x="730" y="338" type="curve"/>
      <point x="701" y="455"/>
      <point x="540" y="678"/>
      <point x="415" y="818" type="curve"/>
      <point x="342" y="742"/>
      <point x="176" y="498"/>
      <point x="176" y="346" type="curve" smooth="yes"/>
      <point x="176" y="271"/>
      <point x="230" y="232"/>
      <point x="286" y="232" type="curve" smooth="yes"/>
      <point x="334" y="232"/>
      <point x="376" y="279"/>
      <point x="384" y="355" type="curve"/>
    </contour>
  </outline>
</glyph>
<glyph name="six-persian" format="1">
  <advance width="1015"/>
  <unicode hex="06F6"/>
  <outline>
    <contour>
      <point x="631" y="1021" type="line"/>
      <point x="443" y="1059"/>
      <point x="281" y="993"/>
      <point x="221" y="861" type="curve"/>
      <point x="255" y="786"/>
      <point x="402" y="660"/>
      <point x="544" y="601" type="curve"/>
      <point x="604" y="663"/>
      <point x="751" y="852"/>
      <point x="914" y="981" type="curve"/>
      <point x="933" y="802" type="line"/>
      <point x="577" y="506"/>
      <point x="400" y="194"/>
      <point x="253" y="-38" type="curve"/>
      <point x="173" y="50" type="line"/>
      <point x="242" y="178"/>
      <point x="334" y="339"/>
      <point x="435" y="489" type="curve"/>
      <point x="293" y="538"/>
      <point x="110" y="666"/>
      <point x="124" y="829" type="curve" smooth="yes"/>
      <point x="143" y="1059"/>
      <point x="333" y="1244"/>
      <point x="638" y="1140" type="curve"/>
    </contour>
  </outline>
</glyph>
<glyph name="hyphentwo" format="1">
  <advance width="600"/>
  <unicode hex="2010"/>
  <outline>
    <contour>
      <point x="17" y="537" type="line" smooth="yes"/>
      <point x="17" y="528"/>
      <point x="23" y="522"/>
      <point x="32" y="522" type="curve" smooth="yes"/>
      <point x="567" y="522" type="line" smooth="yes"/>
      <point x="576" y="522"/>
      <point x="582" y="528"/>
      <point x="582" y="537" type="curve" smooth="yes"/>
      <point x="582" y="637" type="line" smooth="yes"/>
      <point x="582" y="646"/>
      <point x="576" y="652"/>
      <point x="567" y="652" type="curve" smooth="yes"/>
      <point x="32" y="652" type="line" smooth="yes"/>
      <point x="23" y="652"/>
      <point x="17" y="646"/>
      <point x="17" y="637" type="curve" smooth="yes"/>
    </contour>
  </outline>
</glyph>
<glyph name="bullet" format="1">
  <advance width="600"/>
  <unicode hex="2022"/>
  <outline>
    <contour>
      <point x="483" y="284"/>
      <point x="629" y="430"/>
      <point x="629" y="611" type="curve" smooth="yes"/>
      <point x="629" y="791"/>
      <point x="483" y="937"/>
      <point x="303" y="937" type="curve" smooth="yes"/>
      <point x="123" y="937"/>
      <point x="-23" y="791"/>
      <point x="-23" y="611" type="curve" smooth="yes"/>
      <point x="-23" y="430"/>
      <point x="123" y="284"/>
      <point x="303" y="284" type="curve" smooth="yes"/>
    </contour>
  </outline>
</glyph>
<glyph name="minus" format="1">
  <advance width="1054"/>
  <unicode hex="2212"/>
  <outline>
    <contour>
      <point x="974" y="430" type="line"/>
      <point x="974" y="571" type="line"/>
      <point x="80" y="571" type="line"/>
      <point x="80" y="430" type="line"/>
    </contour>
  </outline>
</glyph>
<glyph name="dottedCircle" format="1">
  <advance width="600"/>
  <unicode hex="25CC"/>
  <outline>
    <contour>
      <point x="340" y="1071"/>
      <point x="353" y="1094"/>
      <point x="353" y="1122" type="curve" smooth="yes"/>
      <point x="353" y="1149"/>
      <point x="340" y="1172"/>
      <point x="301" y="1172" type="curve" smooth="yes"/>
      <point x="262" y="1172"/>
      <point x="249" y="1149"/>
      <point x="249" y="1122" type="curve" smooth="yes"/>
      <point x="249" y="1094"/>
      <point x="262" y="1071"/>
      <point x="301" y="1071" type="curve" smooth="yes"/>
    </contour>
  </outline>
</glyph>
<glyph name="alefWasla-ar.fina" format="1">
  <advance width="600"/>
  <unicode hex="FB51"/>
  <outline>
    <contour>
      <point x="600" y="0" type="line"/>
      <point x="642" y="52"/>
      <point x="642" y="104"/>
      <point x="600" y="156" type="curve"/>
      <point x="527" y="156" type="line" smooth="yes"/>
      <point x="480" y="156"/>
      <point x="385" y="174"/>
      <point x="324" y="211" type="curve" smooth="yes"/>
      <point x="317" y="215"/>
      <point x="314" y="220"/>
      <point x="314" y="229" type="curve" smooth="yes"/>
      <point x="297" y="1162" type="line" smooth="yes"/>
      <point x="297" y="1174"/>
      <point x="290" y="1179"/>
      <point x="279" y="1172" type="curve" smooth="yes"/>
      <point x="165" y="1100" type="line" smooth="yes"/>
      <point x="158" y="1095"/>
      <point x="155" y="1091"/>
      <point x="156" y="1082" type="curve" smooth="yes"/>
      <point x="202" y="342" type="line" smooth="yes"/>
      <point x="217" y="107"/>
      <point x="273" y="0"/>
      <point x="485" y="0" type="curve" smooth="yes"/>
    </contour>
    <contour>
      <point x="417" y="1505"/>
      <point x="349" y="1461"/>
      <point x="244" y="1335" type="curve"/>
      <point x="192" y="1356"/>
      <point x="153" y="1396"/>
      <point x="131" y="1397" type="curve" smooth="yes"/>
      <point x="103" y="1398"/>
      <point x="71" y="1367"/>
      <point x="11" y="1298" type="curve" smooth="yes"/>
      <point x="8" y="1295"/>
      <point x="9" y="1293"/>
      <point x="11" y="1291" type="curve" smooth="yes"/>
      <point x="27" y="1278" type="line" smooth="yes"/>
      <point x="29" y="1276"/>
      <point x="32" y="1276"/>
      <point x="35" y="1279" type="curve" smooth="yes"/>
      <point x="93" y="1341"/>
      <point x="105" y="1346"/>
      <point x="110" y="1346" type="curve" smooth="yes"/>
      <point x="136" y="1346"/>
      <point x="203" y="1264"/>
      <point x="351" y="1264" type="curve" smooth="yes"/>
      <point x="452" y="1264"/>
      <point x="527" y="1285"/>
      <point x="577" y="1330" type="curve" smooth="yes"/>
      <point x="641" y="1386"/>
      <point x="567" y="1504"/>
      <point x="469" y="1504" type="curve" smooth="yes"/>
    </contour>
    <contour>
      <point x="496" y="1327"/>
      <point x="401" y="1300"/>
      <point x="279" y="1323" type="curve"/>
      <point x="278" y="1324"/>
      <point x="276" y="1324"/>
      <point x="274" y="1324" type="curve"/>
      <point x="352" y="1419"/>
      <point x="400" y="1458"/>
      <point x="448" y="1458" type="curve" smooth="yes"/>
      <point x="519" y="1458"/>
      <point x="563" y="1386"/>
      <point x="570" y="1369" type="curve"/>
    </contour>
  </outline>
</glyph>
<glyph name="peh-ar.init" format="1">
  <advance width="700"/>
  <unicode hex="FB58"/>
  <outline>
    <contour>
      <point x="81" y="0" type="line" smooth="yes"/>
      <point x="261" y="0"/>
      <point x="522" y="79"/>
      <point x="547" y="182" type="curve"/>
      <point x="567" y="242"/>
      <point x="579" y="314"/>
      <point x="579" y="368" type="curve" smooth="yes"/>
      <point x="579" y="448"/>
      <point x="518" y="695"/>
      <point x="482" y="848" type="curve" smooth="yes"/>
      <point x="479" y="859"/>
      <point x="470" y="860"/>
      <point x="462" y="852" type="curve" smooth="yes"/>
      <point x="372" y="761" type="line" smooth="yes"/>
      <point x="367" y="755"/>
      <point x="365" y="749"/>
      <point x="367" y="741" type="curve" smooth="yes"/>
      <point x="495" y="277" type="line" smooth="yes"/>
      <point x="502" y="252"/>
      <point x="490" y="245"/>
      <point x="474" y="236" type="curve"/>
      <point x="402" y="205"/>
      <point x="271" y="156"/>
      <point x="81" y="156" type="curve" smooth="yes"/>
      <point x="1" y="156" type="line" smooth="yes"/>
      <point x="-102" y="156"/>
      <point x="-102" y="0"/>
      <point x="1" y="0" type="curve" smooth="yes"/>
    </contour>
    <component base="threedotsdownbelow-ar" xOffset="23" yOffset="-21"/>
    <contour>
      <point x="474" y="1008" type="move" name="top"/>
    </contour>
  </outline>
</glyph>
<glyph name="dul-ar.fina" format="1">
  <advance width="1141"/>
  <unicode hex="FB87"/>
  <outline>
    <component base="dal-ar.fina"/>
    <component base="threedotsupabove-ar" xOffset="538" yOffset="467"/>
    <contour>
      <point x="447" y="-200" type="move" name="bottom"/>
    </contour>
  </outline>
</glyph>
<glyph name="keheh-ar.fina" format="1">
  <advance width="1591"/>
  <unicode hex="FB8F"/>
  <outline>
    <contour>
      <point x="1263" y="76" type="curve" smooth="yes"/>
      <point x="1123" y="18"/>
      <point x="840" y="-33"/>
      <point x="568" y="-26" type="curve" smooth="yes"/>
      <point x="251" y="-17"/>
      <point x="110" y="102"/>
      <point x="144" y="405" type="curve" smooth="yes"/>
      <point x="160" y="550" type="line"/>
      <point x="245" y="543" type="line"/>
      <point x="232" y="405" type="line" smooth="yes"/>
      <point x="213" y="204"/>
      <point x="406" y="139"/>
      <point x="641" y="135" type="curve" smooth="yes"/>
      <point x="929" y="130"/>
      <point x="1160" y="186"/>
      <point x="1275" y="228" type="curve"/>
      <point x="1230" y="342"/>
      <point x="1110" y="582"/>
      <point x="761" y="766" type="curve"/>
      <point x="876" y="1007" type="line"/>
      <point x="1461" y="1126" type="line"/>
      <point x="1440" y="968" type="line"/>
      <point x="873" y="867" type="line"/>
      <point x="1179" y="684"/>
      <point x="1258" y="521"/>
      <point x="1373" y="298" type="curve" smooth="yes"/>
      <point x="1428" y="191"/>
      <point x="1479" y="156"/>
      <point x="1591" y="156" type="curve" smooth="yes"/>
      <point x="1603" y="156"/>
      <point x="1609" y="150"/>
      <point x="1609" y="138" type="curve" smooth="yes"/>
      <point x="1609" y="18" type="line" smooth="yes"/>
      <point x="1609" y="6"/>
      <point x="1603" y="0"/>
      <point x="1591" y="0" type="curve" smooth="yes"/>
      <point x="1522" y="0"/>
      <point x="1432" y="32"/>
      <point x="1335" y="183" type="curve"/>
      <point x="1292" y="98"/>
      <point x="1280" y="83"/>
    </contour>
  </outline>
</glyph>
<glyph name="gaf-ar.fina" format="1">
  <advance width="1552"/>
  <unicode hex="FB93"/>
  <outline>
    <contour>
      <point x="862" y="1073" type="line"/>
      <point x="908" y="1179" type="line"/>
      <point x="1296" y="1260" type="line"/>
      <point x="1269" y="1161" type="line"/>
    </contour>
    <component base="keheh-ar.fina"/>
  </outline>
</glyph>
<glyph name="gaf-ar.init" format="1">
  <advance width="772"/>
  <unicode hex="FB94"/>
  <outline>
    <contour>
      <point x="137" y="1100" type="line"/>
      <point x="183" y="1206" type="line"/>
      <point x="591" y="1287" type="line"/>
      <point x="564" y="1188" type="line"/>
    </contour>
    <contour>
      <point x="-78" y="120"/>
      <point x="-44" y="156"/>
      <point x="0" y="156" type="curve" smooth="yes"/>
      <point x="180" y="156"/>
      <point x="350" y="167"/>
      <point x="502" y="246" type="curve"/>
      <point x="466" y="380"/>
      <point x="321" y="587"/>
      <point x="-28" y="771" type="curve"/>
      <point x="87" y="1012" type="line"/>
      <point x="692" y="1131" type="line"/>
      <point x="671" y="973" type="line"/>
      <point x="84" y="872" type="line"/>
      <point x="257" y="792"/>
      <point x="537" y="578"/>
      <point x="573" y="328" type="curve" smooth="yes"/>
      <point x="580" y="276"/>
      <point x="548" y="186"/>
      <point x="516" y="118" type="curve"/>
      <point x="394" y="34"/>
      <point x="180" y="0"/>
      <point x="0" y="0" type="curve" smooth="yes"/>
      <point x="-44" y="0"/>
      <point x="-78" y="36"/>
      <point x="-78" y="78" type="curve" smooth="yes"/>
    </contour>
  </outline>
</glyph>
<glyph name="gaf-ar.medi" format="1">
  <advance width="831"/>
  <unicode hex="FB95"/>
  <outline>
    <contour>
      <point x="350" y="646"/>
      <point x="470" y="346"/>
      <point x="515" y="232" type="curve"/>
      <point x="387" y="174"/>
      <point x="189" y="160"/>
      <point x="0" y="156" type="curve" smooth="yes"/>
      <point x="-103" y="156"/>
      <point x="-103" y="0"/>
      <point x="0" y="0" type="curve" smooth="yes"/>
      <point x="179" y="0"/>
      <point x="378" y="38"/>
      <point x="498" y="88" type="curve" smooth="yes"/>
      <point x="515" y="95"/>
      <point x="531" y="103"/>
      <point x="575" y="187" type="curve"/>
      <point x="672" y="36"/>
      <point x="762" y="0"/>
      <point x="831" y="0" type="curve" smooth="yes"/>
      <point x="843" y="0"/>
      <point x="849" y="6"/>
      <point x="849" y="18" type="curve" smooth="yes"/>
      <point x="849" y="138" type="line" smooth="yes"/>
      <point x="849" y="150"/>
      <point x="843" y="156"/>
      <point x="831" y="156" type="curve" smooth="yes"/>
      <point x="719" y="156"/>
      <point x="668" y="195"/>
      <point x="613" y="302" type="curve" smooth="yes"/>
      <point x="498" y="525"/>
      <point x="420" y="749"/>
      <point x="114" y="932" type="curve"/>
      <point x="721" y="1123" type="line"/>
      <point x="742" y="1281" type="line"/>
      <point x="117" y="1072" type="line"/>
      <point x="1" y="830" type="line"/>
    </contour>
  </outline>
</glyph>
<glyph name="noonghunna-ar.fina" format="1">
  <advance width="1339"/>
  <unicode hex="FB9F"/>
  <outline>
    <contour>
      <point x="245" y="213" type="line"/>
      <point x="215" y="53" type="line" smooth="yes"/>
      <point x="170" y="-188"/>
      <point x="292" y="-287"/>
      <point x="488" y="-287" type="curve" smooth="yes"/>
      <point x="750" y="-287"/>
      <point x="1007" y="-199"/>
      <point x="1007" y="-199" type="curve"/>
      <point x="917" y="389" type="line"/>
      <point x="1047" y="471" type="line"/>
      <point x="1047" y="471"/>
      <point x="1066" y="341"/>
      <point x="1084" y="197" type="curve"/>
      <point x="1153" y="166"/>
      <point x="1269" y="156"/>
      <point x="1339" y="156" type="curve" smooth="yes"/>
      <point x="1351" y="156"/>
      <point x="1357" y="150"/>
      <point x="1357" y="138" type="curve" smooth="yes"/>
      <point x="1357" y="18" type="line" smooth="yes"/>
      <point x="1357" y="6"/>
      <point x="1351" y="0"/>
      <point x="1339" y="0" type="curve" smooth="yes"/>
      <point x="1192" y="0"/>
      <point x="1145" y="14"/>
      <point x="1101" y="44" type="curve"/>
      <point x="1108" y="-25"/>
      <point x="1112" y="-89"/>
      <point x="1112" y="-131" type="curve"/>
      <point x="1106" y="-376"/>
      <point x="704" y="-462"/>
      <point x="464" y="-462" type="curve" smooth="yes"/>
      <point x="144" y="-462"/>
      <point x="63" y="-221"/>
      <point x="114" y="33" type="curve" smooth="yes"/>
      <point x="154" y="233" type="line"/>
    </contour>
  </outline>
</glyph>
<glyph name="hehgoal-ar.fina" format="1">
  <advance width="1012"/>
  <unicode hex="FBA7"/>
  <outline>
    <contour>
      <point x="132" y="-80"/>
      <point x="140" y="-79"/>
      <point x="147" y="-71" type="curve" smooth="yes"/>
      <point x="396" y="205"/>
      <point x="439" y="222"/>
      <point x="455" y="222" type="curve" smooth="yes"/>
      <point x="531" y="222"/>
      <point x="718" y="0"/>
      <point x="924" y="0" type="curve" smooth="yes"/>
      <point x="1012" y="0" type="line"/>
      <point x="1054" y="52"/>
      <point x="1054" y="104"/>
      <point x="1012" y="156" type="curve"/>
      <point x="972" y="156" type="line" smooth="yes"/>
      <point x="865" y="156"/>
      <point x="787" y="200"/>
      <point x="717" y="246" type="curve" smooth="yes"/>
      <point x="638" y="298"/>
      <point x="568" y="354"/>
      <point x="511" y="356" type="curve" smooth="yes"/>
      <point x="422" y="359"/>
      <point x="318" y="243"/>
      <point x="90" y="-24" type="curve" smooth="yes"/>
      <point x="84" y="-32"/>
      <point x="83" y="-39"/>
      <point x="91" y="-46" type="curve" smooth="yes"/>
      <point x="125" y="-74" type="line" smooth="yes"/>
    </contour>
    <contour>
      <point x="511" y="506" type="move" name="top"/>
    </contour>
    <contour>
      <point x="464" y="-154" type="move" name="bottom"/>
    </contour>
  </outline>
</glyph>
<glyph name="hehgoal-ar.init" format="1">
  <advance width="620"/>
  <unicode hex="FBA8"/>
  <outline>
    <contour>
      <point x="342" y="1"/>
      <point x="529" y="91"/>
      <point x="529" y="338" type="curve" smooth="yes"/>
      <point x="529" y="418"/>
      <point x="468" y="665"/>
      <point x="432" y="818" type="curve"/>
      <point x="429" y="829"/>
      <point x="420" y="830"/>
      <point x="412" y="822" type="curve" smooth="yes"/>
      <point x="322" y="731" type="line"/>
      <point x="317" y="725"/>
      <point x="315" y="719"/>
      <point x="317" y="711" type="curve" smooth="yes"/>
      <point x="428" y="244" type="line" smooth="yes"/>
      <point x="430" y="235"/>
      <point x="428" y="229"/>
      <point x="419" y="225" type="curve" smooth="yes"/>
      <point x="316" y="179"/>
      <point x="209" y="156"/>
      <point x="0" y="156" type="curve" smooth="yes"/>
      <point x="-103" y="156"/>
      <point x="-103" y="0"/>
      <point x="0" y="0" type="curve" smooth="yes"/>
    </contour>
    <contour>
      <point x="269" y="-437" type="line" smooth="yes"/>
      <point x="274" y="-428"/>
      <point x="272" y="-420"/>
      <point x="262" y="-417" type="curve" smooth="yes"/>
      <point x="169" y="-386"/>
      <point x="126" y="-343"/>
      <point x="207" y="-189" type="curve" smooth="yes"/>
      <point x="269" y="-72" type="line" smooth="yes"/>
      <point x="274" y="-63"/>
      <point x="270" y="-56"/>
      <point x="261" y="-52" type="curve" smooth="yes"/>
      <point x="218" y="-34" type="line" smooth="yes"/>
      <point x="210" y="-30"/>
      <point x="202" y="-33"/>
      <point x="198" y="-41" type="curve" smooth="yes"/>
      <point x="140" y="-153" type="line"/>
      <point x="61" y="-279"/>
      <point x="-28" y="-492"/>
      <point x="173" y="-568" type="curve" smooth="yes"/>
      <point x="182" y="-572"/>
      <point x="188" y="-568"/>
      <point x="193" y="-561" type="curve" smooth="yes"/>
    </contour>
  </outline>
</glyph>
<glyph name="hehgoal-ar.medi" format="1">
  <advance width="600"/>
  <unicode hex="FBA9"/>
  <outline>
    <contour>
      <point x="248" y="513" type="line" smooth="yes"/>
      <point x="239" y="512"/>
      <point x="234" y="507"/>
      <point x="233" y="498" type="curve" smooth="yes"/>
      <point x="215" y="340" type="line" smooth="yes"/>
      <point x="197" y="184"/>
      <point x="-22" y="186"/>
      <point x="-136" y="186" type="curve" smooth="yes"/>
      <point x="-180" y="186" type="line" smooth="yes"/>
      <point x="-283" y="186"/>
      <point x="-283" y="30"/>
      <point x="-180" y="30" type="curve" smooth="yes"/>
      <point x="-142" y="30" type="line" smooth="yes"/>
      <point x="-34" y="30"/>
      <point x="102" y="43"/>
      <point x="203" y="134" type="curve"/>
      <point x="174" y="-165"/>
      <point x="362" y="-422"/>
      <point x="437" y="-540" type="curve" smooth="yes"/>
      <point x="443" y="-550"/>
      <point x="451" y="-551"/>
      <point x="458" y="-541" type="curve" smooth="yes"/>
      <point x="585" y="-376" type="line" smooth="yes"/>
      <point x="590" y="-370"/>
      <point x="591" y="-363"/>
      <point x="588" y="-356" type="curve" smooth="yes"/>
      <point x="472" y="-56" type="line" smooth="yes"/>
      <point x="469" y="-47"/>
      <point x="472" y="-41"/>
      <point x="481" y="-37" type="curve" smooth="yes"/>
      <point x="584" y="9"/>
      <point x="691" y="32"/>
      <point x="900" y="32" type="curve" smooth="yes"/>
      <point x="1003" y="32"/>
      <point x="1003" y="188"/>
      <point x="900" y="188" type="curve" smooth="yes"/>
      <point x="514" y="187"/>
      <point x="335" y="72"/>
      <point x="421" y="-271" type="curve"/>
      <point x="346" y="-84"/>
      <point x="298" y="29"/>
      <point x="303" y="243" type="curve"/>
      <point x="321" y="505" type="line" smooth="yes"/>
      <point x="322" y="516"/>
      <point x="315" y="521"/>
      <point x="305" y="520" type="curve" smooth="yes"/>
    </contour>
  </outline>
</glyph>
<glyph name="hehDoachashmee-ar.fina" format="1">
  <advance width="1343"/>
  <unicode hex="FBAB"/>
  <outline>
    <contour>
      <point x="259" y="307"/>
      <point x="230" y="426"/>
      <point x="309" y="561" type="curve" smooth="yes"/>
      <point x="401" y="722"/>
      <point x="568" y="679"/>
      <point x="635" y="581" type="curve"/>
      <point x="469" y="280" type="line"/>
    </contour>
    <contour>
      <point x="607" y="290" type="line"/>
      <point x="721" y="625" type="line"/>
      <point x="821" y="530"/>
      <point x="934" y="360"/>
      <point x="925" y="199" type="curve"/>
    </contour>
    <contour>
      <point x="1008" y="26"/>
      <point x="1121" y="0"/>
      <point x="1343" y="0" type="curve"/>
      <point x="1385" y="52"/>
      <point x="1385" y="104"/>
      <point x="1343" y="156" type="curve"/>
      <point x="1251" y="156"/>
      <point x="1027" y="154"/>
      <point x="988" y="165" type="curve"/>
      <point x="1053" y="440"/>
      <point x="999" y="598"/>
      <point x="587" y="956" type="curve"/>
      <point x="501" y="817" type="line"/>
      <point x="348" y="764"/>
      <point x="187" y="524"/>
      <point x="185" y="358" type="curve" smooth="yes"/>
      <point x="183" y="227"/>
      <point x="246" y="186"/>
      <point x="338" y="152" type="curve"/>
      <point x="140" y="-84" type="line"/>
      <point x="266" y="-129"/>
      <point x="308" y="-101"/>
      <point x="385" y="5" type="curve" smooth="yes"/>
      <point x="495" y="164" type="line"/>
    </contour>
  </outline>
</glyph>
<glyph name="hehDoachashmee-ar.medi" format="1">
  <advance width="1322"/>
  <unicode hex="FBAD"/>
  <outline>
    <contour>
      <point x="40" y="0" type="line" smooth="yes"/>
      <point x="195" y="0"/>
      <point x="359" y="78"/>
      <point x="465" y="156" type="curve" smooth="yes"/>
      <point x="471" y="161"/>
      <point x="477" y="162"/>
      <point x="486" y="160" type="curve" smooth="yes"/>
      <point x="997" y="23"/>
      <point x="1101" y="0"/>
      <point x="1322" y="0" type="curve"/>
      <point x="1364" y="52"/>
      <point x="1364" y="104"/>
      <point x="1322" y="156" type="curve"/>
      <point x="1239" y="156"/>
      <point x="1049" y="163"/>
      <point x="983" y="165" type="curve" smooth="yes"/>
      <point x="973" y="165"/>
      <point x="968" y="171"/>
      <point x="971" y="181" type="curve" smooth="yes"/>
      <point x="1029" y="443"/>
      <point x="971" y="602"/>
      <point x="579" y="945" type="curve" smooth="yes"/>
      <point x="571" y="952"/>
      <point x="562" y="951"/>
      <point x="557" y="942" type="curve" smooth="yes"/>
      <point x="485" y="826" type="line" smooth="yes"/>
      <point x="481" y="819"/>
      <point x="477" y="816"/>
      <point x="470" y="813" type="curve" smooth="yes"/>
      <point x="320" y="754"/>
      <point x="166" y="520"/>
      <point x="164" y="358" type="curve" smooth="yes"/>
      <point x="163" y="296"/>
      <point x="178" y="238"/>
      <point x="215" y="193" type="curve" smooth="yes"/>
      <point x="222" y="184"/>
      <point x="220" y="175"/>
      <point x="209" y="173" type="curve" smooth="yes"/>
      <point x="158" y="161"/>
      <point x="84" y="156"/>
      <point x="40" y="156" type="curve" smooth="yes"/>
      <point x="0" y="156" type="line" smooth="yes"/>
      <point x="-103" y="156"/>
      <point x="-103" y="0"/>
      <point x="0" y="0" type="curve" smooth="yes"/>
    </contour>
    <contour>
      <point x="237" y="312"/>
      <point x="211" y="429"/>
      <point x="288" y="561" type="curve" smooth="yes"/>
      <point x="377" y="716"/>
      <point x="536" y="682"/>
      <point x="607" y="591" type="curve" smooth="yes"/>
      <point x="612" y="584"/>
      <point x="612" y="578"/>
      <point x="608" y="570" type="curve" smooth="yes"/>
      <point x="454" y="291" type="line" smooth="yes"/>
      <point x="450" y="284"/>
      <point x="444" y="280"/>
      <point x="435" y="282" type="curve" smooth="yes"/>
    </contour>
    <contour>
      <point x="601" y="286" type="line" smooth="yes"/>
      <point x="592" y="289"/>
      <point x="588" y="295"/>
      <point x="591" y="305" type="curve" smooth="yes"/>
      <point x="694" y="606" type="line" smooth="yes"/>
      <point x="698" y="617"/>
      <point x="706" y="620"/>
      <point x="714" y="611" type="curve" smooth="yes"/>
      <point x="806" y="518"/>
      <point x="905" y="365"/>
      <point x="905" y="216" type="curve" smooth="yes"/>
      <point x="904" y="206"/>
      <point x="897" y="201"/>
      <point x="887" y="204" type="curve" smooth="yes"/>
    </contour>
    <contour>
      <point x="596" y="1099" type="move" name="top"/>
    </contour>
    <contour>
      <point x="515" y="-146" type="move" name="bottom"/>
    </contour>
  </outline>
</glyph>
<glyph name="yehbarree-ar.fina" format="1">
  <advance width="1179"/>
  <unicode hex="FBAF"/>
  <outline>
    <contour>
      <point x="867" y="39"/>
      <point x="768" y="126" type="curve" smooth="yes"/>
      <point x="714" y="175"/>
      <point x="666" y="180"/>
      <point x="581" y="71" type="curve" smooth="yes"/>
      <point x="489" y="-48"/>
      <point x="262" y="-111"/>
      <point x="231" y="-194" type="curve" smooth="yes"/>
      <point x="209" y="-254"/>
      <point x="256" y="-291"/>
      <point x="372" y="-291" type="curve" smooth="yes"/>
      <point x="1376" y="-292" type="line" smooth="yes"/>
      <point x="1494" y="-292"/>
      <point x="1469" y="-375"/>
      <point x="1471" y="-441" type="curve"/>
      <point x="328" y="-441" type="line"/>
      <point x="133" y="-441"/>
      <point x="90" y="-339"/>
      <point x="174" y="-149" type="curve" smooth="yes"/>
      <point x="228" y="-23"/>
      <point x="313" y="40"/>
      <point x="446" y="115" type="curve" smooth="yes"/>
      <point x="534" y="165"/>
      <point x="581" y="213"/>
      <point x="612" y="251" type="curve" smooth="yes"/>
      <point x="687" y="345"/>
      <point x="748" y="340"/>
      <point x="830" y="270" type="curve" smooth="yes"/>
      <point x="901" y="210"/>
      <point x="926" y="156"/>
      <point x="1098" y="156" type="curve" smooth="yes"/>
      <point x="1179" y="156" type="line"/>
      <point x="1221" y="104"/>
      <point x="1221" y="52"/>
      <point x="1179" y="0" type="curve"/>
      <point x="1071" y="0" type="line" smooth="yes"/>
      <point x="971" y="0"/>
    </contour>
    <contour>
      <point x="720" y="470" type="move" name="top"/>
    </contour>
    <contour>
      <point x="779" y="-591" type="move" name="bottom"/>
    </contour>
  </outline>
</glyph>
<glyph name="dotabove-ar" format="1">
  <advance width="0"/>
  <unicode hex="FBB2"/>
  <outline>
    <component base="dotcenter-ar" yOffset="258"/>
    <contour>
      <point x="117" y="1089" type="move" name="top"/>
    </contour>
    <contour>
      <point x="136" y="685" type="move" name="_top"/>
    </contour>
  </outline>
</glyph>
<glyph name="dotbelow-ar" format="1">
  <advance width="503"/>
  <unicode hex="FBB3"/>
  <outline>
    <contour>
      <point x="114" y="-274"/>
      <point x="114" y="-278"/>
      <point x="117" y="-281" type="curve" smooth="yes"/>
      <point x="258" y="-394" type="line" smooth="yes"/>
      <point x="260" y="-396"/>
      <point x="264" y="-396"/>
      <point x="266" y="-394" type="curve" smooth="yes"/>
      <point x="375" y="-259" type="line" smooth="yes"/>
      <point x="382" y="-250"/>
      <point x="384" y="-233"/>
      <point x="375" y="-225" type="curve" smooth="yes"/>
      <point x="247" y="-120" type="line" smooth="yes"/>
      <point x="245" y="-118"/>
      <point x="240" y="-116"/>
      <point x="237" y="-120" type="curve"/>
      <point x="117" y="-270" type="line" smooth="yes"/>
    </contour>
    <contour>
      <point x="254" y="-116" type="move" name="_bottom"/>
    </contour>
    <contour>
      <point x="257" y="-584" type="move" name="bottom"/>
    </contour>
  </outline>
</glyph>
<glyph name="twodotshorizontalabove-ar" format="1">
  <advance width="772"/>
  <unicode hex="FBB4"/>
  <outline>
    <contour>
      <point x="703" y="897" type="line"/>
      <point x="548" y="1020" type="line"/>
      <point x="418" y="881" type="line"/>
      <point x="581" y="761" type="line"/>
    </contour>
    <contour>
      <point x="377" y="886" type="line"/>
      <point x="225" y="1009" type="line"/>
      <point x="99" y="869" type="line"/>
      <point x="251" y="749" type="line"/>
    </contour>
    <contour>
      <point x="386" y="1212" type="move" name="top"/>
    </contour>
    <contour>
      <point x="395" y="655" type="move" name="_top"/>
    </contour>
  </outline>
</glyph>
<glyph name="twodotshorizontalbelow-ar" format="1">
  <advance width="772"/>
  <unicode hex="FBB5"/>
  <outline>
    <component base="twodotshorizontalabove-ar" yOffset="-1090"/>
    <contour>
      <point x="392" y="-137" type="move" name="_bottom"/>
    </contour>
    <contour>
      <point x="386" y="-648" type="move" name="bottom"/>
    </contour>
  </outline>
</glyph>
<glyph name="threedotsupabove-ar" format="1">
  <advance width="0"/>
  <unicode hex="FBB6"/>
  <outline>
    <component base="dotcenter-ar" xOffset="119" yOffset="415" xScale="0.844" yScale="0.844"/>
    <component base="dotcenter-ar" yOffset="213" xScale="0.844" yScale="0.844"/>
    <component base="dotcenter-ar" xOffset="249" yOffset="231" xScale="0.844" yScale="0.844"/>
    <contour>
      <point x="218" y="1142" type="move" name="top"/>
    </contour>
    <contour>
      <point x="227" y="575" type="move" name="_top"/>
    </contour>
  </outline>
</glyph>
<glyph name="threedotsupbelow-ar" format="1">
  <advance width="713"/>
  <unicode hex="FBB7"/>
  <outline>
    <contour>
      <point x="100" y="-374" type="line"/>
      <point x="219" y="-241" type="line"/>
      <point x="355" y="-351" type="line"/>
      <point x="465" y="-231" type="line"/>
      <point x="613" y="-347" type="line"/>
      <point x="497" y="-477" type="line"/>
      <point x="352" y="-370" type="line"/>
      <point x="244" y="-488" type="line"/>
    </contour>
    <contour>
      <point x="213" y="-181" type="line"/>
      <point x="335" y="-49" type="line"/>
      <point x="477" y="-159" type="line"/>
      <point x="355" y="-290" type="line"/>
    </contour>
  </outline>
</glyph>
<glyph name="threedotsdownabove-ar" format="1">
  <advance width="713"/>
  <unicode hex="FBB8"/>
  <outline>
    <component base="threedotsdownbelow-ar" yOffset="1085"/>
    <contour>
      <point x="374" y="1191" type="move" name="top"/>
    </contour>
    <contour>
      <point x="377" y="550" type="move" name="_top"/>
    </contour>
  </outline>
</glyph>
<glyph name="threedotsdownbelow-ar" format="1">
  <advance width="713"/>
  <unicode hex="FBB9"/>
  <outline>
    <contour>
      <point x="100" y="-258" type="line"/>
      <point x="219" y="-125" type="line"/>
      <point x="355" y="-235" type="line"/>
      <point x="465" y="-115" type="line"/>
      <point x="613" y="-231" type="line"/>
      <point x="497" y="-361" type="line"/>
      <point x="352" y="-254" type="line"/>
      <point x="244" y="-372" type="line"/>
    </contour>
    <contour>
      <point x="235" y="-426" type="line"/>
      <point x="357" y="-294" type="line"/>
      <point x="499" y="-404" type="line"/>
      <point x="377" y="-535" type="line"/>
    </contour>
  </outline>
</glyph>
<glyph name="fourdotsabove-ar" format="1">
  <advance width="560"/>
  <unicode hex="FBBA"/>
  <outline>
    <contour>
      <point x="193" y="825" type="line"/>
      <point x="271" y="921" type="line" smooth="yes"/>
      <point x="277" y="928"/>
      <point x="278" y="939"/>
      <point x="271" y="945" type="curve" smooth="yes"/>
      <point x="181" y="1018" type="line"/>
      <point x="180" y="1020"/>
      <point x="176" y="1021"/>
      <point x="173" y="1018" type="curve"/>
      <point x="90" y="913" type="line"/>
      <point x="86" y="910"/>
      <point x="86" y="907"/>
      <point x="90" y="905" type="curve"/>
      <point x="189" y="825" type="line"/>
    </contour>
    <contour>
      <point x="193" y="605" type="line"/>
      <point x="271" y="701" type="line"/>
      <point x="277" y="707"/>
      <point x="278" y="718"/>
      <point x="271" y="724" type="curve" smooth="yes"/>
      <point x="181" y="798" type="line"/>
      <point x="180" y="799"/>
      <point x="176" y="800"/>
      <point x="173" y="798" type="curve"/>
      <point x="90" y="692" type="line"/>
      <point x="86" y="690"/>
      <point x="86" y="687"/>
      <point x="90" y="684" type="curve" smooth="yes"/>
      <point x="189" y="605" type="line"/>
    </contour>
    <contour>
      <point x="393" y="616"/>
      <point x="396" y="616"/>
      <point x="397" y="617" type="curve"/>
      <point x="474" y="713" type="line"/>
      <point x="480" y="719"/>
      <point x="481" y="731"/>
      <point x="474" y="737" type="curve" smooth="yes"/>
      <point x="384" y="810" type="line"/>
      <point x="383" y="812"/>
      <point x="379" y="812"/>
      <point x="376" y="810" type="curve"/>
      <point x="293" y="704" type="line"/>
      <point x="290" y="702"/>
      <point x="290" y="700"/>
      <point x="293" y="697" type="curve"/>
      <point x="392" y="617" type="line"/>
    </contour>
    <contour>
      <point x="393" y="837"/>
      <point x="396" y="837"/>
      <point x="397" y="838" type="curve"/>
      <point x="474" y="934" type="line"/>
      <point x="480" y="939"/>
      <point x="481" y="951"/>
      <point x="474" y="958" type="curve"/>
      <point x="384" y="1031" type="line"/>
      <point x="383" y="1033"/>
      <point x="379" y="1033"/>
      <point x="376" y="1031" type="curve"/>
      <point x="293" y="925" type="line"/>
      <point x="290" y="923"/>
      <point x="290" y="920"/>
      <point x="293" y="917" type="curve"/>
      <point x="392" y="838" type="line"/>
    </contour>
    <contour>
      <point x="280" y="1186" type="move" name="top"/>
    </contour>
    <contour>
      <point x="280" y="622" type="move" name="_top"/>
    </contour>
  </outline>
</glyph>
<glyph name="fourdotsbelow-ar" format="1">
  <advance width="560"/>
  <unicode hex="FBBB"/>
  <outline>
    <component base="fourdotsabove-ar" yOffset="-1100"/>
    <contour>
      <point x="280" y="-84" type="move" name="_bottom"/>
    </contour>
    <contour>
      <point x="280" y="-648" type="move" name="bottom"/>
    </contour>
  </outline>
</glyph>
<glyph name="twodotsverticalabove-ar" format="1">
  <advance width="462"/>
  <unicode hex="FBBD"/>
  <outline>
    <contour>
      <point x="342" y="729" type="line" smooth="yes"/>
      <point x="211" y="832" type="line" smooth="yes"/>
      <point x="103" y="715" type="line" smooth="yes"/>
      <point x="239" y="614" type="line" smooth="yes"/>
    </contour>
    <contour>
      <point x="336" y="991" type="line" smooth="yes"/>
      <point x="208" y="1095" type="line" smooth="yes"/>
      <point x="103" y="977" type="line" smooth="yes"/>
      <point x="231" y="876" type="line" smooth="yes"/>
    </contour>
    <contour>
      <point x="228" y="1254" type="move" name="top"/>
    </contour>
    <contour>
      <point x="237" y="615" type="move" name="_top"/>
    </contour>
  </outline>
</glyph>
<glyph name="twodotsverticalbelow-ar" format="1">
  <advance width="0"/>
  <unicode hex="FBBE"/>
  <outline>
    <component base="twodotsverticalabove-ar" yOffset="-1136"/>
    <contour>
      <point x="102" y="-44" type="move" name="_bottom"/>
    </contour>
    <contour>
      <point x="115" y="-670" type="move" name="bottom"/>
    </contour>
  </outline>
</glyph>
<glyph name="ng-ar.fina" format="1">
  <advance width="1460"/>
  <unicode hex="FBD4"/>
  <outline>
    <component base="kaf-ar.fina"/>
    <component base="threedotsupabove-ar" xOffset="400" yOffset="232"/>
    <contour>
      <point x="674" y="-187" type="move" name="bottom"/>
    </contour>
  </outline>
</glyph>
<glyph name="yeh-farsi.fina" format="1">
  <advance width="1356"/>
  <unicode hex="FBFD"/>
  <outline>
    <contour>
      <point x="759" y="-28" type="line"/>
      <point x="915" y="-69"/>
      <point x="1069" y="-131"/>
      <point x="1172" y="-197" type="curve"/>
      <point x="957" y="-323"/>
      <point x="679" y="-385"/>
      <point x="563" y="-382" type="curve" smooth="yes"/>
      <point x="344" y="-376"/>
      <point x="185" y="-261"/>
      <point x="268" y="81" type="curve" smooth="yes"/>
      <point x="299" y="209" type="line"/>
      <point x="206" y="229" type="line"/>
      <point x="172" y="92" type="line" smooth="yes"/>
      <point x="76" y="-296"/>
      <point x="183" y="-554"/>
      <point x="549" y="-554" type="curve" smooth="yes"/>
      <point x="683" y="-554"/>
      <point x="927" y="-496"/>
      <point x="1091" y="-391" type="curve" smooth="yes"/>
      <point x="1193" y="-326"/>
      <point x="1241" y="-262"/>
      <point x="1241" y="-165" type="curve" smooth="yes"/>
      <point x="1241" y="-94"/>
      <point x="1200" y="-42"/>
      <point x="1049" y="17" type="curve"/>
      <point x="1108" y="11"/>
      <point x="1309" y="0"/>
      <point x="1356" y="0" type="curve" smooth="yes"/>
      <point x="1368" y="0"/>
      <point x="1374" y="6"/>
      <point x="1374" y="18" type="curve" smooth="yes"/>
      <point x="1374" y="138" type="line" smooth="yes"/>
      <point x="1374" y="150"/>
      <point x="1368" y="156"/>
      <point x="1356" y="156" type="curve" smooth="yes"/>
      <point x="838" y="156" type="line"/>
    </contour>
    <contour>
      <point x="698" y="610" type="move" name="top"/>
    </contour>
    <contour>
      <point x="527" y="-807" type="move" name="bottom"/>
    </contour>
  </outline>
</glyph>
<glyph name="yeh-farsi.medi" format="1">
  <advance width="794"/>
  <unicode hex="FBFF"/>
  <outline>
    <component base="yeh-ar.medi"/>
    <contour>
      <point x="460" y="687" type="move" name="top"/>
    </contour>
  </outline>
</glyph>
<glyph name="parenleft-ar" format="1">
  <advance width="1006"/>
  <unicode hex="FD3E"/>
  <outline>
    <contour>
      <point x="856" y="-320"/>
      <point x="862" y="-317"/>
      <point x="866" y="-311" type="curve" smooth="yes"/>
      <point x="904" y="-253" type="line" smooth="yes"/>
      <point x="909" y="-245"/>
      <point x="906" y="-238"/>
      <point x="897" y="-235" type="curve" smooth="yes"/>
      <point x="762" y="-190"/>
      <point x="643" y="-111"/>
      <point x="550" y="-8" type="curve" smooth="yes"/>
      <point x="544" y="-2"/>
      <point x="544" y="5"/>
      <point x="550" y="11" type="curve" smooth="yes"/>
      <point x="561" y="24" type="line" smooth="yes"/>
      <point x="583" y="49"/>
      <point x="584" y="74"/>
      <point x="563" y="101" type="curve" smooth="yes"/>
      <point x="494" y="195"/>
      <point x="430" y="336"/>
      <point x="586" y="529" type="curve" smooth="yes"/>
      <point x="592" y="537"/>
      <point x="592" y="543"/>
      <point x="586" y="549" type="curve" smooth="yes"/>
      <point x="437" y="738"/>
      <point x="499" y="874"/>
      <point x="566" y="965" type="curve" smooth="yes"/>
      <point x="586" y="993"/>
      <point x="584" y="1019"/>
      <point x="558" y="1042" type="curve" smooth="yes"/>
      <point x="547" y="1051" type="line" smooth="yes"/>
      <point x="540" y="1057"/>
      <point x="540" y="1064"/>
      <point x="546" y="1070" type="curve" smooth="yes"/>
      <point x="638" y="1174"/>
      <point x="758" y="1254"/>
      <point x="893" y="1300" type="curve" smooth="yes"/>
      <point x="903" y="1303"/>
      <point x="906" y="1311"/>
      <point x="899" y="1318" type="curve" smooth="yes"/>
      <point x="853" y="1378" type="line" smooth="yes"/>
      <point x="848" y="1385"/>
      <point x="842" y="1386"/>
      <point x="834" y="1384" type="curve" smooth="yes"/>
      <point x="513" y="1263"/>
      <point x="279" y="967"/>
      <point x="250" y="614" type="curve" smooth="yes"/>
      <point x="249" y="605"/>
      <point x="244" y="601"/>
      <point x="236" y="601" type="curve" smooth="yes"/>
      <point x="113" y="601" type="line" smooth="yes"/>
      <point x="105" y="601"/>
      <point x="100" y="595"/>
      <point x="100" y="587" type="curve" smooth="yes"/>
      <point x="100" y="485" type="line" smooth="yes"/>
      <point x="100" y="477"/>
      <point x="105" y="472"/>
      <point x="113" y="472" type="curve" smooth="yes"/>
      <point x="235" y="472" type="line" smooth="yes"/>
      <point x="243" y="472"/>
      <point x="248" y="467"/>
      <point x="249" y="459" type="curve" smooth="yes"/>
      <point x="279" y="99"/>
      <point x="521" y="-201"/>
      <point x="848" y="-317" type="curve" smooth="yes"/>
    </contour>
    <contour>
      <point x="364" y="461"/>
      <point x="326" y="495"/>
      <point x="326" y="542" type="curve" smooth="yes"/>
      <point x="326" y="589"/>
      <point x="364" y="626"/>
      <point x="411" y="626" type="curve" smooth="yes"/>
      <point x="457" y="626"/>
      <point x="492" y="589"/>
      <point x="492" y="542" type="curve" smooth="yes"/>
      <point x="492" y="495"/>
      <point x="457" y="461"/>
      <point x="411" y="461" type="curve" smooth="yes"/>
    </contour>
  </outline>
</glyph>
<glyph name="parenright-ar" format="1">
  <advance width="600"/>
  <unicode hex="FD3F"/>
  <outline>
    <contour>
      <point x="366" y="589"/>
      <point x="401" y="626"/>
      <point x="447" y="626" type="curve" smooth="yes"/>
      <point x="494" y="626"/>
      <point x="532" y="589"/>
      <point x="532" y="542" type="curve" smooth="yes"/>
      <point x="532" y="495"/>
      <point x="494" y="461"/>
      <point x="447" y="461" type="curve" smooth="yes"/>
      <point x="401" y="461"/>
      <point x="366" y="495"/>
      <point x="366" y="542" type="curve" smooth="yes"/>
    </contour>
    <contour>
      <point x="-4" y="-317"/>
      <point x="2" y="-320"/>
      <point x="10" y="-317" type="curve" smooth="yes"/>
      <point x="338" y="-201"/>
      <point x="579" y="99"/>
      <point x="609" y="459" type="curve" smooth="yes"/>
      <point x="610" y="467"/>
      <point x="615" y="472"/>
      <point x="623" y="472" type="curve" smooth="yes"/>
      <point x="745" y="472" type="line" smooth="yes"/>
      <point x="753" y="472"/>
      <point x="759" y="477"/>
      <point x="759" y="485" type="curve" smooth="yes"/>
      <point x="759" y="587" type="line" smooth="yes"/>
      <point x="759" y="595"/>
      <point x="753" y="601"/>
      <point x="745" y="601" type="curve" smooth="yes"/>
      <point x="622" y="601" type="line" smooth="yes"/>
      <point x="614" y="601"/>
      <point x="609" y="605"/>
      <point x="608" y="613" type="curve" smooth="yes"/>
      <point x="578" y="967"/>
      <point x="345" y="1264"/>
      <point x="24" y="1384" type="curve" smooth="yes"/>
      <point x="17" y="1386"/>
      <point x="10" y="1385"/>
      <point x="6" y="1378" type="curve" smooth="yes"/>
      <point x="-41" y="1318" type="line" smooth="yes"/>
      <point x="-47" y="1311"/>
      <point x="-45" y="1303"/>
      <point x="-36" y="1300" type="curve" smooth="yes"/>
      <point x="100" y="1255"/>
      <point x="220" y="1174"/>
      <point x="312" y="1070" type="curve" smooth="yes"/>
      <point x="318" y="1064"/>
      <point x="318" y="1057"/>
      <point x="311" y="1051" type="curve" smooth="yes"/>
      <point x="300" y="1042" type="line" smooth="yes"/>
      <point x="274" y="1019"/>
      <point x="272" y="993"/>
      <point x="292" y="965" type="curve" smooth="yes"/>
      <point x="360" y="874"/>
      <point x="421" y="739"/>
      <point x="272" y="549" type="curve" smooth="yes"/>
      <point x="266" y="543"/>
      <point x="266" y="537"/>
      <point x="272" y="529" type="curve" smooth="yes"/>
      <point x="428" y="336"/>
      <point x="364" y="194"/>
      <point x="295" y="101" type="curve" smooth="yes"/>
      <point x="275" y="74"/>
      <point x="275" y="49"/>
      <point x="297" y="24" type="curve" smooth="yes"/>
      <point x="308" y="11" type="line" smooth="yes"/>
      <point x="314" y="5"/>
      <point x="314" y="-2"/>
      <point x="308" y="-9" type="curve" smooth="yes"/>
      <point x="215" y="-111"/>
      <point x="96" y="-190"/>
      <point x="-39" y="-235" type="curve" smooth="yes"/>
      <point x="-48" y="-238"/>
      <point x="-51" y="-245"/>
      <point x="-46" y="-253" type="curve" smooth="yes"/>
      <point x="-8" y="-311" type="line" smooth="yes"/>
    </contour>
  </outline>
</glyph>
<glyph name="allah-ar" format="1">
  <advance width="1801"/>
  <unicode hex="FDF2"/>
  <outline>
    <contour>
      <point x="603" y="137" type="line"/>
      <point x="697" y="-54"/>
      <point x="1007" y="-27"/>
      <point x="1151" y="101" type="curve"/>
      <point x="1233" y="-20"/>
      <point x="1581" y="-54"/>
      <point x="1671" y="109" type="curve" smooth="yes"/>
      <point x="1699" y="159"/>
      <point x="1712" y="228"/>
      <point x="1706" y="323" type="curve" smooth="yes"/>
      <point x="1639" y="1313" type="line"/>
      <point x="1501" y="1208" type="line"/>
      <point x="1618" y="194" type="line"/>
      <point x="1474" y="142"/>
      <point x="1342" y="151"/>
      <point x="1189" y="197" type="curve"/>
      <point x="1178" y="975" type="line"/>
      <point x="1049" y="881" type="line"/>
      <point x="1082" y="194" type="line"/>
      <point x="1016" y="170"/>
      <point x="940" y="153"/>
      <point x="870" y="154" type="curve" smooth="yes"/>
      <point x="666" y="156"/>
      <point x="666" y="206"/>
      <point x="633" y="683" type="curve"/>
      <point x="617" y="968" type="line"/>
      <point x="499" y="884" type="line"/>
      <point x="516" y="683" type="line"/>
      <point x="311" y="583"/>
      <point x="82" y="423"/>
      <point x="68" y="167" type="curve"/>
      <point x="83" y="33"/>
      <point x="429" y="38"/>
      <point x="561" y="53" type="curve"/>
    </contour>
    <contour>
      <point x="446" y="186"/>
      <point x="220" y="210"/>
      <point x="140" y="262" type="curve"/>
      <point x="183" y="365"/>
      <point x="355" y="484"/>
      <point x="536" y="561" type="curve"/>
      <point x="577" y="217" type="line"/>
    </contour>
    <contour>
      <point x="1027" y="1004"/>
      <point x="1077" y="1012"/>
      <point x="1108" y="1034" type="curve" smooth="yes"/>
      <point x="1151" y="997"/>
      <point x="1219" y="1012"/>
      <point x="1267" y="1036" type="curve" smooth="yes"/>
      <point x="1283" y="1119"/>
      <point x="1276" y="1152"/>
      <point x="1271" y="1174" type="curve" smooth="yes"/>
      <point x="1267" y="1196"/>
      <point x="1260" y="1225"/>
      <point x="1256" y="1246" type="curve"/>
      <point x="1216" y="1219" type="line"/>
      <point x="1250" y="1091" type="line" smooth="yes"/>
      <point x="1216" y="1078"/>
      <point x="1178" y="1066"/>
      <point x="1127" y="1084" type="curve" smooth="yes"/>
      <point x="1123" y="1196" type="line" smooth="yes"/>
      <point x="1092" y="1196" type="line" smooth="yes"/>
      <point x="1090" y="1084" type="line" smooth="yes"/>
      <point x="1056" y="1073"/>
      <point x="1022" y="1065"/>
      <point x="970" y="1082" type="curve" smooth="yes"/>
      <point x="982" y="1210" type="line" smooth="yes"/>
      <point x="951" y="1213" type="line" smooth="yes"/>
      <point x="938" y="1102" type="line"/>
      <point x="933" y="1062"/>
      <point x="946" y="1023"/>
      <point x="984" y="1014" type="curve"/>
    </contour>
    <contour>
      <point x="1121" y="1269"/>
      <point x="1126" y="1283"/>
      <point x="1127" y="1302" type="curve" smooth="yes"/>
      <point x="1131" y="1340"/>
      <point x="1126" y="1392"/>
      <point x="1121" y="1440" type="curve"/>
      <point x="1091" y="1408" type="line"/>
      <point x="1105" y="1252" type="line"/>
      <point x="1110" y="1250" type="line"/>
    </contour>
  </outline>
</glyph>
<glyph name="rial" format="1">
  <advance width="1314"/>
  <unicode hex="FDFC"/>
  <outline>
    <contour>
      <point x="714" y="-105"/>
      <point x="803" y="17"/>
      <point x="852" y="152" type="curve"/>
      <point x="1174" y="152" type="line"/>
      <point x="1174" y="232" type="line"/>
      <point x="875" y="232" type="line"/>
      <point x="888" y="292"/>
      <point x="890" y="336"/>
      <point x="883" y="406" type="curve"/>
      <point x="1174" y="406" type="line"/>
      <point x="1174" y="486" type="line"/>
      <point x="871" y="486" type="line"/>
      <point x="852" y="598"/>
      <point x="818" y="728"/>
      <point x="791" y="844" type="curve" smooth="yes"/>
      <point x="788" y="855"/>
      <point x="779" y="856"/>
      <point x="771" y="848" type="curve" smooth="yes"/>
      <point x="681" y="757" type="line"/>
      <point x="676" y="751"/>
      <point x="674" y="745"/>
      <point x="676" y="737" type="curve" smooth="yes"/>
      <point x="747" y="486" type="line"/>
      <point x="141" y="486" type="line"/>
      <point x="141" y="406" type="line"/>
      <point x="770" y="406" type="line"/>
      <point x="783" y="342"/>
      <point x="778" y="284"/>
      <point x="767" y="232" type="curve"/>
      <point x="141" y="232" type="line"/>
      <point x="141" y="152" type="line"/>
      <point x="732" y="152" type="line"/>
      <point x="617" y="-31"/>
      <point x="458" y="-107"/>
      <point x="179" y="-46" type="curve" smooth="yes"/>
      <point x="170" y="-44"/>
      <point x="164" y="-50"/>
      <point x="161" y="-59" type="curve" smooth="yes"/>
      <point x="141" y="-117" type="line"/>
      <point x="139" y="-125"/>
      <point x="143" y="-131"/>
      <point x="152" y="-134" type="curve" smooth="yes"/>
      <point x="358" y="-203"/>
      <point x="502" y="-224"/>
      <point x="624" y="-156" type="curve" smooth="yes"/>
    </contour>
  </outline>
</glyph>
<glyph name="alefMadda-ar.fina" format="1">
  <advance width="600"/>
  <unicode hex="FE82"/>
  <outline>
    <contour>
      <point x="527" y="0" type="line"/>
      <point x="569" y="52"/>
      <point x="569" y="104"/>
      <point x="527" y="156" type="curve"/>
      <point x="477" y="156"/>
      <point x="375" y="157"/>
      <point x="314" y="197" type="curve"/>
      <point x="297" y="1220" type="line"/>
      <point x="156" y="1120" type="line"/>
      <point x="202" y="322" type="line" smooth="yes"/>
      <point x="216" y="87"/>
      <point x="273" y="0"/>
      <point x="485" y="0" type="curve"/>
    </contour>
    <contour>
      <point x="55" y="1385" type="line"/>
      <point x="188" y="1353"/>
      <point x="370" y="1340"/>
      <point x="567" y="1410" type="curve"/>
      <point x="569" y="1538" type="line"/>
      <point x="379" y="1495"/>
      <point x="232" y="1505"/>
      <point x="118" y="1528" type="curve" smooth="yes"/>
      <point x="76" y="1536"/>
      <point x="16" y="1543"/>
      <point x="-60" y="1367" type="curve"/>
      <point x="12" y="1293" type="line"/>
    </contour>
  </outline>
</glyph>
<glyph name="alef-ar.fina" format="1">
  <advance width="527"/>
  <unicode hex="FE8E"/>
  <outline>
    <contour>
      <point x="156" y="1250" type="line"/>
      <point x="297" y="1350" type="line"/>
      <point x="314" y="197" type="line"/>
      <point x="375" y="177"/>
      <point x="477" y="156"/>
      <point x="527" y="156" type="curve" smooth="yes"/>
      <point x="539" y="156"/>
      <point x="545" y="150"/>
      <point x="545" y="138" type="curve" smooth="yes"/>
      <point x="545" y="18" type="line" smooth="yes"/>
      <point x="545" y="6"/>
      <point x="539" y="0"/>
      <point x="527" y="0" type="curve" smooth="yes"/>
      <point x="426" y="0" type="line"/>
      <point x="292" y="5"/>
      <point x="213" y="74"/>
      <point x="202" y="302" type="curve" smooth="yes"/>
    </contour>
  </outline>
</glyph>
<glyph name="hah-ar.fina" format="1">
  <advance width="1079"/>
  <unicode hex="FEA2"/>
  <outline>
    <contour>
      <point x="807" y="463" type="line"/>
      <point x="857" y="203"/>
      <point x="950" y="156"/>
      <point x="1079" y="156" type="curve" smooth="yes"/>
      <point x="1091" y="156"/>
      <point x="1097" y="150"/>
      <point x="1097" y="138" type="curve" smooth="yes"/>
      <point x="1097" y="18" type="line" smooth="yes"/>
      <point x="1097" y="6"/>
      <point x="1091" y="0"/>
      <point x="1079" y="0" type="curve" smooth="yes"/>
      <point x="1065" y="0" type="line" smooth="yes"/>
      <point x="845" y="0"/>
      <point x="759" y="245"/>
      <point x="708" y="435" type="curve"/>
    </contour>
    <contour>
      <point x="185" y="514" type="line"/>
      <point x="139" y="660" type="line"/>
      <point x="226" y="745"/>
      <point x="292" y="813"/>
      <point x="359" y="812" type="curve" smooth="yes"/>
      <point x="539" y="809"/>
      <point x="809" y="628"/>
      <point x="1125" y="647" type="curve"/>
      <point x="1072" y="467" type="line"/>
      <point x="713" y="455"/>
      <point x="293" y="218"/>
      <point x="238" y="-190" type="curve"/>
      <point x="303" y="-570"/>
      <point x="868" y="-480"/>
      <point x="1183" y="-434" type="curve"/>
      <point x="1143" y="-599" type="line"/>
      <point x="744" y="-681"/>
      <point x="138" y="-783"/>
      <point x="145" y="-190" type="curve" smooth="yes"/>
      <point x="149" y="134"/>
      <point x="402" y="444"/>
      <point x="675" y="540" type="curve"/>
      <point x="324" y="652" type="line"/>
    </contour>
    <contour>
      <point x="653" y="1068" type="move" name="top"/>
    </contour>
    <contour>
      <point x="604" y="-989" type="move" name="bottom"/>
    </contour>
    <contour>
      <point x="636" y="-82" type="move" name="center"/>
    </contour>
  </outline>
</glyph>
<glyph name="hah-ar.init" format="1">
  <advance width="1444"/>
  <unicode hex="FEA3"/>
  <outline>
    <contour>
      <point x="296" y="0"/>
      <point x="590" y="127"/>
      <point x="838" y="220" type="curve" smooth="yes"/>
      <point x="1033" y="294"/>
      <point x="1123" y="296"/>
      <point x="1257" y="281" type="curve"/>
      <point x="1266" y="281"/>
      <point x="1271" y="285"/>
      <point x="1274" y="293" type="curve"/>
      <point x="1323" y="442" type="line"/>
      <point x="1326" y="453"/>
      <point x="1322" y="459"/>
      <point x="1310" y="459" type="curve"/>
      <point x="1099" y="449"/>
      <point x="929" y="524"/>
      <point x="741" y="600" type="curve" smooth="yes"/>
      <point x="488" y="702"/>
      <point x="395" y="754"/>
      <point x="233" y="559" type="curve"/>
      <point x="227" y="553"/>
      <point x="227" y="547"/>
      <point x="229" y="539" type="curve"/>
      <point x="259" y="442" type="line" smooth="yes"/>
      <point x="262" y="431"/>
      <point x="271" y="429"/>
      <point x="279" y="438" type="curve" smooth="yes"/>
      <point x="347" y="510"/>
      <point x="384" y="537"/>
      <point x="437" y="537" type="curve" smooth="yes"/>
      <point x="542" y="537"/>
      <point x="771" y="414"/>
      <point x="934" y="378" type="curve"/>
      <point x="724" y="320"/>
      <point x="382" y="156"/>
      <point x="0" y="156" type="curve" smooth="yes"/>
      <point x="-103" y="156"/>
      <point x="-103" y="0"/>
      <point x="0" y="0" type="curve" smooth="yes"/>
    </contour>
    <contour>
      <point x="442" y="846" type="move" name="top"/>
    </contour>
    <contour>
      <point x="625" y="-131" type="move" name="bottom"/>
    </contour>
  </outline>
</glyph>
<glyph name="hah-ar.medi" format="1">
  <advance width="1397"/>
  <unicode hex="FEA4"/>
  <outline>
    <contour>
      <point x="1357" y="156" type="line" smooth="yes"/>
      <point x="1208" y="156"/>
      <point x="1135" y="184"/>
      <point x="1083" y="236" type="curve"/>
      <point x="1136" y="241"/>
      <point x="1193" y="243"/>
      <point x="1253" y="241" type="curve"/>
      <point x="1335" y="417" type="line"/>
      <point x="1098" y="437"/>
      <point x="820" y="548"/>
      <point x="599" y="643" type="curve" smooth="yes"/>
      <point x="440" y="712"/>
      <point x="384" y="714"/>
      <point x="233" y="567" type="curve"/>
      <point x="258" y="410" type="line"/>
      <point x="415" y="532" type="line"/>
      <point x="906" y="352" type="line"/>
      <point x="697" y="304"/>
      <point x="404" y="158"/>
      <point x="0" y="156" type="curve" smooth="yes"/>
      <point x="-103" y="156"/>
      <point x="-103" y="0"/>
      <point x="0" y="0" type="curve" smooth="yes"/>
      <point x="410" y="-7"/>
      <point x="643" y="150"/>
      <point x="948" y="215" type="curve"/>
      <point x="1033" y="80"/>
      <point x="1123" y="0"/>
      <point x="1357" y="0" type="curve" smooth="yes"/>
      <point x="1397" y="0" type="line"/>
      <point x="1439" y="52"/>
      <point x="1439" y="104"/>
      <point x="1397" y="156" type="curve"/>
    </contour>
    <contour>
      <point x="508" y="861" type="move" name="top"/>
    </contour>
    <contour>
      <point x="696" y="-109" type="move" name="bottom"/>
    </contour>
  </outline>
</glyph>
<glyph name="dal-ar.fina" format="1">
  <advance width="1012"/>
  <unicode hex="FEAA"/>
  <outline>
    <contour>
      <point x="564" y="802" type="line"/>
      <point x="694" y="900" type="line"/>
      <point x="772" y="360" type="line"/>
      <point x="797" y="210"/>
      <point x="876" y="156"/>
      <point x="1012" y="156" type="curve" smooth="yes"/>
      <point x="1024" y="156"/>
      <point x="1030" y="150"/>
      <point x="1030" y="138" type="curve" smooth="yes"/>
      <point x="1030" y="18" type="line" smooth="yes"/>
      <point x="1030" y="6"/>
      <point x="1024" y="0"/>
      <point x="1012" y="0" type="curve" smooth="yes"/>
      <point x="901" y="0"/>
      <point x="788" y="35"/>
      <point x="741" y="143" type="curve"/>
      <point x="706" y="41" type="line"/>
      <point x="610" y="1"/>
      <point x="440" y="-39"/>
      <point x="304" y="-39" type="curve" smooth="yes"/>
      <point x="44" y="-39"/>
      <point x="63" y="106"/>
      <point x="77" y="276" type="curve"/>
      <point x="173" y="276" type="line"/>
      <point x="173" y="150" type="line"/>
      <point x="327" y="87"/>
      <point x="542" y="132"/>
      <point x="684" y="186" type="curve"/>
    </contour>
    <contour>
      <point x="554" y="1149" type="move" name="top"/>
    </contour>
    <contour>
      <point x="442" y="-349" type="move" name="bottom"/>
    </contour>
  </outline>
</glyph>
<glyph name="reh-ar.fina" format="1">
  <advance width="979"/>
  <unicode hex="FEAE"/>
  <outline>
    <contour>
      <point x="517" y="-312"/>
      <point x="642" y="-103"/>
      <point x="673" y="86" type="curve"/>
      <point x="707" y="47"/>
      <point x="795" y="0"/>
      <point x="939" y="0" type="curve" smooth="yes"/>
      <point x="979" y="0" type="line"/>
      <point x="1021" y="52"/>
      <point x="1021" y="104"/>
      <point x="979" y="156" type="curve"/>
      <point x="939" y="156" type="line" smooth="yes"/>
      <point x="798" y="156"/>
      <point x="729" y="178"/>
      <point x="690" y="237" type="curve" smooth="yes"/>
      <point x="644" y="306"/>
      <point x="640" y="425"/>
      <point x="614" y="617" type="curve"/>
      <point x="602" y="621" type="line"/>
      <point x="505" y="486"/>
      <point x="505" y="486"/>
      <point x="523" y="385" type="curve" smooth="yes"/>
      <point x="580" y="67" type="line"/>
      <point x="475" y="-165"/>
      <point x="332" y="-313"/>
      <point x="9" y="-273" type="curve" smooth="yes"/>
      <point x="-30" y="-268"/>
      <point x="-30" y="-289"/>
      <point x="-60" y="-377" type="curve"/>
      <point x="-60" y="-377"/>
      <point x="195" y="-462"/>
      <point x="352" y="-389" type="curve" smooth="yes"/>
    </contour>
    <contour>
      <point x="605" y="835" type="move" name="top"/>
    </contour>
    <contour>
      <point x="251" y="-630" type="move" name="bottom"/>
    </contour>
  </outline>
</glyph>
